<svg id="Capa_1" data-name="Capa 1" xmlns="http://www.w3.org/2000/svg" viewBox="0 0 98 90.51"><defs><style>.cls-1{fill:#00263d;}.cls-2{fill:#0198f5;}</style></defs><title>bitpay-logo</title><path class="cls-1" d="M112.62,90.16A10.56,10.56,0,0,1,109,88.85c-3.52-1.61-35.92-16.6-37.23-17.31a1.31,1.31,0,0,1-.8-1.21V42.27c0-1.31.1-2.41.91-3s2.31-.3,5.43,1.11c.3.1,29.38,13.48,31.9,14.69l.2.1c2.52,1.21,4.93,2.31,4.93,10.26V87.54c0,1-.1,2-.8,2.41A1.5,1.5,0,0,1,112.62,90.16ZM73,40.25c-.2,0-.3,0-.4.1-.3.2-.3,1.31-.3,1.91V70.34h0c1.41.6,33.71,15.6,37.33,17.31,1,.5,2.82,1.31,3.12,1.11,0,0,.2-.2.2-1.31V65.31c0-7-1.81-7.95-4.13-9.06l-.2-.1C106.08,54.94,77.1,41.56,76.8,41.46h0A17.92,17.92,0,0,0,73,40.25Z" transform="translate(-66.53 -6.49)"/><path class="cls-1" d="M116.14,97a8.4,8.4,0,0,1-3.12-.8c-3.82-1.81-34.11-16-39.54-18.51v9.66a1.24,1.24,0,0,1-.4.8,1,1,0,0,1-.91.1l-5-2.31a1.16,1.16,0,0,1-.6-.91V35.32c0-1.61.2-3.42,1.51-4.33s3.62-.4,7.45,1.41c6.24,3,26.56,12.48,35.22,16.5l1.91.91c7.14,3.32,7.75,7,7.75,12.17V89.76c0,3.52-.7,5.74-2.21,6.64A3.88,3.88,0,0,1,116.14,97Zm-43-20.83a.6.6,0,0,1,.4.1c4.73,2.21,35.92,16.8,39.94,18.71,1.71.8,2.92.91,3.72.4,1.11-.7,1.61-2.62,1.61-5.63V62.09c0-4.83-.3-7.95-6.94-11.07L110,50.11c-8.65-4-29-13.48-35.22-16.5-3.32-1.61-5.33-2-6.24-1.51-.6.4-.91,1.41-.91,3.22v49.5l4.43,2V77.18a1,1,0,0,1,.5-.8A1.43,1.43,0,0,1,73.17,76.17Z" transform="translate(-66.53 -6.49)"/><polygon class="cls-2" points="93.37 69.48 65.4 82.66 65.4 41.21 24.45 21.99 52.52 8.81 93.27 27.93 93.37 69.48"/><path class="cls-1" d="M117.95,51.22a.6.6,0,0,1-.4-.1C116,50.42,80.22,33.21,77.2,31.8c-2.11-1-3.12-2.11-3.12-3.42s1.31-2.72,3.92-4c5.33-2.62,33-15.7,35.42-16.8s5-1.81,9.46.3c3.42,1.61,36,16.9,41.05,19.22a1.16,1.16,0,0,1,.6.91,1.06,1.06,0,0,1-.5.91L158.4,31.7a.75.75,0,0,1-.91,0c-2.31-1.11-30.18-14.29-35.72-16.9a8,8,0,0,0-6.94.1L89.67,27.07a1.22,1.22,0,0,0,0,2.21C99,33.81,121.27,44.38,124.49,46a1.56,1.56,0,0,1,.6.8,1.06,1.06,0,0,1-.5.91l-6.14,3.42A4.36,4.36,0,0,0,117.95,51.22Zm-.5-43.47a9.22,9.22,0,0,0-3.72.91c-2.41,1.11-30,14.19-35.32,16.8-2,1-3.22,2-3.22,2.82s.91,1.51,2.41,2.31c3,1.41,37.53,18,40.25,19.32l5.53-3.12L89.07,30.39a2.41,2.41,0,0,1-1.41-2.21A2.31,2.31,0,0,1,89.07,26l24.65-12.17a9.06,9.06,0,0,1,8-.1c5.53,2.62,32.8,15.49,35.72,16.8l5-2.52c-6.44-3-37.13-17.41-40.45-19A9.9,9.9,0,0,0,117.44,7.75Z" transform="translate(-66.53 -6.49)"/></svg>