<svg id="Bitcoin_Symbol" data-name="Bitcoin Symbol" xmlns="http://www.w3.org/2000/svg" viewBox="0 0 1200 1108.27"><defs><style>.cls-1{fill:#00263d;}.cls-2{fill:#0198f5;}</style></defs><title>icon-aureus-symbol</title><path class="cls-1" d="M609.27,1436c-9.86,0-23.41-6.16-44.35-16-43.12-19.71-439.84-203.29-455.85-211.91a16,16,0,0,1-9.86-14.78V849.53c0-16,1.23-29.57,11.09-37,11.09-7.39,28.34-3.7,66.53,13.55,3.7,1.23,359.75,165.09,390.55,179.88l2.46,1.23c30.8,14.78,60.37,28.34,60.37,125.67v271c0,12.32-1.23,24.64-9.86,29.57C616.66,1436,613,1436,609.27,1436ZM123.85,824.89c-2.46,0-3.7,0-4.93,1.23-3.7,2.46-3.7,16-3.7,23.41v343.74h0c17.25,7.39,412.73,191,457.08,211.91,12.32,6.16,34.5,16,38.19,13.55,0,0,2.46-2.46,2.46-16v-271c0-86.24-22.18-97.33-50.51-110.88l-2.46-1.23c-30.8-14.78-385.63-178.64-389.32-179.88h0C147.26,831,131.24,824.89,123.85,824.89Z" transform="translate(-45 -411.48)"/><path class="cls-1" d="M652.39,1519.75c-11.09,0-23.41-3.7-38.19-9.86C567.38,1487.72,196.54,1314,130,1283.2v118.28c0,3.7-2.46,7.39-4.93,9.86a12,12,0,0,1-11.09,1.23l-61.6-28.34c-3.7-2.46-7.39-6.16-7.39-11.09V764.52c0-19.71,2.46-41.89,18.48-53,17.25-11.09,44.35-4.93,91.17,17.25,76.39,37,325.26,152.77,431.21,202.05l23.41,11.09c87.47,40.66,94.87,86.24,94.87,149.08v340c0,43.12-8.62,70.23-27.1,81.31C668.41,1517.29,661,1519.75,652.39,1519.75Zm-526.08-255c1.23,0,3.7,0,4.93,1.23,57.91,27.1,439.84,205.75,489.12,229.16,20.94,9.86,35.73,11.09,45.59,4.93,13.55-8.62,19.71-32,19.71-69V1092.24c0-59.14-3.7-97.33-85-135.52l-23.41-11.09C471.28,896.35,222.41,780.54,146,743.57c-40.66-19.71-65.3-24.64-76.39-18.48-7.39,4.93-11.09,17.25-11.09,39.43v606.16l54.21,24.64V1277c0-3.7,2.46-7.39,6.16-9.86C121.38,1266,123.85,1264.72,126.31,1264.72Z" transform="translate(-45 -411.48)"/><polygon class="cls-2" points="1143.33 850.77 800.82 1012.17 800.82 504.57 299.38 269.26 643.12 107.86 1142.09 341.95 1143.33 850.77"/><path class="cls-1" d="M674.57,959.18c-1.23,0-3.7,0-4.93-1.23-18.48-8.62-457.08-219.3-494-236.55-25.87-12.32-38.19-25.87-38.19-41.89,0-17.25,16-33.26,48-49.28,65.3-32,404.11-192.2,433.68-205.75,28.34-13.55,61.6-22.18,115.81,3.7,41.89,19.71,441.07,207,502.67,235.32,3.7,2.46,7.39,6.16,7.39,11.09a12.94,12.94,0,0,1-6.16,11.09l-69,34.5a9.24,9.24,0,0,1-11.09,0c-28.34-13.55-369.61-174.95-437.37-207-27.1-12.32-57.91-12.32-85,1.23l-308,149.08a15,15,0,0,0,0,27.1C442.94,746,715.22,875.4,754.65,895.11A19.16,19.16,0,0,1,762,905a12.94,12.94,0,0,1-6.16,11.09l-75.15,41.89C678.26,957.95,675.8,959.18,674.57,959.18Zm-6.16-532.24c-17.25,0-30.8,4.93-45.59,11.09-29.57,13.55-367.15,173.72-432.44,205.75C165.74,656.1,151,668.42,151,678.28c0,8.62,11.09,18.48,29.57,28.34,37,17.25,459.55,220.53,492.81,236.55L741.1,905C684.42,877.87,431.86,757.13,321,704.15A29.54,29.54,0,0,1,303.73,677c0-12.32,6.16-22.18,17.25-27.1L622.82,500.86c30.8-16,67.76-16,98.56-1.23,67.76,32,401.64,189.73,437.37,205.75l61.6-30.8c-78.85-37-454.62-213.14-495.28-232.85C702.9,430.64,685.66,426.94,668.41,426.94Z" transform="translate(-45 -411.48)"/></svg>