<svg id="Bitcoin_Symbol" data-name="Bitcoin Symbol" xmlns="http://www.w3.org/2000/svg" viewBox="0 0 1200 1108.27"><defs><style>.cls-1{fill:#00263d;}.cls-2{fill:#0198f5;}</style></defs><title>icon-bitcoin-symbol</title><path class="cls-1" d="M599.58,1430.36c-9.86,0-23.41-6.16-44.35-16-43.12-19.71-439.84-203.29-455.85-211.91a16,16,0,0,1-9.86-14.78V843.91c0-16,1.23-29.57,11.09-37,11.09-7.39,28.34-3.7,66.53,13.55,3.7,1.23,359.75,165.09,390.55,179.88l2.46,1.23c30.8,14.78,60.37,28.34,60.37,125.67v271c0,12.32-1.23,24.64-9.86,29.57C607,1430.36,603.28,1430.36,599.58,1430.36ZM114.16,819.27c-2.46,0-3.7,0-4.93,1.23-3.7,2.46-3.7,16-3.7,23.41v343.74h0c17.25,7.39,412.73,191,457.08,211.91,12.32,6.16,34.5,16,38.19,13.55,0,0,2.46-2.46,2.46-16V1126c0-86.24-22.18-97.33-50.51-110.88l-2.46-1.23C519.5,999.15,164.67,835.29,161,834.05h0C137.57,825.43,121.55,819.27,114.16,819.27Z" transform="translate(-35.31 -405.86)"/><path class="cls-1" d="M642.7,1514.14c-11.09,0-23.41-3.7-38.19-9.86-46.82-22.18-417.66-195.89-484.19-226.69v118.28c0,3.7-2.46,7.39-4.93,9.86a12,12,0,0,1-11.09,1.23l-61.6-28.34c-3.7-2.46-7.39-6.16-7.39-11.09V758.9c0-19.71,2.46-41.89,18.48-53C71,694.83,98.14,701,145,723.17c76.39,37,325.26,152.77,431.21,202.05l23.41,11.09c87.47,40.66,94.87,86.24,94.87,149.08v340c0,43.12-8.62,70.23-27.1,81.31C658.72,1511.67,651.33,1514.14,642.7,1514.14Zm-526.08-255c1.23,0,3.7,0,4.93,1.23,57.91,27.1,439.84,205.75,489.12,229.16,20.94,9.86,35.73,11.09,45.59,4.93,13.55-8.62,19.71-32,19.71-69V1086.62c0-59.14-3.7-97.33-85-135.52L567.55,940C461.59,890.73,212.72,774.92,136.34,738,95.68,718.24,71,713.31,60,719.47c-7.39,4.93-11.09,17.25-11.09,39.43v606.16l54.21,24.64V1271.42c0-3.7,2.46-7.39,6.16-9.86C111.7,1260.34,114.16,1259.1,116.62,1259.1Z" transform="translate(-35.31 -405.86)"/><polygon class="cls-2" points="1143.33 850.77 800.82 1012.17 800.82 504.57 299.38 269.26 643.12 107.86 1142.09 341.95 1143.33 850.77"/><path class="cls-1" d="M664.88,953.56c-1.23,0-3.7,0-4.93-1.23-18.48-8.62-457.08-219.3-494-236.55-25.87-12.32-38.19-25.87-38.19-41.89,0-17.25,16-33.26,48-49.28,65.3-32,404.11-192.2,433.68-205.75,28.34-13.55,61.6-22.18,115.81,3.7,41.89,19.71,441.07,207,502.67,235.32,3.7,2.46,7.39,6.16,7.39,11.09a12.94,12.94,0,0,1-6.16,11.09l-69,34.5a9.24,9.24,0,0,1-11.09,0C1120.73,701,779.46,539.6,711.7,507.56c-27.1-12.32-57.91-12.32-85,1.23l-308,149.08a15,15,0,0,0,0,27.1C433.26,740.42,705.54,869.78,745,889.49a19.16,19.16,0,0,1,7.39,9.86,12.94,12.94,0,0,1-6.16,11.09L671,952.33C668.57,952.33,666.11,953.56,664.88,953.56Zm-6.16-532.24c-17.25,0-30.8,4.93-45.59,11.09C583.56,446,246,606.13,180.69,638.16c-24.64,12.32-39.43,24.64-39.43,34.5,0,8.62,11.09,18.48,29.57,28.34,37,17.25,459.55,220.53,492.81,236.55l67.76-38.19c-56.67-27.1-309.24-147.84-420.12-200.82A29.54,29.54,0,0,1,294,671.42c0-12.32,6.16-22.18,17.25-27.1L613.13,495.24c30.8-16,67.76-16,98.56-1.23,67.76,32,401.64,189.73,437.37,205.75l61.6-30.8C1131.82,632,756,455.82,715.39,436.11,693.22,425,676,421.32,658.72,421.32Z" transform="translate(-35.31 -405.86)"/></svg>