<svg id="Layer_1" data-name="Layer 1" xmlns="http://www.w3.org/2000/svg" viewBox="0 0 11 10.16"><defs><style>.cls-1{fill:#00263d;}.cls-2{fill:#0198f5;}</style></defs><title>icon-bitcoin-small</title><path class="cls-1" d="M5.71,12.31a1.19,1.19,0,0,1-.41-.15c-.4-.18-4-1.86-4.18-1.94A.15.15,0,0,1,1,10.09V6.94c0-.15,0-.27.1-.34s.26,0,.61.12L5.32,8.37h0c.28.14.55.26.55,1.15V12c0,.11,0,.23-.09.27A.17.17,0,0,1,5.71,12.31ZM1.26,6.71h0s0,.15,0,.21v3.15h0L5.37,12c.11.06.32.15.35.12s0,0,0-.15V9.52c0-.79-.2-.89-.46-1h0L1.69,6.85h0A2,2,0,0,0,1.26,6.71Z" transform="translate(-0.53 -2.92)"/><path class="cls-1" d="M6.1,13.08A.94.94,0,0,1,5.75,13L1.31,10.91V12a.14.14,0,0,1,0,.09.11.11,0,0,1-.1,0L.6,11.84a.13.13,0,0,1-.07-.1V6.16A.57.57,0,0,1,.7,5.67c.16-.1.41,0,.84.16.7.34,3,1.4,4,1.85l.21.1a1.25,1.25,0,0,1,.87,1.37v3.12c0,.4-.08.64-.25.75A.44.44,0,0,1,6.1,13.08ZM1.28,10.74h0l4.48,2.1c.19.09.33.1.42,0s.18-.29.18-.63V9.16a1.1,1.1,0,0,0-.78-1.24l-.21-.1c-1-.45-3.25-1.51-4-1.85-.37-.18-.6-.23-.7-.17s-.1.16-.1.36v5.56l.5.23V10.85a.12.12,0,0,1,.06-.09Z" transform="translate(-0.53 -2.92)"/><polygon class="cls-2" points="10.48 7.8 7.34 9.28 7.34 4.63 2.74 2.47 5.89 0.99 10.47 3.13 10.48 7.8"/><path class="cls-1" d="M6.31,7.94h0L1.73,5.76c-.24-.11-.35-.24-.35-.38s.15-.3.44-.45L5.8,3a1.1,1.1,0,0,1,1.06,0l4.61,2.16a.13.13,0,0,1,.07.1.12.12,0,0,1-.06.1l-.63.32a.08.08,0,0,1-.1,0l-4-1.9a.9.9,0,0,0-.78,0L3.13,5.23a.14.14,0,0,0,0,.25L7,7.35a.18.18,0,0,1,.07.09.12.12,0,0,1-.06.1l-.69.38ZM6.25,3.06a1,1,0,0,0-.42.1L1.87,5c-.23.11-.36.23-.36.32s.1.17.27.26L6.29,7.79l.62-.35L3.06,5.6a.27.27,0,0,1-.16-.25.26.26,0,0,1,.16-.25L5.83,3.74a1,1,0,0,1,.9,0l4,1.89.56-.28L6.77,3.2A1.11,1.11,0,0,0,6.25,3.06Z" transform="translate(-0.53 -2.92)"/></svg>