<?xml version="1.0" encoding="utf-8"?>
<!-- Generator: Adobe Illustrator 21.0.0, SVG Export Plug-In . SVG Version: 6.00 Build 0)  -->
<svg version="1.1" id="Capa_1" xmlns:sketch="http://www.bohemiancoding.com/sketch/ns"
	 xmlns="http://www.w3.org/2000/svg" xmlns:xlink="http://www.w3.org/1999/xlink" x="0px" y="0px" viewBox="0 0 234 102"
	 style="enable-background:new 0 0 234 102;" xml:space="preserve">
<style type="text/css">
	.st0{fill:#00263D;}
	.st1{fill:#0198F5;}
</style>
<title>download 3</title>
<desc>Created with Sketch.</desc>
<g>
	<path class="st0" d="M114.6,89.2c-0.8,0-1.9-0.5-3.6-1.3c-3.6-1.7-35.7-16.6-37.1-17.2c-0.5-0.2-0.8-0.7-0.8-1.2V41.6
		c0-1.3,0.1-2.4,0.9-3c0.9-0.6,2.3-0.3,5.4,1.1c0.3,0.1,29.2,13.4,31.7,14.6l0.2,0.1c2.5,1.2,4.9,2.3,4.9,10.2v22c0,1-0.1,2-0.8,2.4
		C115.2,89.1,114.9,89.2,114.6,89.2z M75.2,39.6c-0.2,0-0.3,0-0.4,0.1c-0.3,0.2-0.3,1.3-0.3,1.9v27.9c0,0,0,0,0,0
		c1.4,0.6,33.5,15.5,37.1,17.2c1,0.5,2.8,1.3,3.1,1.1c0,0,0.2-0.2,0.2-1.3v-22c0-7-1.8-7.9-4.1-9l-0.2-0.1
		c-2.5-1.2-31.3-14.5-31.6-14.6l0,0C77.1,40,75.8,39.6,75.2,39.6z"/>
</g>
<g>
	<path class="st0" d="M118.1,96c-0.9,0-1.9-0.3-3.1-0.8c-3.8-1.8-33.9-15.9-39.3-18.4v9.6c0,0.3-0.2,0.6-0.4,0.8
		c-0.3,0.2-0.6,0.2-0.9,0.1l-5-2.3c-0.3-0.2-0.6-0.5-0.6-0.9V34.7c0-1.6,0.2-3.4,1.5-4.3c1.4-0.9,3.6-0.4,7.4,1.4
		c6.2,3,26.4,12.4,35,16.4l1.9,0.9c7.1,3.3,7.7,7,7.7,12.1v27.6c0,3.5-0.7,5.7-2.2,6.6C119.4,95.8,118.8,96,118.1,96z M75.4,75.3
		c0.1,0,0.3,0,0.4,0.1c4.7,2.2,35.7,16.7,39.7,18.6c1.7,0.8,2.9,0.9,3.7,0.4c1.1-0.7,1.6-2.6,1.6-5.6V61.3c0-4.8-0.3-7.9-6.9-11
		l-1.9-0.9c-8.6-4-28.8-13.4-35-16.4c-3.3-1.6-5.3-2-6.2-1.5c-0.6,0.4-0.9,1.4-0.9,3.2v49.2l4.4,2v-9.6c0-0.3,0.2-0.6,0.5-0.8
		C75,75.4,75.2,75.3,75.4,75.3z"/>
</g>
<g>
	<polygon class="st1" points="161.6,75.1 133.8,88.1 133.8,47 93.1,27.9 121,14.8 161.5,33.8 	"/>
</g>
<g>
	<path class="st0" d="M119.9,50.4c-0.1,0-0.3,0-0.4-0.1c-1.5-0.7-37.1-17.8-40.1-19.2c-2.1-1-3.1-2.1-3.1-3.4c0-1.4,1.3-2.7,3.9-4
		c5.3-2.6,32.8-15.6,35.2-16.7c2.3-1.1,5-1.8,9.4,0.3c3.4,1.6,35.8,16.8,40.8,19.1c0.3,0.2,0.6,0.5,0.6,0.9c0,0.4-0.2,0.7-0.5,0.9
		l-5.6,2.8c-0.3,0.2-0.6,0.2-0.9,0c-2.3-1.1-30-14.2-35.5-16.8c-2.2-1-4.7-1-6.9,0.1L91.8,26.5c-0.4,0.2-0.7,0.6-0.7,1.1
		c0,0.5,0.3,0.9,0.7,1.1c9.3,4.5,31.4,15,34.6,16.6c0.3,0.2,0.5,0.5,0.6,0.8c0,0.4-0.2,0.7-0.5,0.9l-6.1,3.4
		C120.2,50.4,120,50.4,119.9,50.4z M119.4,7.3c-1.4,0-2.5,0.4-3.7,0.9c-2.4,1.1-29.8,14.1-35.1,16.7c-2,1-3.2,2-3.2,2.8
		c0,0.7,0.9,1.5,2.4,2.3c3,1.4,37.3,17.9,40,19.2l5.5-3.1c-4.6-2.2-25.1-12-34.1-16.3c-0.9-0.4-1.4-1.3-1.4-2.2c0-1,0.5-1.8,1.4-2.2
		l24.5-12.1c2.5-1.3,5.5-1.3,8-0.1c5.5,2.6,32.6,15.4,35.5,16.7l5-2.5c-6.4-3-36.9-17.3-40.2-18.9C122.2,7.6,120.8,7.3,119.4,7.3z"
		/>
</g>
</svg>
