<?xml version="1.0" encoding="utf-8"?>
<!-- Generator: Adobe Illustrator 21.0.0, SVG Export Plug-In . SVG Version: 6.00 Build 0)  -->
<svg version="1.1" id="Capa_1" xmlns:sketch="http://www.bohemiancoding.com/sketch/ns"
	 xmlns="http://www.w3.org/2000/svg" xmlns:xlink="http://www.w3.org/1999/xlink" x="0px" y="0px" viewBox="0 0 234 102"
	 style="enable-background:new 0 0 234 102;" xml:space="preserve">
<style type="text/css">
	.st0{fill:#fff;}
	.st1{fill:#0198F5;}
</style>
<title>download 3</title>
<desc>Created with Sketch.</desc>
<g>
	<g>
		<path class="st0" d="M114.6,90.8c-0.8,0-1.9-0.5-3.6-1.3C107.5,87.9,75.3,73,74,72.3c-0.5-0.2-0.8-0.7-0.8-1.2V43.2
			c0-1.3,0.1-2.4,0.9-3c0.9-0.6,2.3-0.3,5.4,1.1c0.3,0.1,29.2,13.4,31.7,14.6l0.2,0.1c2.5,1.2,4.9,2.3,4.9,10.2v22
			c0,1-0.1,2-0.8,2.4C115.2,90.8,114.9,90.8,114.6,90.8z M75.2,41.2c-0.2,0-0.3,0-0.4,0.1c-0.3,0.2-0.3,1.3-0.3,1.9v27.9
			c0,0,0,0,0,0c1.4,0.6,33.5,15.5,37.1,17.2c1,0.5,2.8,1.3,3.1,1.1c0,0,0.2-0.2,0.2-1.3v-22c0-7-1.8-7.9-4.1-9l-0.2-0.1
			c-2.5-1.2-31.3-14.5-31.6-14.6l0,0C77.1,41.7,75.8,41.2,75.2,41.2z"/>
	</g>
	<g>
		<path class="st0" d="M118.1,97.6c-0.9,0-1.9-0.3-3.1-0.8c-3.8-1.8-33.9-15.9-39.3-18.4V88c0,0.3-0.2,0.6-0.4,0.8
			c-0.3,0.2-0.6,0.2-0.9,0.1l-5-2.3c-0.3-0.2-0.6-0.5-0.6-0.9V36.3c0-1.6,0.2-3.4,1.5-4.3c1.4-0.9,3.6-0.4,7.4,1.4
			c6.2,3,26.4,12.4,35,16.4l1.9,0.9c7.1,3.3,7.7,7,7.7,12.1v27.6c0,3.5-0.7,5.7-2.2,6.6C119.4,97.4,118.8,97.6,118.1,97.6z
			 M75.4,76.9c0.1,0,0.3,0,0.4,0.1c4.7,2.2,35.7,16.7,39.7,18.6c1.7,0.8,2.9,0.9,3.7,0.4c1.1-0.7,1.6-2.6,1.6-5.6V62.9
			c0-4.8-0.3-7.9-6.9-11L112,51c-8.6-4-28.8-13.4-35-16.4c-3.3-1.6-5.3-2-6.2-1.5c-0.6,0.4-0.9,1.4-0.9,3.2v49.2l4.4,2v-9.6
			c0-0.3,0.2-0.6,0.5-0.8C75,77,75.2,76.9,75.4,76.9z"/>
	</g>
	<g>
		<polygon class="st1" points="161.6,76.7 133.8,89.8 133.8,48.6 93.1,29.5 121,16.4 161.5,35.4 		"/>
	</g>
	<g>
		<path class="st0" d="M119.9,52.1c-0.1,0-0.3,0-0.4-0.1c-1.5-0.7-37.1-17.8-40.1-19.2c-2.1-1-3.1-2.1-3.1-3.4c0-1.4,1.3-2.7,3.9-4
			c5.3-2.6,32.8-15.6,35.2-16.7c2.3-1.1,5-1.8,9.4,0.3c3.4,1.6,35.8,16.8,40.8,19.1c0.3,0.2,0.6,0.5,0.6,0.9c0,0.4-0.2,0.7-0.5,0.9
			l-5.6,2.8c-0.3,0.2-0.6,0.2-0.9,0c-2.3-1.1-30-14.2-35.5-16.8c-2.2-1-4.7-1-6.9,0.1L91.8,28.1c-0.4,0.2-0.7,0.6-0.7,1.1
			c0,0.5,0.3,0.9,0.7,1.1c9.3,4.5,31.4,15,34.6,16.6c0.3,0.2,0.5,0.5,0.6,0.8c0,0.4-0.2,0.7-0.5,0.9l-6.1,3.4
			C120.2,52,120,52.1,119.9,52.1z M119.4,8.9c-1.4,0-2.5,0.4-3.7,0.9c-2.4,1.1-29.8,14.1-35.1,16.7c-2,1-3.2,2-3.2,2.8
			c0,0.7,0.9,1.5,2.4,2.3c3,1.4,37.3,17.9,40,19.2l5.5-3.1c-4.6-2.2-25.1-12-34.1-16.3c-0.9-0.4-1.4-1.3-1.4-2.2
			c0-1,0.5-1.8,1.4-2.2l24.5-12.1c2.5-1.3,5.5-1.3,8-0.1c5.5,2.6,32.6,15.4,35.5,16.7l5-2.5c-6.4-3-36.9-17.3-40.2-18.9
			C122.2,9.2,120.8,8.9,119.4,8.9z"/>
	</g>
</g>
</svg>
