<?xml version="1.0" encoding="UTF-8" ?>
<!DOCTYPE svg PUBLIC "-//W3C//DTD SVG 1.1//EN" "http://www.w3.org/Graphics/SVG/1.1/DTD/svg11.dtd">
<svg width="11.5pt" height="11pt" viewBox="0 0 325 314" version="1.1" xmlns="http://www.w3.org/2000/svg">
<g id="#000000ff">
<path fill="#4d4d4d" opacity="1.00" d=" M 46.06 2.18 C 48.33 1.20 50.72 -0.39 53.28 0.55 C 89.67 37.37 126.01 74.25 162.30 111.17 C 162.70 110.85 163.51 110.20 163.91 109.88 C 177.85 95.83 191.73 81.72 205.56 67.57 C 227.19 45.53 249.06 23.72 270.59 1.58 C 272.82 -1.14 276.41 1.03 278.92 2.17 C 291.82 8.74 304.10 16.68 315.00 26.21 C 319.03 30.02 323.76 34.31 324.06 40.23 L 325.00 39.21 L 325.00 39.89 C 286.52 78.45 248.10 117.08 209.59 155.61 C 209.05 156.32 207.30 157.33 208.66 158.22 C 246.52 196.37 284.03 234.88 321.94 272.98 C 322.71 273.86 324.59 274.55 323.78 276.06 C 322.81 279.79 320.05 282.69 317.51 285.46 C 309.42 293.23 300.07 299.55 290.56 305.43 C 285.09 308.59 279.65 311.92 273.66 314.00 L 273.20 314.00 C 245.02 285.78 216.95 257.46 188.78 229.22 C 179.93 220.52 171.41 211.46 162.36 202.97 C 134.04 231.43 105.68 259.86 77.38 288.34 C 68.98 296.93 60.27 305.22 52.09 314.00 L 51.50 314.00 C 46.12 312.25 41.22 309.36 36.33 306.58 C 26.34 300.51 16.52 293.98 7.99 285.94 C 4.93 282.78 1.71 279.33 0.92 274.84 C 1.66 274.24 2.38 273.63 3.08 273.00 C 41.17 234.53 79.13 195.93 117.08 157.33 C 78.75 118.85 40.36 80.43 2.07 41.92 C 1.55 41.45 0.52 40.51 0.00 40.04 L 0.00 39.95 C 1.81 39.54 1.05 37.14 1.93 35.90 C 5.03 29.98 10.43 25.79 15.46 21.58 C 25.08 14.27 35.20 7.52 46.06 2.18 Z" />
</g>
</svg>
