<?xml version="1.0" encoding="utf-8"?>
<!-- Generator: Adobe Illustrator 21.0.0, SVG Export Plug-In . SVG Version: 6.00 Build 0)  -->
<svg version="1.1" id="Capa_1" xmlns="http://www.w3.org/2000/svg" xmlns:xlink="http://www.w3.org/1999/xlink" x="0px" y="0px"
	 viewBox="0 0 98 90.5" style="enable-background:new 0 0 98 90.5;" xml:space="preserve">
<style type="text/css">
	.st0{fill:#9E461B;}
	.st1{fill:#FFFFFF;}
	.st2{fill:#BD5F28;}
	.st3{fill:#F8C51D;}
	.st4{fill:#FBE638;}
	.st5{fill:#243E96;}
	.st6{fill:#F8A31A;}
	.st7{fill:#1B75BA;}
</style>
<title>bitpay-logo</title>
<g>
	<path class="st0" d="M88.9,28.8c0-3.8,0-7.5,0-11.3c-1.8,0-3.5,0-5.3,0c0-1.9,0-3.8,0-5.6c-1.8,0-3.5,0-5.3,0c0-1.9,0-3.8,0-5.6
		c-3.5,0-7.1,0-10.6,0c0-1.9,0-3.8,0-5.6H30.5c0,1.9,0,3.8,0,5.6c-3.5,0-7.1,0-10.6,0c0,1.9,0,3.8,0,5.6c-1.8,0-3.5,0-5.3,0
		c0,1.9,0,3.8,0,5.6c-1.8,0-3.5,0-5.3,0c0,3.8,0,7.5,0,11.3c-1.8,0-3.5,0-5.3,0v33.9c1.8,0,3.5,0,5.3,0c0,3.7,0,7.5,0,11.2
		c1.8,0,3.5,0,5.3,0c0,1.8,0,3.6,0,5.4c1.8,0,3.5,0,5.3,0c0,1.9,0,3.8,0,5.6c3.5,0,7.1,0,10.6,0c0,1.9,0,3.8,0,5.6h37.1
		c0-1.9,0-3.8,0-5.6c3.5,0,7.1,0,10.6,0c0-1.9,0-3.8,0-5.6c1.8,0,3.5,0,5.3,0c0-1.8,0-3.7,0-5.5c1.8,0,3.5,0,5.3,0
		c0-3.7,0-7.4,0-11.1c1.7,0,3.4,0,5.1,0V28.8C92.3,28.8,90.6,28.8,88.9,28.8z M88.8,34.5c0,1.9,0,3.8,0,5.7c0,3.7,0,7.5,0,11.2
		c0,1.8,0,3.7,0,5.5c0,1.9,0,3.7,0,5.6c-1.8,0-3.5,0-5.3,0c0,1.9,0,3.8,0,5.8c0,1.8,0,3.5,0,5.3c0,0.3-0.4,0.2-0.6,0.3
		c-1.5,0-3.1-0.1-4.6,0c-0.1,1.8,0,3.6,0,5.4c-1.8,0.2-3.5,0-5.3,0.1c-1.8,0-3.5,0-5.3,0c0,1.9,0,3.7,0,5.6c-1.8,0.2-3.5,0-5.3,0.1
		c-8.8,0-17.7,0-26.5,0c-1.8,0-3.5,0-5.3,0c-0.1-1.9-0.1-3.7,0-5.6c-1.8,0-3.6,0-5.3,0c-0.9,0.1-1.7,0-2.6,0.1c-0.8,0-1.6,0.1-2.5,0
		c-0.3-0.1-0.2-0.5-0.2-0.7c0-1.6,0-3.2,0-4.8c-1.8-0.1-3.6,0-5.3-0.1c0-1.9,0-3.7,0-5.6c0-1.8,0-3.6,0-5.4c-1.7,0.1-3.3,0.1-5,0
		c-0.3,0-0.3-0.4-0.3-0.6c0-1.7,0-3.4,0-5.1c0-1.8,0-3.7,0-5.5c0-3.8,0-7.6,0-11.4c0-1.9,0-3.8,0-5.6c0-1.7,0-3.4,0-5.1
		c0-0.2,0-0.6,0.3-0.6c1.7,0,3.3-0.1,5,0c0-1.9,0-3.8,0-5.7c0-1.9-0.1-3.7,0.1-5.6c1.7-0.2,3.5,0.2,5.3-0.2c0-1.7,0-3.5,0-5.2
		c0-0.3,0.4-0.3,0.6-0.3c1.6,0,3.1,0,4.7,0c1.8,0,3.5,0,5.3,0c0-1.9,0-3.8,0-5.6c10.6,0,21.2,0,31.8,0c1.7,0,3.5,0,5.2,0
		c0.1,1.9,0,3.7,0,5.6c1.8,0,3.5,0,5.3,0c1.2,0,2.4,0,3.6,0c0.5,0,1.1,0,1.6,0.1c0.1,1.8-0.1,3.7,0.1,5.5c1.7,0.1,3.3,0,5,0
		c0.4,0,0.3,0.4,0.3,0.6c0,1.7,0,3.3,0,5c0,1.9,0,3.8,0,5.7c1.7-0.1,3.5,0,5.2,0C89,30.7,88.8,32.6,88.8,34.5z"/>
	<path class="st1" d="M35.8,17.5c0-1.9,0-3.8,0-5.7c8.8,0,17.7,0,26.5,0c0-1.9,0-3.7,0-5.6c-10.6,0-21.2,0-31.8,0c0,1.9,0,3.8,0,5.6
		c-1.8,0-3.5,0-5.3,0c0,1.9,0,3.8,0,5.6C28.8,17.5,32.3,17.5,35.8,17.5z"/>
	<path class="st1" d="M62.4,11.9c0,1.9,0,3.7,0,5.6c1.8,0,3.5,0,5.3,0c0-1.9,0-3.8,0-5.6C65.9,11.9,64.1,11.9,62.4,11.9z"/>
	<path class="st2" d="M88.8,28.8c-1.7,0-3.5-0.1-5.2,0c0,1.8,0,3.7,0,5.5c-1.8,0.1-3.6,0-5.3,0c0-1.9,0-3.7,0-5.6c0-1.9,0-3.8,0-5.7
		c-1.8,0-3.5,0-5.3,0c-0.1-1.9,0-3.8,0-5.6c1.7,0,3.5,0,5.2,0c0.1,1.9,0,3.8,0,5.6c1.8,0,3.5,0,5.3,0c0-1.7,0-3.3,0-5
		c0-0.2,0.1-0.7-0.3-0.6c-1.7,0-3.3,0-5,0c-0.1-1.8,0-3.7-0.1-5.5c-0.5-0.2-1.1-0.1-1.6-0.1c-1.2,0-2.4,0-3.6,0c0,1.9,0,3.7,0,5.6
		c-1.8,0-3.5,0-5.3,0c-1.8,0-3.5,0-5.3,0c0-1.9,0-3.7,0-5.6c1.8,0,3.5,0,5.3,0c0-1.9,0.1-3.7,0-5.6c-1.7-0.1-3.5,0-5.2,0
		c0,1.9,0,3.7,0,5.6c-8.8,0-17.7,0-26.5,0c0,1.9,0,3.8,0,5.7c-3.5,0-7.1,0-10.6,0c0-1.9,0-3.8,0-5.6c-1.6,0-3.1,0-4.7,0
		c-0.2,0-0.6,0-0.6,0.3c-0.1,1.7,0,3.5,0,5.2c-1.7,0.3-3.5,0-5.3,0.2c-0.1,1.8,0,3.7-0.1,5.6c1.8,0,3.5,0,5.3,0c0,3.7,0,7.5,0,11.2
		c-1.8,0-3.5,0-5.3,0c0-1.9,0-3.7,0-5.6c-1.7-0.1-3.3-0.1-5,0c-0.3,0-0.3,0.4-0.3,0.6c0,1.7,0,3.4,0,5.1c1.8,0,3.5,0,5.3,0
		c0,1.9,0,3.8,0,5.7c0,3.7,0,7.5,0,11.2c0,1.9,0,3.7,0,5.6c1.8,0,3.5,0,5.3,0c0,3.7,0,7.4,0,11.1c-1.8,0-3.5,0-5.3,0
		c0,1.9,0,3.7,0,5.6c1.8,0.1,3.6,0,5.3,0.1c0,1.6,0,3.2,0,4.8c0,0.2-0.1,0.6,0.2,0.7c0.8,0.1,1.6,0,2.5,0c0.9,0,1.7,0.1,2.6-0.1
		c0-1.9,0-3.7,0-5.6c3.5,0,7.1,0,10.6,0c0,1.8,0,3.7,0,5.5c-1.8,0-3.5,0-5.3,0c0,1.9-0.1,3.7,0,5.6c1.7,0.1,3.5,0,5.3,0
		c0-1.9,0-3.7,0-5.6c8.8,0,17.7,0,26.5,0c0,1.9,0,3.7,0,5.6c1.8,0,3.5,0.1,5.3-0.1c0-1.9,0-3.7,0-5.6c-1.8,0-3.5,0-5.3,0
		c0-1.8,0-3.7,0-5.5c3.5,0,7,0,10.5,0c0,1.8,0,3.7,0,5.5c1.8,0,3.5,0.1,5.3-0.1c0.1-1.8,0-3.6,0-5.4c1.5-0.1,3.1,0,4.6,0
		c0.2,0,0.6,0.1,0.6-0.3c0-1.8,0-3.5,0-5.3c-1.8,0-3.5,0-5.3,0c0-3.7,0-7.5,0-11.2c1.8,0,3.5,0,5.3,0c0,1.8,0,3.7,0,5.5
		c1.8,0,3.5,0,5.3,0c0-1.9,0-3.7,0-5.6c-1.8,0-3.5,0-5.3,0c0-1.8,0-3.7,0-5.5c0-3.7,0-7.5,0-11.2c0-1.9,0-3.8,0-5.7
		c1.8,0,3.5,0,5.3,0C88.8,32.6,89,30.7,88.8,28.8z M25.2,17.5c0,1.9,0,3.8,0,5.6c-1.8,0-3.5,0-5.3,0c0-1.9,0-3.7,0-5.6
		C21.7,17.5,23.4,17.5,25.2,17.5z M25.2,73.7c-1.8,0-3.5,0-5.3,0c0-1.9-0.1-3.7,0-5.6c1.7,0,3.5,0,5.2,0
		C25.2,70,25.2,71.9,25.2,73.7z M73,68.2c-1.8,0-3.5,0-5.3,0c-1.8,0-3.5,0-5.3,0c0,1.9,0,3.7,0,5.6c-8.8,0-17.7,0-26.5,0
		c0-1.9,0-3.8,0-5.6c-1.8,0-3.5,0-5.3,0c-1.8,0-3.5,0-5.3,0c0-1.9,0-3.8,0-5.7c0-1.8,0-3.7,0-5.5c-1.8,0-3.5,0-5.3,0
		c0-5.6,0-11.2,0-16.8c0-1.9,0-3.8,0-5.6c1.8,0,3.5,0,5.3,0c0-3.8,0-7.5,0-11.3c3.5,0,7.1,0,10.6,0c0-1.9,0-3.8,0-5.7
		c3.5,0,7.1,0,10.6,0c1.8,0,3.6,0,5.3,0c3.5,0,7,0,10.6,0c0,1.9,0,3.8,0,5.7c3.5,0,7,0,10.6,0c0.1,3.8,0,7.5,0,11.3
		c1.8,0,3.5,0,5.3,0c0,1.9,0,3.8,0,5.7c0,5.6,0,11.2,0,16.9c-1.8,0.1-3.5,0-5.3,0c0,1.8,0,3.7,0,5.5C73,64.4,73,66.3,73,68.2z
		 M78.2,73.8c-1.7,0-3.5,0-5.2,0c0-1.9,0-3.7,0-5.6c1.8,0,3.5,0,5.3,0C78.2,70.1,78.3,71.9,78.2,73.8z"/>
	<path class="st2" d="M9.3,57c0,1.7,0,3.4,0,5.1c0,0.2,0,0.6,0.3,0.6c1.7,0,3.3,0,5,0c0-1.9,0-3.8,0-5.6C12.8,57,11.1,57,9.3,57z"/>
	<path class="st3" d="M72.9,17.5c0-1.9,0-3.7,0-5.6c-1.8,0-3.5,0-5.3,0c0,1.9,0,3.8,0,5.6C69.4,17.5,71.2,17.5,72.9,17.5z"/>
	<path class="st3" d="M67.6,56.9c-1.8,0-3.5,0-5.3,0c0-1.9,0-3.7,0-5.6c-1.7,0-3.5,0-5.2,0c-0.1-1.8-0.1-3.7,0-5.5
		c1.7-0.1,3.5,0,5.2-0.1c0.1-1.9,0-3.7,0.1-5.6c1.8-0.1,3.5,0,5.3,0c1.8,0,3.5,0,5.3,0c1.8,0,3.5,0,5.3,0c0-1.9,0-3.8,0-5.7
		c-1.8,0-3.5,0-5.3,0c-3.5,0-7.1,0-10.6,0c-1.8,0-3.5,0-5.3,0c0-1.9,0-3.7,0-5.6c-1.8-0.1-3.5,0-5.3,0c0-1.9,0-3.8,0-5.7
		c0-1.9,0-3.7,0-5.6c-1.8,0-3.6,0-5.3,0c0,1.9,0,3.8,0,5.6c0.1,1.9,0,3.7,0,5.6c-1.8,0.1-3.6,0.1-5.3,0v0.1c0,1.9,0,3.7,0,5.6
		c-1.8,0-3.5,0-5.3,0c-3.5,0-7.1,0-10.6,0c-1.8,0-3.5,0-5.3,0c0,1.9,0,3.8,0,5.6c1.8,0,3.5,0,5.3,0c1.8,0,3.5,0,5.3,0
		c1.8,0,3.5,0,5.3,0c0.1,1.9,0,3.7,0.1,5.6c1.7,0.1,3.4-0.2,5.1,0.1c0.2,0.6,0.1,1.3,0.1,1.9c0,1.2,0,2.4,0,3.7c-1.8,0-3.5,0-5.3,0
		c0,1.8,0,3.7,0,5.5c-1.8,0-3.5,0-5.3,0c0,1.9,0,3.7,0,5.6c0,1.9,0,3.8,0,5.7c1.8,0,3.5,0,5.3,0c0-1.8,0-3.7,0-5.5
		c1.8,0,3.5,0,5.3,0c0-1.8,0-3.7,0-5.5c1.8-0.1,3.5,0,5.3,0c1.8,0,3.5,0,5.3,0c1.7,0,3.5,0,5.2,0c0.1,1.8,0.1,3.7,0,5.5l0.1,0
		c1.8,0,3.5,0,5.3,0c0,1.9,0,3.7,0,5.6c1.8,0,3.5,0,5.3,0c0-1.9,0-3.8,0-5.7C67.7,60.6,67.6,58.8,67.6,56.9z M57,45.7
		c-1.8,0-3.6,0-5.4,0c0,1.9,0,3.7,0,5.6c-1.8,0-3.5,0-5.3,0c0-1.9,0-3.8,0-5.7c-1.8,0-3.5,0-5.3,0c0-1.9,0-3.8,0-5.6
		c1.8,0,3.5,0,5.3,0c0-1.9,0-3.8,0-5.6c1.8,0,3.5,0,5.3,0c0,1.9,0,3.8,0,5.6c1.8,0,3.5,0,5.3,0C57.1,42,57,43.9,57,45.7z"/>
	<path class="st3" d="M78.2,17.5c-1.7,0-3.5,0-5.2,0c0,1.9,0,3.8,0,5.6c1.8,0,3.5,0,5.3,0c0,1.9,0,3.8,0,5.7c1.8,0,3.5,0,5.3,0
		c0-1.9,0-3.8,0-5.7c-1.8,0-3.5,0-5.3,0C78.2,21.3,78.3,19.4,78.2,17.5z"/>
	<path class="st3" d="M19.9,34.4c0-3.7,0-7.5,0-11.2c-1.8,0-3.5,0-5.3,0c0,1.9,0,3.8,0,5.7c0,1.9,0,3.7,0,5.6
		C16.4,34.4,18.1,34.4,19.9,34.4z"/>
	<path class="st3" d="M14.6,51.4c0-3.7,0-7.5,0-11.2c-1.8,0-3.5,0-5.3,0c0,3.8,0,7.6,0,11.4c0.4-0.1,0.9-0.2,1.4-0.2
		C12,51.4,13.3,51.3,14.6,51.4z"/>
	<path class="st3" d="M83.6,51.4c1.8,0,3.5,0,5.3,0c0-3.7,0-7.5,0-11.2c-1.8,0-3.5,0-5.3,0C83.6,43.9,83.6,47.6,83.6,51.4z"/>
	<path class="st4" d="M25.2,23.2c0-1.9,0-3.8,0-5.6c-1.8,0-3.5,0-5.3,0c0,1.9,0,3.7,0,5.6C21.7,23.2,23.4,23.2,25.2,23.2z"/>
	<path class="st5" d="M35.8,28.8c1.8-0.1,3.5,0,5.3,0v-0.1c0-1.9,0-3.7,0-5.6c1.8,0,3.5,0,5.3,0c0-1.9,0-3.8,0-5.6
		c-3.5,0-7.1,0-10.6,0c-0.1,1.9,0,3.8,0,5.7c-3.5,0-7.1,0-10.6,0c0,3.8,0,7.5,0,11.3c3.5,0,7.1,0,10.6,0
		C35.8,32.6,35.8,30.7,35.8,28.8z"/>
	<path class="st5" d="M57,23.2c0,1.9,0,3.8,0,5.7c1.8,0,3.5,0,5.3,0c0,1.8,0,3.7,0,5.5c3.5,0,7.1,0,10.6,0c0-3.8,0-7.5,0-11.3
		c-3.5,0-7,0-10.6,0c0-1.9,0-3.8,0-5.7c-3.5,0-7,0-10.6,0c0,1.9,0,3.7,0,5.6C53.5,23.2,55.3,23.2,57,23.2z"/>
	<path class="st5" d="M30.5,56.9c0-3.7,0-7.4,0-11.1c-1.8-0.1-3.5,0-5.3,0c-0.1-1.9,0-3.8,0-5.6c-1.8,0-3.5,0-5.3,0
		c0,5.6,0,11.2,0,16.8c1.8,0,3.5,0,5.3,0C27,56.9,28.8,57,30.5,56.9z"/>
	<path class="st5" d="M73,45.8c-1.8,0-3.5,0-5.3,0c0,3.1,0,6.2,0,9.3c0,0.6,0,1.2,0,1.8c1.8,0,3.5,0,5.3,0c1.8,0,3.5,0.1,5.3,0
		c0-5.6,0-11.2,0-16.9c-1.8,0-3.5,0-5.3,0C73,42,73,43.9,73,45.8z"/>
	<path class="st5" d="M57,62.6l-0.1,0c-1.7,0-3.5,0-5.2,0c-1.7,0-3.5,0-5.2,0c-1.8,0-3.6-0.1-5.3,0c0,1.8,0,3.7,0,5.5
		c-1.8,0-3.5,0-5.3,0c0,1.9,0,3.8,0,5.6c8.8,0,17.7,0,26.5,0c0-1.9,0-3.7,0-5.6c-1.8,0-3.5,0-5.3,0C57,66.3,57,64.5,57,62.6z"/>
	<path class="st6" d="M41.2,28.7c1.8,0.1,3.6,0.1,5.3,0c0-1.9,0-3.7,0-5.6c-1.8,0-3.5,0-5.3,0C41.2,25,41.2,26.9,41.2,28.7z"/>
	<path class="st6" d="M51.7,23.1c-0.1,1.9,0,3.8,0,5.7c1.8,0.1,3.5,0,5.3,0c0-1.9,0-3.8,0-5.7C55.3,23.2,53.5,23.2,51.7,23.1z"/>
	<path class="st6" d="M78.2,28.9c0,1.9,0,3.7,0,5.6c1.8,0,3.6,0,5.3,0c0-1.8,0-3.7,0-5.5C81.8,28.8,80,28.8,78.2,28.9z"/>
	<path class="st6" d="M14.6,40.1c0-1.9,0-3.8,0-5.7c-1.8,0-3.5,0-5.3,0c0,1.9,0,3.8,0,5.6C11.1,40.1,12.9,40.1,14.6,40.1z"/>
	<path class="st6" d="M83.6,40.1c1.8,0,3.5,0,5.3,0c0-1.9,0-3.8,0-5.7c-1.8,0-3.5,0-5.3,0C83.6,36.3,83.5,38.2,83.6,40.1z"/>
	<path class="st6" d="M35.8,45.7c0,1.9,0,3.8,0,5.7c1.8,0,3.5,0,5.3,0c0.1-1.2,0-2.4,0-3.7c0-0.6,0.1-1.3-0.1-1.9
		C39.3,45.5,37.6,45.8,35.8,45.7c0-1.9,0.1-3.7,0-5.6c-1.8-0.1-3.5,0-5.3,0c0,1.9,0,3.8,0,5.6C32.3,45.7,34.1,45.7,35.8,45.7z"/>
	<path class="st6" d="M62.4,40.1c-0.1,1.9,0.1,3.7-0.1,5.6c-1.7,0.1-3.5-0.1-5.2,0.1c-0.1,1.8-0.1,3.7,0,5.5c1.7,0,3.5,0,5.2,0
		c0-1.9,0-3.7,0-5.6c1.8,0,3.5,0,5.3,0c0-1.9,0-3.8,0-5.7C65.9,40.1,64.1,40.1,62.4,40.1z"/>
	<path class="st6" d="M19.9,57c-1.8-0.1-3.5,0-5.3,0c0-1.9,0-3.7,0-5.6c-1.3,0-2.6,0-3.9,0c-0.5,0-0.9,0.1-1.4,0.2
		c0,1.8,0,3.7,0,5.5c1.8,0,3.5,0,5.3,0c0,1.9,0,3.8,0,5.6c0,1.8,0,3.6,0,5.4c1.8,0,3.5,0,5.3,0C19.9,64.4,19.9,60.7,19.9,57z"/>
	<path class="st6" d="M83.6,51.4c0,1.8,0,3.7,0,5.5c1.8,0,3.5,0,5.3,0c0-1.8,0-3.7,0-5.5C87.1,51.3,85.3,51.3,83.6,51.4z"/>
	<path class="st6" d="M46.5,57c-1.8,0-3.6-0.1-5.3,0c0,1.8,0,3.7,0,5.5c1.8,0,3.6,0,5.3,0C46.5,60.7,46.5,58.9,46.5,57z"/>
	<path class="st6" d="M56.9,62.6c0.1-1.8,0.1-3.7,0-5.5c-1.7-0.1-3.5,0-5.2,0c0,1.8,0,3.7,0,5.5C53.4,62.6,55.2,62.6,56.9,62.6z"/>
	<path class="st6" d="M78.3,57c0,3.7,0,7.5,0,11.2c1.8,0.1,3.5,0,5.3,0c0-1.9,0-3.8,0-5.8c0-1.8,0-3.7,0-5.5
		C81.8,56.9,80.1,57,78.3,57z"/>
	<path class="st6" d="M25.2,62.5c0,1.9,0,3.8,0,5.7c1.8,0,3.5,0,5.3,0c0-1.9,0-3.8,0-5.7C28.8,62.5,27,62.5,25.2,62.5z"/>
	<path class="st6" d="M67.6,68.2c1.8,0,3.5,0,5.3,0c0-1.9,0-3.8,0-5.7c-1.8,0-3.5,0-5.3,0C67.6,64.4,67.6,66.3,67.6,68.2z"/>
	<path class="st6" d="M19.9,73.7c1.8,0,3.5,0,5.3,0c0-1.9,0-3.7,0-5.6c-1.7,0-3.5,0-5.2,0C19.9,70,20,71.9,19.9,73.7z"/>
	<path class="st6" d="M73,68.2c0,1.9,0,3.7,0,5.6c1.7,0,3.5,0,5.2,0c0-1.8,0-3.7,0-5.5C76.5,68.2,74.7,68.2,73,68.2z"/>
	<path class="st6" d="M35.8,73.8c-3.5,0-7.1,0-10.6,0c0,1.9,0,3.7,0,5.6c1.8-0.1,3.6,0,5.3,0c1.8,0,3.5,0,5.3,0
		C35.8,77.4,35.8,75.6,35.8,73.8z"/>
	<path class="st6" d="M62.4,73.8c0,1.8,0,3.7,0,5.5c1.8,0,3.5,0,5.3,0c1.8,0,3.5,0,5.3,0c0-1.8,0-3.7,0-5.5
		C69.4,73.8,65.9,73.7,62.4,73.8z"/>
	<path class="st6" d="M35.8,79.3c0,1.9,0,3.7,0,5.6c8.8,0,17.7,0,26.5,0c0-1.9,0-3.7,0-5.6C53.5,79.3,44.7,79.3,35.8,79.3z"/>
	<path class="st7" d="M35.8,28.8c0,1.9,0,3.7,0,5.6c1.8,0,3.5,0,5.3,0c0-1.9,0-3.7,0-5.6C39.4,28.8,37.6,28.8,35.8,28.8z"/>
	<path class="st7" d="M57,28.9c0,1.9,0,3.7,0,5.6c1.8,0,3.5,0,5.3,0c0-1.8,0-3.7,0-5.5C60.6,28.9,58.8,28.9,57,28.9z"/>
	<path class="st7" d="M51.7,40.1c0-1.9,0-3.8,0-5.6c-1.8,0-3.5,0-5.3,0c0,1.9,0,3.8,0,5.6c-1.8,0-3.5,0-5.3,0c-0.1,1.9,0,3.7,0,5.6
		c1.8,0,3.5,0,5.3,0c0,1.9,0,3.8,0,5.7c1.8,0,3.5,0,5.3,0c0-1.9,0-3.7,0-5.6c1.8,0,3.6,0,5.4,0c0-1.9,0-3.8,0-5.7
		C55.3,40.1,53.5,40.1,51.7,40.1z"/>
	<path class="st7" d="M30.5,56.9c1.8,0,3.5,0,5.3,0c0-1.8,0-3.7,0-5.5c0-1.9,0-3.8,0-5.7c-1.8,0-3.5,0-5.3,0c0-1.9,0-3.8,0-5.6
		c-1.8,0-3.5,0-5.3,0c0,1.9,0,3.8,0,5.6c1.8,0,3.5,0,5.3,0C30.5,49.5,30.5,53.2,30.5,56.9c-1.8,0.1-3.6,0-5.4,0c0,1.8,0,3.7,0,5.5
		c1.8,0,3.6,0,5.3,0C30.5,60.6,30.5,58.8,30.5,56.9z"/>
	<path class="st7" d="M67.7,56.9c-0.1-0.6-0.1-1.2,0-1.8c0-3.1,0-6.2,0-9.3c1.8,0,3.5,0,5.3,0c0-1.9,0-3.8,0-5.7c-1.8,0-3.5,0-5.3,0
		c0,1.9,0,3.8,0,5.7c-1.8,0-3.5,0-5.3,0c0,1.9,0,3.7,0,5.6c0,1.9,0,3.7,0,5.6C64.1,56.9,65.9,56.9,67.7,56.9
		c-0.1,1.8-0.1,3.7-0.1,5.5c1.8,0,3.5,0,5.3,0c0-1.8,0-3.7,0-5.5C71.2,56.9,69.5,56.9,67.7,56.9z"/>
	<path class="st7" d="M51.7,62.6c0-1.9,0-3.7,0-5.5c-1.8,0-3.5,0-5.3,0c0,1.9,0,3.7,0,5.6C48.2,62.5,50,62.6,51.7,62.6z"/>
	<path class="st7" d="M41.1,62.6c-1.8,0-3.5,0-5.3,0c0,1.8,0,3.7,0,5.5c1.8,0,3.5,0,5.3,0C41.2,66.3,41.2,64.4,41.1,62.6z"/>
	<path class="st7" d="M62.3,62.6c-1.8,0-3.5,0-5.3,0c0,1.9,0,3.8,0,5.6c1.8,0,3.5,0,5.3,0C62.3,66.3,62.3,64.5,62.3,62.6z"/>
</g>
</svg>
