<?xml version="1.0" encoding="utf-8"?>
<!-- Generator: Adobe Illustrator 21.0.0, SVG Export Plug-In . SVG Version: 6.00 Build 0)  -->
<svg version="1.1" id="Layer_1" xmlns="http://www.w3.org/2000/svg" xmlns:xlink="http://www.w3.org/1999/xlink" x="0px" y="0px"
	 viewBox="0 0 11 10.2" style="enable-background:new 0 0 11 10.2;" xml:space="preserve">
<style type="text/css">
	.st0{fill:#9E461B;}
	.st1{fill:#FFFFFF;}
	.st2{fill:#BD5F28;}
	.st3{fill:#F8C51D;}
	.st4{fill:#FBE638;}
	.st5{fill:#243E96;}
	.st6{fill:#F8A31A;}
	.st7{fill:#1B75BA;}
</style>
<title>icon-aureus-small</title>
<g>
	<path class="st0" d="M9.9,3.3c0-0.4,0-0.8,0-1.3c-0.2,0-0.4,0-0.6,0c0-0.2,0-0.4,0-0.6c-0.2,0-0.4,0-0.6,0c0-0.2,0-0.4,0-0.6
		c-0.4,0-0.8,0-1.2,0c0-0.2,0-0.4,0-0.6H3.5c0,0.2,0,0.4,0,0.6c-0.4,0-0.8,0-1.2,0c0,0.2,0,0.4,0,0.6c-0.2,0-0.4,0-0.6,0
		c0,0.2,0,0.4,0,0.6c-0.2,0-0.4,0-0.6,0c0,0.4,0,0.8,0,1.3c-0.2,0-0.4,0-0.6,0v3.8c0.2,0,0.4,0,0.6,0c0,0.4,0,0.8,0,1.2
		c0.2,0,0.4,0,0.6,0c0,0.2,0,0.4,0,0.6c0.2,0,0.4,0,0.6,0c0,0.2,0,0.4,0,0.6c0.4,0,0.8,0,1.2,0c0,0.2,0,0.4,0,0.6h4.1
		c0-0.2,0-0.4,0-0.6c0.4,0,0.8,0,1.2,0c0-0.2,0-0.4,0-0.6c0.2,0,0.4,0,0.6,0c0-0.2,0-0.4,0-0.6c0.2,0,0.4,0,0.6,0c0-0.4,0-0.8,0-1.2
		c0.2,0,0.4,0,0.6,0V3.3C10.3,3.3,10.1,3.3,9.9,3.3z M9.9,4c0,0.2,0,0.4,0,0.6c0,0.4,0,0.8,0,1.2c0,0.2,0,0.4,0,0.6
		c0,0.2,0,0.4,0,0.6c-0.2,0-0.4,0-0.6,0c0,0.2,0,0.4,0,0.6c0,0.2,0,0.4,0,0.6c0,0,0,0-0.1,0c-0.2,0-0.3,0-0.5,0c0,0.2,0,0.4,0,0.6
		c-0.2,0-0.4,0-0.6,0c-0.2,0-0.4,0-0.6,0c0,0.2,0,0.4,0,0.6c-0.2,0-0.4,0-0.6,0c-1,0-2,0-2.9,0c-0.2,0-0.4,0-0.6,0
		c0-0.2,0-0.4,0-0.6c-0.2,0-0.4,0-0.6,0C2.8,9,2.7,9,2.6,9C2.5,9,2.4,9,2.3,9c0,0,0-0.1,0-0.1c0-0.2,0-0.4,0-0.5c-0.2,0-0.4,0-0.6,0
		c0-0.2,0-0.4,0-0.6c0-0.2,0-0.4,0-0.6c-0.2,0-0.4,0-0.6,0c0,0,0,0,0-0.1c0-0.2,0-0.4,0-0.6c0-0.2,0-0.4,0-0.6c0-0.4,0-0.8,0-1.3
		c0-0.2,0-0.4,0-0.6c0-0.2,0-0.4,0-0.6c0,0,0-0.1,0-0.1c0.2,0,0.4,0,0.6,0c0-0.2,0-0.4,0-0.6c0-0.2,0-0.4,0-0.6c0.2,0,0.4,0,0.6,0
		c0-0.2,0-0.4,0-0.6c0,0,0,0,0.1,0c0.2,0,0.3,0,0.5,0c0.2,0,0.4,0,0.6,0c0-0.2,0-0.4,0-0.6c1.2,0,2.4,0,3.5,0c0.2,0,0.4,0,0.6,0
		c0,0.2,0,0.4,0,0.6c0.2,0,0.4,0,0.6,0c0.1,0,0.3,0,0.4,0c0.1,0,0.1,0,0.2,0c0,0.2,0,0.4,0,0.6c0.2,0,0.4,0,0.6,0c0,0,0,0,0,0.1
		c0,0.2,0,0.4,0,0.6c0,0.2,0,0.4,0,0.6c0.2,0,0.4,0,0.6,0C10,3.5,9.9,3.8,9.9,4z"/>
	<path class="st1" d="M4,2.1c0-0.2,0-0.4,0-0.6c1,0,2,0,2.9,0C7,1.2,7,1,7,0.8c-1.2,0-2.4,0-3.5,0c0,0.2,0,0.4,0,0.6
		c-0.2,0-0.4,0-0.6,0c0,0.2,0,0.4,0,0.6C3.3,2.1,3.7,2.1,4,2.1z"/>
	<path class="st1" d="M7,1.5c0,0.2,0,0.4,0,0.6c0.2,0,0.4,0,0.6,0c0-0.2,0-0.4,0-0.6C7.4,1.5,7.2,1.5,7,1.5z"/>
	<path class="st2" d="M9.9,3.3c-0.2,0-0.4,0-0.6,0c0,0.2,0,0.4,0,0.6C9.2,4,9,4,8.8,4c0-0.2,0-0.4,0-0.6c0-0.2,0-0.4,0-0.6
		c-0.2,0-0.4,0-0.6,0c0-0.2,0-0.4,0-0.6c0.2,0,0.4,0,0.6,0c0,0.2,0,0.4,0,0.6c0.2,0,0.4,0,0.6,0c0-0.2,0-0.4,0-0.6c0,0,0-0.1,0-0.1
		c-0.2,0-0.4,0-0.6,0c0-0.2,0-0.4,0-0.6c-0.1,0-0.1,0-0.2,0c-0.1,0-0.3,0-0.4,0c0,0.2,0,0.4,0,0.6c-0.2,0-0.4,0-0.6,0
		c-0.2,0-0.4,0-0.6,0c0-0.2,0-0.4,0-0.6c0.2,0,0.4,0,0.6,0c0-0.2,0-0.4,0-0.6c-0.2,0-0.4,0-0.6,0C7,1,7,1.2,7,1.5c-1,0-2,0-2.9,0
		c0,0.2,0,0.4,0,0.6c-0.4,0-0.8,0-1.2,0c0-0.2,0-0.4,0-0.6c-0.2,0-0.3,0-0.5,0c0,0-0.1,0-0.1,0c0,0.2,0,0.4,0,0.6
		c-0.2,0-0.4,0-0.6,0c0,0.2,0,0.4,0,0.6c0.2,0,0.4,0,0.6,0c0,0.4,0,0.8,0,1.2C2.1,4,1.9,4,1.7,4c0-0.2,0-0.4,0-0.6
		c-0.2,0-0.4,0-0.6,0c0,0,0,0,0,0.1c0,0.2,0,0.4,0,0.6c0.2,0,0.4,0,0.6,0c0,0.2,0,0.4,0,0.6c0,0.4,0,0.8,0,1.2c0,0.2,0,0.4,0,0.6
		c0.2,0,0.4,0,0.6,0c0,0.4,0,0.8,0,1.2c-0.2,0-0.4,0-0.6,0c0,0.2,0,0.4,0,0.6c0.2,0,0.4,0,0.6,0c0,0.2,0,0.4,0,0.5c0,0,0,0.1,0,0.1
		c0.1,0,0.2,0,0.3,0c0.1,0,0.2,0,0.3,0c0-0.2,0-0.4,0-0.6c0.4,0,0.8,0,1.2,0c0,0.2,0,0.4,0,0.6c-0.2,0-0.4,0-0.6,0
		c0,0.2,0,0.4,0,0.6c0.2,0,0.4,0,0.6,0C4,9.4,4,9.2,4,9c1,0,2,0,2.9,0c0,0.2,0,0.4,0,0.6c0.2,0,0.4,0,0.6,0c0-0.2,0-0.4,0-0.6
		c-0.2,0-0.4,0-0.6,0c0-0.2,0-0.4,0-0.6c0.4,0,0.8,0,1.2,0c0,0.2,0,0.4,0,0.6c0.2,0,0.4,0,0.6,0c0-0.2,0-0.4,0-0.6
		c0.2,0,0.3,0,0.5,0c0,0,0.1,0,0.1,0c0-0.2,0-0.4,0-0.6c-0.2,0-0.4,0-0.6,0c0-0.4,0-0.8,0-1.2c0.2,0,0.4,0,0.6,0c0,0.2,0,0.4,0,0.6
		c0.2,0,0.4,0,0.6,0c0-0.2,0-0.4,0-0.6c-0.2,0-0.4,0-0.6,0c0-0.2,0-0.4,0-0.6c0-0.4,0-0.8,0-1.2c0-0.2,0-0.4,0-0.6
		c0.2,0,0.4,0,0.6,0C9.9,3.8,10,3.5,9.9,3.3z M2.9,2.1c0,0.2,0,0.4,0,0.6c-0.2,0-0.4,0-0.6,0c0-0.2,0-0.4,0-0.6
		C2.5,2.1,2.7,2.1,2.9,2.1z M2.9,8.3c-0.2,0-0.4,0-0.6,0c0-0.2,0-0.4,0-0.6c0.2,0,0.4,0,0.6,0C2.9,7.9,2.9,8.1,2.9,8.3z M8.2,7.7
		c-0.2,0-0.4,0-0.6,0c-0.2,0-0.4,0-0.6,0c0,0.2,0,0.4,0,0.6c-1,0-2,0-2.9,0c0-0.2,0-0.4,0-0.6c-0.2,0-0.4,0-0.6,0
		c-0.2,0-0.4,0-0.6,0c0-0.2,0-0.4,0-0.6c0-0.2,0-0.4,0-0.6c-0.2,0-0.4,0-0.6,0c0-0.6,0-1.2,0-1.9c0-0.2,0-0.4,0-0.6
		c0.2,0,0.4,0,0.6,0c0-0.4,0-0.8,0-1.3c0.4,0,0.8,0,1.2,0c0-0.2,0-0.4,0-0.6c0.4,0,0.8,0,1.2,0c0.2,0,0.4,0,0.6,0c0.4,0,0.8,0,1.2,0
		c0,0.2,0,0.4,0,0.6c0.4,0,0.8,0,1.2,0c0,0.4,0,0.8,0,1.3c0.2,0,0.4,0,0.6,0c0,0.2,0,0.4,0,0.6c0,0.6,0,1.2,0,1.9
		c-0.2,0-0.4,0-0.6,0c0,0.2,0,0.4,0,0.6C8.2,7.3,8.2,7.5,8.2,7.7z M8.8,8.3c-0.2,0-0.4,0-0.6,0c0-0.2,0-0.4,0-0.6c0.2,0,0.4,0,0.6,0
		C8.8,7.9,8.8,8.1,8.8,8.3z"/>
	<path class="st2" d="M1.1,6.5c0,0.2,0,0.4,0,0.6c0,0,0,0.1,0,0.1c0.2,0,0.4,0,0.6,0c0-0.2,0-0.4,0-0.6C1.5,6.5,1.3,6.5,1.1,6.5z"/>
	<path class="st3" d="M8.2,2.1c0-0.2,0-0.4,0-0.6c-0.2,0-0.4,0-0.6,0c0,0.2,0,0.4,0,0.6C7.8,2.1,8,2.1,8.2,2.1z"/>
	<path class="st3" d="M7.6,6.5c-0.2,0-0.4,0-0.6,0C7,6.3,7,6,7,5.8c-0.2,0-0.4,0-0.6,0c0-0.2,0-0.4,0-0.6c0.2,0,0.4,0,0.6,0
		C7,5,7,4.8,7,4.6c0.2,0,0.4,0,0.6,0c0.2,0,0.4,0,0.6,0c0.2,0,0.4,0,0.6,0c0-0.2,0-0.4,0-0.6C8.6,4,8.4,4,8.2,4C7.8,4,7.4,4,7,4
		C6.8,4,6.6,4,6.4,4c0-0.2,0-0.4,0-0.6c-0.2,0-0.4,0-0.6,0c0-0.2,0-0.4,0-0.6c0-0.2,0-0.4,0-0.6c-0.2,0-0.4,0-0.6,0
		c0,0.2,0,0.4,0,0.6c0,0.2,0,0.4,0,0.6c-0.2,0-0.4,0-0.6,0v0c0,0.2,0,0.4,0,0.6C4.4,4,4.2,4,4,4C3.7,4,3.3,4,2.9,4
		C2.7,4,2.5,4,2.3,4c0,0.2,0,0.4,0,0.6c0.2,0,0.4,0,0.6,0c0.2,0,0.4,0,0.6,0c0.2,0,0.4,0,0.6,0c0,0.2,0,0.4,0,0.6c0.2,0,0.4,0,0.6,0
		c0,0.1,0,0.1,0,0.2c0,0.1,0,0.3,0,0.4c-0.2,0-0.4,0-0.6,0c0,0.2,0,0.4,0,0.6c-0.2,0-0.4,0-0.6,0c0,0.2,0,0.4,0,0.6
		c0,0.2,0,0.4,0,0.6c0.2,0,0.4,0,0.6,0c0-0.2,0-0.4,0-0.6c0.2,0,0.4,0,0.6,0c0-0.2,0-0.4,0-0.6c0.2,0,0.4,0,0.6,0c0.2,0,0.4,0,0.6,0
		c0.2,0,0.4,0,0.6,0c0,0.2,0,0.4,0,0.6l0,0c0.2,0,0.4,0,0.6,0c0,0.2,0,0.4,0,0.6c0.2,0,0.4,0,0.6,0c0-0.2,0-0.4,0-0.6
		C7.6,6.9,7.6,6.7,7.6,6.5z M6.4,5.2c-0.2,0-0.4,0-0.6,0c0,0.2,0,0.4,0,0.6c-0.2,0-0.4,0-0.6,0c0-0.2,0-0.4,0-0.6
		c-0.2,0-0.4,0-0.6,0c0-0.2,0-0.4,0-0.6c0.2,0,0.4,0,0.6,0c0-0.2,0-0.4,0-0.6c0.2,0,0.4,0,0.6,0c0,0.2,0,0.4,0,0.6
		c0.2,0,0.4,0,0.6,0C6.4,4.8,6.4,5,6.4,5.2z"/>
	<path class="st3" d="M8.8,2.1c-0.2,0-0.4,0-0.6,0c0,0.2,0,0.4,0,0.6c0.2,0,0.4,0,0.6,0c0,0.2,0,0.4,0,0.6c0.2,0,0.4,0,0.6,0
		c0-0.2,0-0.4,0-0.6c-0.2,0-0.4,0-0.6,0C8.8,2.5,8.8,2.3,8.8,2.1z"/>
	<path class="st3" d="M2.3,4c0-0.4,0-0.8,0-1.2c-0.2,0-0.4,0-0.6,0c0,0.2,0,0.4,0,0.6c0,0.2,0,0.4,0,0.6C1.9,4,2.1,4,2.3,4z"/>
	<path class="st3" d="M1.7,5.8c0-0.4,0-0.8,0-1.2c-0.2,0-0.4,0-0.6,0c0,0.4,0,0.8,0,1.3c0,0,0.1,0,0.2,0C1.4,5.8,1.5,5.8,1.7,5.8z"
		/>
	<path class="st3" d="M9.4,5.8c0.2,0,0.4,0,0.6,0c0-0.4,0-0.8,0-1.2c-0.2,0-0.4,0-0.6,0C9.4,5,9.4,5.4,9.4,5.8z"/>
	<path class="st4" d="M2.9,2.7c0-0.2,0-0.4,0-0.6c-0.2,0-0.4,0-0.6,0c0,0.2,0,0.4,0,0.6C2.5,2.7,2.7,2.7,2.9,2.7z"/>
	<path class="st5" d="M4,3.3c0.2,0,0.4,0,0.6,0v0c0-0.2,0-0.4,0-0.6c0.2,0,0.4,0,0.6,0c0-0.2,0-0.4,0-0.6c-0.4,0-0.8,0-1.2,0
		c0,0.2,0,0.4,0,0.6c-0.4,0-0.8,0-1.2,0c0,0.4,0,0.8,0,1.3C3.3,4,3.7,4,4,4C4,3.8,4,3.5,4,3.3z"/>
	<path class="st5" d="M6.4,2.7c0,0.2,0,0.4,0,0.6c0.2,0,0.4,0,0.6,0C7,3.6,7,3.8,7,4c0.4,0,0.8,0,1.2,0c0-0.4,0-0.8,0-1.3
		c-0.4,0-0.8,0-1.2,0c0-0.2,0-0.4,0-0.6c-0.4,0-0.8,0-1.2,0c0,0.2,0,0.4,0,0.6C6,2.7,6.2,2.7,6.4,2.7z"/>
	<path class="st5" d="M3.5,6.5c0-0.4,0-0.8,0-1.2c-0.2,0-0.4,0-0.6,0c0-0.2,0-0.4,0-0.6c-0.2,0-0.4,0-0.6,0c0,0.6,0,1.2,0,1.9
		c0.2,0,0.4,0,0.6,0C3.1,6.5,3.3,6.5,3.5,6.5z"/>
	<path class="st5" d="M8.2,5.2c-0.2,0-0.4,0-0.6,0c0,0.3,0,0.7,0,1c0,0.1,0,0.1,0,0.2c0.2,0,0.4,0,0.6,0c0.2,0,0.4,0,0.6,0
		c0-0.6,0-1.2,0-1.9c-0.2,0-0.4,0-0.6,0C8.2,4.8,8.2,5,8.2,5.2z"/>
	<path class="st5" d="M6.4,7.1L6.4,7.1c-0.2,0-0.4,0-0.6,0c-0.2,0-0.4,0-0.6,0c-0.2,0-0.4,0-0.6,0c0,0.2,0,0.4,0,0.6
		c-0.2,0-0.4,0-0.6,0c0,0.2,0,0.4,0,0.6c1,0,2,0,2.9,0c0-0.2,0-0.4,0-0.6c-0.2,0-0.4,0-0.6,0C6.4,7.5,6.4,7.3,6.4,7.1z"/>
	<path class="st6" d="M4.6,3.3c0.2,0,0.4,0,0.6,0c0-0.2,0-0.4,0-0.6c-0.2,0-0.4,0-0.6,0C4.6,2.9,4.6,3.1,4.6,3.3z"/>
	<path class="st6" d="M5.8,2.7c0,0.2,0,0.4,0,0.6c0.2,0,0.4,0,0.6,0c0-0.2,0-0.4,0-0.6C6.2,2.7,6,2.7,5.8,2.7z"/>
	<path class="st6" d="M8.8,3.3c0,0.2,0,0.4,0,0.6C9,4,9.2,4,9.4,4c0-0.2,0-0.4,0-0.6C9.2,3.3,9,3.3,8.8,3.3z"/>
	<path class="st6" d="M1.7,4.6c0-0.2,0-0.4,0-0.6C1.5,4,1.3,4,1.1,4c0,0.2,0,0.4,0,0.6C1.3,4.6,1.5,4.6,1.7,4.6z"/>
	<path class="st6" d="M9.4,4.6c0.2,0,0.4,0,0.6,0c0-0.2,0-0.4,0-0.6C9.7,4,9.5,4,9.4,4C9.4,4.2,9.3,4.4,9.4,4.6z"/>
	<path class="st6" d="M4,5.2c0,0.2,0,0.4,0,0.6c0.2,0,0.4,0,0.6,0c0-0.1,0-0.3,0-0.4c0-0.1,0-0.1,0-0.2C4.4,5.2,4.2,5.2,4,5.2
		c0-0.2,0-0.4,0-0.6c-0.2,0-0.4,0-0.6,0c0,0.2,0,0.4,0,0.6C3.7,5.2,3.9,5.2,4,5.2z"/>
	<path class="st6" d="M7,4.6C7,4.8,7,5,7,5.2c-0.2,0-0.4,0-0.6,0c0,0.2,0,0.4,0,0.6c0.2,0,0.4,0,0.6,0c0-0.2,0-0.4,0-0.6
		c0.2,0,0.4,0,0.6,0c0-0.2,0-0.4,0-0.6C7.4,4.6,7.2,4.6,7,4.6z"/>
	<path class="st6" d="M2.3,6.5c-0.2,0-0.4,0-0.6,0c0-0.2,0-0.4,0-0.6c-0.1,0-0.3,0-0.4,0c-0.1,0-0.1,0-0.2,0c0,0.2,0,0.4,0,0.6
		c0.2,0,0.4,0,0.6,0c0,0.2,0,0.4,0,0.6c0,0.2,0,0.4,0,0.6c0.2,0,0.4,0,0.6,0C2.3,7.3,2.3,6.9,2.3,6.5z"/>
	<path class="st6" d="M9.4,5.8c0,0.2,0,0.4,0,0.6c0.2,0,0.4,0,0.6,0c0-0.2,0-0.4,0-0.6C9.7,5.8,9.5,5.8,9.4,5.8z"/>
	<path class="st6" d="M5.2,6.5c-0.2,0-0.4,0-0.6,0c0,0.2,0,0.4,0,0.6c0.2,0,0.4,0,0.6,0C5.2,6.9,5.2,6.7,5.2,6.5z"/>
	<path class="st6" d="M6.4,7.1c0-0.2,0-0.4,0-0.6c-0.2,0-0.4,0-0.6,0c0,0.2,0,0.4,0,0.6C6,7.1,6.2,7.1,6.4,7.1z"/>
	<path class="st6" d="M8.8,6.5c0,0.4,0,0.8,0,1.2c0.2,0,0.4,0,0.6,0c0-0.2,0-0.4,0-0.6c0-0.2,0-0.4,0-0.6C9.2,6.5,9,6.5,8.8,6.5z"/>
	<path class="st6" d="M2.9,7.1c0,0.2,0,0.4,0,0.6c0.2,0,0.4,0,0.6,0c0-0.2,0-0.4,0-0.6C3.3,7.1,3.1,7.1,2.9,7.1z"/>
	<path class="st6" d="M7.6,7.7c0.2,0,0.4,0,0.6,0c0-0.2,0-0.4,0-0.6c-0.2,0-0.4,0-0.6,0C7.6,7.3,7.6,7.5,7.6,7.7z"/>
	<path class="st6" d="M2.3,8.3c0.2,0,0.4,0,0.6,0c0-0.2,0-0.4,0-0.6c-0.2,0-0.4,0-0.6,0C2.3,7.9,2.3,8.1,2.3,8.3z"/>
	<path class="st6" d="M8.2,7.7c0,0.2,0,0.4,0,0.6c0.2,0,0.4,0,0.6,0c0-0.2,0-0.4,0-0.6C8.6,7.7,8.4,7.7,8.2,7.7z"/>
	<path class="st6" d="M4,8.3c-0.4,0-0.8,0-1.2,0c0,0.2,0,0.4,0,0.6c0.2,0,0.4,0,0.6,0c0.2,0,0.4,0,0.6,0C4,8.7,4,8.5,4,8.3z"/>
	<path class="st6" d="M7,8.3c0,0.2,0,0.4,0,0.6c0.2,0,0.4,0,0.6,0c0.2,0,0.4,0,0.6,0c0-0.2,0-0.4,0-0.6C7.8,8.3,7.4,8.3,7,8.3z"/>
	<path class="st6" d="M4,9c0,0.2,0,0.4,0,0.6c1,0,2,0,2.9,0C7,9.4,7,9.2,7,9C6,8.9,5,8.9,4,9z"/>
	<path class="st7" d="M4,3.3C4,3.5,4,3.8,4,4c0.2,0,0.4,0,0.6,0c0-0.2,0-0.4,0-0.6C4.4,3.3,4.2,3.3,4,3.3z"/>
	<path class="st7" d="M6.4,3.3c0,0.2,0,0.4,0,0.6C6.6,4,6.8,4,7,4c0-0.2,0-0.4,0-0.6C6.8,3.3,6.6,3.3,6.4,3.3z"/>
	<path class="st7" d="M5.8,4.6c0-0.2,0-0.4,0-0.6C5.6,4,5.4,4,5.2,4c0,0.2,0,0.4,0,0.6c-0.2,0-0.4,0-0.6,0c0,0.2,0,0.4,0,0.6
		c0.2,0,0.4,0,0.6,0c0,0.2,0,0.4,0,0.6c0.2,0,0.4,0,0.6,0c0-0.2,0-0.4,0-0.6c0.2,0,0.4,0,0.6,0c0-0.2,0-0.4,0-0.6
		C6.2,4.6,6,4.6,5.8,4.6z"/>
	<path class="st7" d="M3.5,6.5c0.2,0,0.4,0,0.6,0c0-0.2,0-0.4,0-0.6c0-0.2,0-0.4,0-0.6c-0.2,0-0.4,0-0.6,0c0-0.2,0-0.4,0-0.6
		c-0.2,0-0.4,0-0.6,0c0,0.2,0,0.4,0,0.6c0.2,0,0.4,0,0.6,0C3.5,5.6,3.5,6,3.5,6.5c-0.2,0-0.4,0-0.6,0c0,0.2,0,0.4,0,0.6
		c0.2,0,0.4,0,0.6,0C3.5,6.9,3.5,6.7,3.5,6.5z"/>
	<path class="st7" d="M7.6,6.5c0-0.1,0-0.1,0-0.2c0-0.3,0-0.7,0-1c0.2,0,0.4,0,0.6,0c0-0.2,0-0.4,0-0.6c-0.2,0-0.4,0-0.6,0
		c0,0.2,0,0.4,0,0.6c-0.2,0-0.4,0-0.6,0c0,0.2,0,0.4,0,0.6C7,6,7,6.3,7,6.5C7.2,6.5,7.4,6.5,7.6,6.5c0,0.2,0,0.4,0,0.6
		c0.2,0,0.4,0,0.6,0c0-0.2,0-0.4,0-0.6C8,6.5,7.8,6.5,7.6,6.5z"/>
	<path class="st7" d="M5.8,7.1c0-0.2,0-0.4,0-0.6c-0.2,0-0.4,0-0.6,0c0,0.2,0,0.4,0,0.6C5.4,7.1,5.6,7.1,5.8,7.1z"/>
	<path class="st7" d="M4.6,7.1c-0.2,0-0.4,0-0.6,0c0,0.2,0,0.4,0,0.6c0.2,0,0.4,0,0.6,0C4.6,7.5,4.6,7.3,4.6,7.1z"/>
	<path class="st7" d="M7,7.1c-0.2,0-0.4,0-0.6,0c0,0.2,0,0.4,0,0.6c0.2,0,0.4,0,0.6,0C7,7.5,7,7.3,7,7.1z"/>
</g>
</svg>
