<?xml version="1.0" encoding="utf-8"?>
<!-- Generator: Adobe Illustrator 21.0.0, SVG Export Plug-In . SVG Version: 6.00 Build 0)  -->
<svg version="1.1" id="Layer_1" xmlns="http://www.w3.org/2000/svg" xmlns:xlink="http://www.w3.org/1999/xlink" x="0px" y="0px"
	 viewBox="0 0 11 10.2" style="enable-background:new 0 0 11 10.2;" xml:space="preserve">
<style type="text/css">
	.st0{fill:#9E461B;}
	.st1{fill:#FFFFFF;}
	.st2{fill:#BD5F28;}
	.st3{fill:#F8C51D;}
	.st4{fill:#FBE638;}
	.st5{fill:#243E96;}
	.st6{fill:#F8A31A;}
	.st7{fill:#1B75BA;}
</style>
<title>icon-bitcoin-small</title>
<g>
	<path class="st0" d="M9.9,3.2c0-0.4,0-0.8,0-1.3C9.7,2,9.5,2,9.4,2c0-0.2,0-0.4,0-0.6c-0.2,0-0.4,0-0.6,0c0-0.2,0-0.4,0-0.6
		c-0.4,0-0.8,0-1.2,0c0-0.2,0-0.4,0-0.6H3.5c0,0.2,0,0.4,0,0.6c-0.4,0-0.8,0-1.2,0c0,0.2,0,0.4,0,0.6c-0.2,0-0.4,0-0.6,0
		c0,0.2,0,0.4,0,0.6C1.5,2,1.3,2,1.1,2c0,0.4,0,0.8,0,1.3c-0.2,0-0.4,0-0.6,0V7c0.2,0,0.4,0,0.6,0c0,0.4,0,0.8,0,1.2
		c0.2,0,0.4,0,0.6,0c0,0.2,0,0.4,0,0.6c0.2,0,0.4,0,0.6,0c0,0.2,0,0.4,0,0.6c0.4,0,0.8,0,1.2,0c0,0.2,0,0.4,0,0.6h4.1
		c0-0.2,0-0.4,0-0.6c0.4,0,0.8,0,1.2,0c0-0.2,0-0.4,0-0.6c0.2,0,0.4,0,0.6,0c0-0.2,0-0.4,0-0.6c0.2,0,0.4,0,0.6,0c0-0.4,0-0.8,0-1.2
		c0.2,0,0.4,0,0.6,0V3.2C10.3,3.2,10.1,3.2,9.9,3.2z M9.9,3.8c0,0.2,0,0.4,0,0.6c0,0.4,0,0.8,0,1.2c0,0.2,0,0.4,0,0.6
		c0,0.2,0,0.4,0,0.6C9.7,7,9.5,7,9.4,7c0,0.2,0,0.4,0,0.6c0,0.2,0,0.4,0,0.6c0,0,0,0-0.1,0c-0.2,0-0.3,0-0.5,0c0,0.2,0,0.4,0,0.6
		c-0.2,0-0.4,0-0.6,0c-0.2,0-0.4,0-0.6,0c0,0.2,0,0.4,0,0.6c-0.2,0-0.4,0-0.6,0c-1,0-2,0-2.9,0c-0.2,0-0.4,0-0.6,0
		c0-0.2,0-0.4,0-0.6c-0.2,0-0.4,0-0.6,0c-0.1,0-0.2,0-0.3,0c-0.1,0-0.2,0-0.3,0c0,0,0-0.1,0-0.1c0-0.2,0-0.4,0-0.5
		c-0.2,0-0.4,0-0.6,0c0-0.2,0-0.4,0-0.6c0-0.2,0-0.4,0-0.6C1.5,7,1.3,7,1.1,7c0,0,0,0,0-0.1c0-0.2,0-0.4,0-0.6c0-0.2,0-0.4,0-0.6
		c0-0.4,0-0.8,0-1.3c0-0.2,0-0.4,0-0.6c0-0.2,0-0.4,0-0.6c0,0,0-0.1,0-0.1c0.2,0,0.4,0,0.6,0c0-0.2,0-0.4,0-0.6c0-0.2,0-0.4,0-0.6
		c0.2,0,0.4,0,0.6,0c0-0.2,0-0.4,0-0.6c0,0,0,0,0.1,0c0.2,0,0.3,0,0.5,0c0.2,0,0.4,0,0.6,0c0-0.2,0-0.4,0-0.6c1.2,0,2.4,0,3.5,0
		c0.2,0,0.4,0,0.6,0c0,0.2,0,0.4,0,0.6c0.2,0,0.4,0,0.6,0c0.1,0,0.3,0,0.4,0c0.1,0,0.1,0,0.2,0c0,0.2,0,0.4,0,0.6C9,2,9.1,2,9.3,2
		c0,0,0,0,0,0.1c0,0.2,0,0.4,0,0.6c0,0.2,0,0.4,0,0.6c0.2,0,0.4,0,0.6,0C10,3.4,9.9,3.6,9.9,3.8z"/>
	<path class="st1" d="M4,2c0-0.2,0-0.4,0-0.6c1,0,2,0,2.9,0c0-0.2,0-0.4,0-0.6c-1.2,0-2.4,0-3.5,0c0,0.2,0,0.4,0,0.6
		c-0.2,0-0.4,0-0.6,0c0,0.2,0,0.4,0,0.6C3.3,2,3.7,2,4,2z"/>
	<path class="st1" d="M7,1.3C7,1.5,7,1.8,7,2c0.2,0,0.4,0,0.6,0c0-0.2,0-0.4,0-0.6C7.4,1.3,7.2,1.3,7,1.3z"/>
	<path class="st2" d="M9.9,3.2c-0.2,0-0.4,0-0.6,0c0,0.2,0,0.4,0,0.6c-0.2,0-0.4,0-0.6,0c0-0.2,0-0.4,0-0.6c0-0.2,0-0.4,0-0.6
		c-0.2,0-0.4,0-0.6,0c0-0.2,0-0.4,0-0.6c0.2,0,0.4,0,0.6,0c0,0.2,0,0.4,0,0.6c0.2,0,0.4,0,0.6,0c0-0.2,0-0.4,0-0.6c0,0,0-0.1,0-0.1
		C9.1,2,9,2,8.8,2c0-0.2,0-0.4,0-0.6c-0.1,0-0.1,0-0.2,0c-0.1,0-0.3,0-0.4,0c0,0.2,0,0.4,0,0.6C8,2,7.8,2,7.6,2C7.4,2,7.2,2,7,2
		c0-0.2,0-0.4,0-0.6c0.2,0,0.4,0,0.6,0c0-0.2,0-0.4,0-0.6c-0.2,0-0.4,0-0.6,0c0,0.2,0,0.4,0,0.6c-1,0-2,0-2.9,0C4,1.5,4,1.8,4,2
		C3.7,2,3.3,2,2.9,2c0-0.2,0-0.4,0-0.6c-0.2,0-0.3,0-0.5,0c0,0-0.1,0-0.1,0c0,0.2,0,0.4,0,0.6c-0.2,0-0.4,0-0.6,0c0,0.2,0,0.4,0,0.6
		c0.2,0,0.4,0,0.6,0c0,0.4,0,0.8,0,1.2c-0.2,0-0.4,0-0.6,0c0-0.2,0-0.4,0-0.6c-0.2,0-0.4,0-0.6,0c0,0,0,0,0,0.1c0,0.2,0,0.4,0,0.6
		c0.2,0,0.4,0,0.6,0c0,0.2,0,0.4,0,0.6c0,0.4,0,0.8,0,1.2c0,0.2,0,0.4,0,0.6c0.2,0,0.4,0,0.6,0c0,0.4,0,0.8,0,1.2
		c-0.2,0-0.4,0-0.6,0c0,0.2,0,0.4,0,0.6c0.2,0,0.4,0,0.6,0c0,0.2,0,0.4,0,0.5c0,0,0,0.1,0,0.1c0.1,0,0.2,0,0.3,0c0.1,0,0.2,0,0.3,0
		c0-0.2,0-0.4,0-0.6c0.4,0,0.8,0,1.2,0c0,0.2,0,0.4,0,0.6c-0.2,0-0.4,0-0.6,0c0,0.2,0,0.4,0,0.6c0.2,0,0.4,0,0.6,0C4,9.2,4,9,4,8.8
		c1,0,2,0,2.9,0C7,9,7,9.2,7,9.5c0.2,0,0.4,0,0.6,0c0-0.2,0-0.4,0-0.6c-0.2,0-0.4,0-0.6,0c0-0.2,0-0.4,0-0.6c0.4,0,0.8,0,1.2,0
		c0,0.2,0,0.4,0,0.6c0.2,0,0.4,0,0.6,0c0-0.2,0-0.4,0-0.6c0.2,0,0.3,0,0.5,0c0,0,0.1,0,0.1,0c0-0.2,0-0.4,0-0.6c-0.2,0-0.4,0-0.6,0
		c0-0.4,0-0.8,0-1.2c0.2,0,0.4,0,0.6,0c0,0.2,0,0.4,0,0.6c0.2,0,0.4,0,0.6,0c0-0.2,0-0.4,0-0.6c-0.2,0-0.4,0-0.6,0
		c0-0.2,0-0.4,0-0.6c0-0.4,0-0.8,0-1.2c0-0.2,0-0.4,0-0.6c0.2,0,0.4,0,0.6,0C9.9,3.6,10,3.4,9.9,3.2z M2.9,2c0,0.2,0,0.4,0,0.6
		c-0.2,0-0.4,0-0.6,0c0-0.2,0-0.4,0-0.6C2.5,2,2.7,2,2.9,2z M2.9,8.2c-0.2,0-0.4,0-0.6,0c0-0.2,0-0.4,0-0.6c0.2,0,0.4,0,0.6,0
		C2.9,7.8,2.9,8,2.9,8.2z M8.2,7.6c-0.2,0-0.4,0-0.6,0c-0.2,0-0.4,0-0.6,0C7,7.8,7,8,7,8.2c-1,0-2,0-2.9,0C4,8,4,7.8,4,7.6
		c-0.2,0-0.4,0-0.6,0c-0.2,0-0.4,0-0.6,0c0-0.2,0-0.4,0-0.6c0-0.2,0-0.4,0-0.6c-0.2,0-0.4,0-0.6,0c0-0.6,0-1.2,0-1.9
		c0-0.2,0-0.4,0-0.6c0.2,0,0.4,0,0.6,0c0-0.4,0-0.8,0-1.3c0.4,0,0.8,0,1.2,0C4,2.4,4,2.2,4,2c0.4,0,0.8,0,1.2,0c0.2,0,0.4,0,0.6,0
		C6.2,2,6.6,2,7,2c0,0.2,0,0.4,0,0.6c0.4,0,0.8,0,1.2,0c0,0.4,0,0.8,0,1.3c0.2,0,0.4,0,0.6,0c0,0.2,0,0.4,0,0.6c0,0.6,0,1.2,0,1.9
		c-0.2,0-0.4,0-0.6,0c0,0.2,0,0.4,0,0.6C8.2,7.2,8.2,7.4,8.2,7.6z M8.8,8.2c-0.2,0-0.4,0-0.6,0c0-0.2,0-0.4,0-0.6c0.2,0,0.4,0,0.6,0
		C8.8,7.8,8.8,8,8.8,8.2z"/>
	<path class="st2" d="M1.1,6.3c0,0.2,0,0.4,0,0.6c0,0,0,0.1,0,0.1c0.2,0,0.4,0,0.6,0c0-0.2,0-0.4,0-0.6C1.5,6.3,1.3,6.4,1.1,6.3z"/>
	<path class="st3" d="M8.2,2c0-0.2,0-0.4,0-0.6c-0.2,0-0.4,0-0.6,0c0,0.2,0,0.4,0,0.6C7.8,2,8,2,8.2,2z"/>
	<path class="st3" d="M7.6,6.3c-0.2,0-0.4,0-0.6,0c0-0.2,0-0.4,0-0.6c-0.2,0-0.4,0-0.6,0c0-0.2,0-0.4,0-0.6c0.2,0,0.4,0,0.6,0
		c0-0.2,0-0.4,0-0.6c0.2,0,0.4,0,0.6,0c0.2,0,0.4,0,0.6,0c0.2,0,0.4,0,0.6,0c0-0.2,0-0.4,0-0.6c-0.2,0-0.4,0-0.6,0
		c-0.4,0-0.8,0-1.2,0c-0.2,0-0.4,0-0.6,0c0-0.2,0-0.4,0-0.6c-0.2,0-0.4,0-0.6,0c0-0.2,0-0.4,0-0.6c0-0.2,0-0.4,0-0.6
		C5.6,2,5.4,2,5.2,2c0,0.2,0,0.4,0,0.6c0,0.2,0,0.4,0,0.6c-0.2,0-0.4,0-0.6,0v0c0,0.2,0,0.4,0,0.6c-0.2,0-0.4,0-0.6,0
		c-0.4,0-0.8,0-1.2,0c-0.2,0-0.4,0-0.6,0c0,0.2,0,0.4,0,0.6c0.2,0,0.4,0,0.6,0c0.2,0,0.4,0,0.6,0c0.2,0,0.4,0,0.6,0
		c0,0.2,0,0.4,0,0.6c0.2,0,0.4,0,0.6,0c0,0.1,0,0.1,0,0.2c0,0.1,0,0.3,0,0.4c-0.2,0-0.4,0-0.6,0c0,0.2,0,0.4,0,0.6
		c-0.2,0-0.4,0-0.6,0c0,0.2,0,0.4,0,0.6c0,0.2,0,0.4,0,0.6c0.2,0,0.4,0,0.6,0C4,7.4,4,7.2,4,7c0.2,0,0.4,0,0.6,0c0-0.2,0-0.4,0-0.6
		c0.2,0,0.4,0,0.6,0c0.2,0,0.4,0,0.6,0c0.2,0,0.4,0,0.6,0c0,0.2,0,0.4,0,0.6l0,0C6.6,7,6.8,7,7,7c0,0.2,0,0.4,0,0.6
		c0.2,0,0.4,0,0.6,0c0-0.2,0-0.4,0-0.6C7.6,6.7,7.6,6.5,7.6,6.3z M6.4,5.1c-0.2,0-0.4,0-0.6,0c0,0.2,0,0.4,0,0.6c-0.2,0-0.4,0-0.6,0
		c0-0.2,0-0.4,0-0.6c-0.2,0-0.4,0-0.6,0c0-0.2,0-0.4,0-0.6c0.2,0,0.4,0,0.6,0c0-0.2,0-0.4,0-0.6c0.2,0,0.4,0,0.6,0
		c0,0.2,0,0.4,0,0.6c0.2,0,0.4,0,0.6,0C6.4,4.7,6.4,4.9,6.4,5.1z"/>
	<path class="st3" d="M8.8,2C8.6,2,8.4,2,8.2,2c0,0.2,0,0.4,0,0.6c0.2,0,0.4,0,0.6,0c0,0.2,0,0.4,0,0.6c0.2,0,0.4,0,0.6,0
		c0-0.2,0-0.4,0-0.6c-0.2,0-0.4,0-0.6,0C8.8,2.4,8.8,2.2,8.8,2z"/>
	<path class="st3" d="M2.3,3.8c0-0.4,0-0.8,0-1.2c-0.2,0-0.4,0-0.6,0c0,0.2,0,0.4,0,0.6c0,0.2,0,0.4,0,0.6C1.9,3.8,2.1,3.8,2.3,3.8z
		"/>
	<path class="st3" d="M1.7,5.7c0-0.4,0-0.8,0-1.2c-0.2,0-0.4,0-0.6,0c0,0.4,0,0.8,0,1.3c0,0,0.1,0,0.2,0C1.4,5.7,1.5,5.7,1.7,5.7z"
		/>
	<path class="st3" d="M9.4,5.7c0.2,0,0.4,0,0.6,0c0-0.4,0-0.8,0-1.2c-0.2,0-0.4,0-0.6,0C9.4,4.9,9.4,5.3,9.4,5.7z"/>
	<path class="st4" d="M2.9,2.6c0-0.2,0-0.4,0-0.6C2.7,2,2.5,2,2.3,2c0,0.2,0,0.4,0,0.6C2.5,2.6,2.7,2.6,2.9,2.6z"/>
	<path class="st5" d="M4,3.2c0.2,0,0.4,0,0.6,0v0c0-0.2,0-0.4,0-0.6c0.2,0,0.4,0,0.6,0c0-0.2,0-0.4,0-0.6C4.8,2,4.4,2,4,2
		c0,0.2,0,0.4,0,0.6c-0.4,0-0.8,0-1.2,0c0,0.4,0,0.8,0,1.3c0.4,0,0.8,0,1.2,0C4,3.6,4,3.4,4,3.2z"/>
	<path class="st5" d="M6.4,2.6c0,0.2,0,0.4,0,0.6c0.2,0,0.4,0,0.6,0c0,0.2,0,0.4,0,0.6c0.4,0,0.8,0,1.2,0c0-0.4,0-0.8,0-1.3
		c-0.4,0-0.8,0-1.2,0C7,2.4,7,2.2,7,2C6.6,2,6.2,2,5.8,2c0,0.2,0,0.4,0,0.6C6,2.6,6.2,2.6,6.4,2.6z"/>
	<path class="st5" d="M3.5,6.3c0-0.4,0-0.8,0-1.2c-0.2,0-0.4,0-0.6,0c0-0.2,0-0.4,0-0.6c-0.2,0-0.4,0-0.6,0c0,0.6,0,1.2,0,1.9
		c0.2,0,0.4,0,0.6,0C3.1,6.3,3.3,6.3,3.5,6.3z"/>
	<path class="st5" d="M8.2,5.1c-0.2,0-0.4,0-0.6,0c0,0.3,0,0.7,0,1c0,0.1,0,0.1,0,0.2c0.2,0,0.4,0,0.6,0c0.2,0,0.4,0,0.6,0
		c0-0.6,0-1.2,0-1.9c-0.2,0-0.4,0-0.6,0C8.2,4.7,8.2,4.9,8.2,5.1z"/>
	<path class="st5" d="M6.4,7L6.4,7C6.2,7,6,7,5.8,7C5.6,7,5.4,7,5.2,7C5,7,4.8,7,4.6,7c0,0.2,0,0.4,0,0.6c-0.2,0-0.4,0-0.6,0
		C4,7.8,4,8,4,8.2c1,0,2,0,2.9,0C7,8,7,7.8,7,7.6c-0.2,0-0.4,0-0.6,0C6.4,7.4,6.4,7.2,6.4,7z"/>
	<path class="st6" d="M4.6,3.2c0.2,0,0.4,0,0.6,0c0-0.2,0-0.4,0-0.6c-0.2,0-0.4,0-0.6,0C4.6,2.8,4.6,3,4.6,3.2z"/>
	<path class="st6" d="M5.8,2.6c0,0.2,0,0.4,0,0.6c0.2,0,0.4,0,0.6,0c0-0.2,0-0.4,0-0.6C6.2,2.6,6,2.6,5.8,2.6z"/>
	<path class="st6" d="M8.8,3.2c0,0.2,0,0.4,0,0.6c0.2,0,0.4,0,0.6,0c0-0.2,0-0.4,0-0.6C9.2,3.2,9,3.2,8.8,3.2z"/>
	<path class="st6" d="M1.7,4.5c0-0.2,0-0.4,0-0.6c-0.2,0-0.4,0-0.6,0c0,0.2,0,0.4,0,0.6C1.3,4.5,1.5,4.5,1.7,4.5z"/>
	<path class="st6" d="M9.4,4.5c0.2,0,0.4,0,0.6,0c0-0.2,0-0.4,0-0.6c-0.2,0-0.4,0-0.6,0C9.4,4.1,9.3,4.3,9.4,4.5z"/>
	<path class="st6" d="M4,5.1c0,0.2,0,0.4,0,0.6c0.2,0,0.4,0,0.6,0c0-0.1,0-0.3,0-0.4c0-0.1,0-0.1,0-0.2C4.4,5.1,4.2,5.1,4,5.1
		c0-0.2,0-0.4,0-0.6c-0.2,0-0.4,0-0.6,0c0,0.2,0,0.4,0,0.6C3.7,5.1,3.9,5.1,4,5.1z"/>
	<path class="st6" d="M7,4.5c0,0.2,0,0.4,0,0.6c-0.2,0-0.4,0-0.6,0c0,0.2,0,0.4,0,0.6c0.2,0,0.4,0,0.6,0c0-0.2,0-0.4,0-0.6
		c0.2,0,0.4,0,0.6,0c0-0.2,0-0.4,0-0.6C7.4,4.5,7.2,4.5,7,4.5z"/>
	<path class="st6" d="M2.3,6.3c-0.2,0-0.4,0-0.6,0c0-0.2,0-0.4,0-0.6c-0.1,0-0.3,0-0.4,0c-0.1,0-0.1,0-0.2,0c0,0.2,0,0.4,0,0.6
		c0.2,0,0.4,0,0.6,0c0,0.2,0,0.4,0,0.6c0,0.2,0,0.4,0,0.6c0.2,0,0.4,0,0.6,0C2.3,7.2,2.3,6.8,2.3,6.3z"/>
	<path class="st6" d="M9.4,5.7c0,0.2,0,0.4,0,0.6c0.2,0,0.4,0,0.6,0c0-0.2,0-0.4,0-0.6C9.7,5.7,9.5,5.7,9.4,5.7z"/>
	<path class="st6" d="M5.2,6.4c-0.2,0-0.4,0-0.6,0c0,0.2,0,0.4,0,0.6C4.8,7,5,7,5.2,7C5.2,6.8,5.2,6.6,5.2,6.4z"/>
	<path class="st6" d="M6.4,7c0-0.2,0-0.4,0-0.6c-0.2,0-0.4,0-0.6,0c0,0.2,0,0.4,0,0.6C6,7,6.2,7,6.4,7z"/>
	<path class="st6" d="M8.8,6.3c0,0.4,0,0.8,0,1.2c0.2,0,0.4,0,0.6,0c0-0.2,0-0.4,0-0.6c0-0.2,0-0.4,0-0.6C9.2,6.3,9,6.3,8.8,6.3z"/>
	<path class="st6" d="M2.9,7c0,0.2,0,0.4,0,0.6c0.2,0,0.4,0,0.6,0c0-0.2,0-0.4,0-0.6C3.3,7,3.1,7,2.9,7z"/>
	<path class="st6" d="M7.6,7.6c0.2,0,0.4,0,0.6,0c0-0.2,0-0.4,0-0.6C8,7,7.8,7,7.6,7C7.6,7.2,7.6,7.4,7.6,7.6z"/>
	<path class="st6" d="M2.3,8.2c0.2,0,0.4,0,0.6,0c0-0.2,0-0.4,0-0.6c-0.2,0-0.4,0-0.6,0C2.3,7.8,2.3,8,2.3,8.2z"/>
	<path class="st6" d="M8.2,7.6c0,0.2,0,0.4,0,0.6c0.2,0,0.4,0,0.6,0c0-0.2,0-0.4,0-0.6C8.6,7.6,8.4,7.6,8.2,7.6z"/>
	<path class="st6" d="M4,8.2c-0.4,0-0.8,0-1.2,0c0,0.2,0,0.4,0,0.6c0.2,0,0.4,0,0.6,0c0.2,0,0.4,0,0.6,0C4,8.6,4,8.4,4,8.2z"/>
	<path class="st6" d="M7,8.2c0,0.2,0,0.4,0,0.6c0.2,0,0.4,0,0.6,0c0.2,0,0.4,0,0.6,0c0-0.2,0-0.4,0-0.6C7.8,8.2,7.4,8.2,7,8.2z"/>
	<path class="st6" d="M4,8.8C4,9,4,9.2,4,9.5c1,0,2,0,2.9,0C7,9.2,7,9,7,8.8C6,8.8,5,8.8,4,8.8z"/>
	<path class="st7" d="M4,3.2c0,0.2,0,0.4,0,0.6c0.2,0,0.4,0,0.6,0c0-0.2,0-0.4,0-0.6C4.4,3.2,4.2,3.2,4,3.2z"/>
	<path class="st7" d="M6.4,3.2c0,0.2,0,0.4,0,0.6c0.2,0,0.4,0,0.6,0c0-0.2,0-0.4,0-0.6C6.8,3.2,6.6,3.2,6.4,3.2z"/>
	<path class="st7" d="M5.8,4.5c0-0.2,0-0.4,0-0.6c-0.2,0-0.4,0-0.6,0c0,0.2,0,0.4,0,0.6c-0.2,0-0.4,0-0.6,0c0,0.2,0,0.4,0,0.6
		c0.2,0,0.4,0,0.6,0c0,0.2,0,0.4,0,0.6c0.2,0,0.4,0,0.6,0c0-0.2,0-0.4,0-0.6c0.2,0,0.4,0,0.6,0c0-0.2,0-0.4,0-0.6
		C6.2,4.5,6,4.5,5.8,4.5z"/>
	<path class="st7" d="M3.5,6.3c0.2,0,0.4,0,0.6,0c0-0.2,0-0.4,0-0.6c0-0.2,0-0.4,0-0.6c-0.2,0-0.4,0-0.6,0c0-0.2,0-0.4,0-0.6
		c-0.2,0-0.4,0-0.6,0c0,0.2,0,0.4,0,0.6c0.2,0,0.4,0,0.6,0C3.5,5.5,3.5,5.9,3.5,6.3c-0.2,0-0.4,0-0.6,0c0,0.2,0,0.4,0,0.6
		c0.2,0,0.4,0,0.6,0C3.5,6.7,3.5,6.5,3.5,6.3z"/>
	<path class="st7" d="M7.6,6.3c0-0.1,0-0.1,0-0.2c0-0.3,0-0.7,0-1c0.2,0,0.4,0,0.6,0c0-0.2,0-0.4,0-0.6c-0.2,0-0.4,0-0.6,0
		c0,0.2,0,0.4,0,0.6c-0.2,0-0.4,0-0.6,0c0,0.2,0,0.4,0,0.6c0,0.2,0,0.4,0,0.6C7.2,6.3,7.4,6.3,7.6,6.3c0,0.2,0,0.4,0,0.6
		C7.8,7,8,7,8.2,7c0-0.2,0-0.4,0-0.6C8,6.3,7.8,6.3,7.6,6.3z"/>
	<path class="st7" d="M5.8,7c0-0.2,0-0.4,0-0.6c-0.2,0-0.4,0-0.6,0c0,0.2,0,0.4,0,0.6C5.4,7,5.6,7,5.8,7z"/>
	<path class="st7" d="M4.6,7C4.4,7,4.2,7,4,7c0,0.2,0,0.4,0,0.6c0.2,0,0.4,0,0.6,0C4.6,7.4,4.6,7.2,4.6,7z"/>
	<path class="st7" d="M7,7C6.8,7,6.6,7,6.4,7c0,0.2,0,0.4,0,0.6c0.2,0,0.4,0,0.6,0C7,7.4,7,7.2,7,7z"/>
</g>
</svg>
