<?xml version="1.0" encoding="utf-8"?>
<!-- Generator: Adobe Illustrator 21.0.0, SVG Export Plug-In . SVG Version: 6.00 Build 0)  -->
<svg version="1.1" id="Bitcoin_Symbol" xmlns="http://www.w3.org/2000/svg" xmlns:xlink="http://www.w3.org/1999/xlink" x="0px"
	 y="0px" viewBox="0 0 1200 1108.3" style="enable-background:new 0 0 1200 1108.3;" xml:space="preserve">
<style type="text/css">
	.st0{fill:#9E461B;}
	.st1{fill:#FFFFFF;}
	.st2{fill:#BD5F28;}
	.st3{fill:#F8C51D;}
	.st4{fill:#FBE638;}
	.st5{fill:#243E96;}
	.st6{fill:#F8A31A;}
	.st7{fill:#1B75BA;}
</style>
<title>icon-aureus-symbol</title>
<g>
	<path class="st0" d="M1087.7,353.2c-0.1-45.3,0-90.7,0-136c-21.3,0-42.6,0-63.9,0c-0.1-22.7,0-45.3,0-68c-21.3,0-42.6,0-64,0
		c0-22.7,0-45.4,0-68.1c-42.6-0.1-85.2,0.2-127.8-0.1c-0.3-22.6-0.1-45.2-0.1-67.8H384.2c0,22.6,0,45.3,0,67.9
		c-42.6,0.1-85.3,0-127.9,0.1c-0.1,22.7,0.3,45.4-0.2,68c-21.3,0-42.5,0-63.8,0c0,22.7,0,45.3,0,68c-21.3,0-42.6,0-63.9,0
		c0,45.3,0,90.7,0,136c-21.3,0.1-42.6,0-63.9,0v408.7c21.3,0,42.6,0,63.9,0c0.1,45.2,0,90.4,0.1,135.6c21.3,0,42.6-0.1,63.9,0
		c0,21.5,0,43.1,0,64.6c21.3,0,42.5,0,63.8,0c0.4,22.7,0.1,45.4,0.2,68c42.6,0,85.2,0,127.9,0c0,22.7,0,45.3,0,68h447.6
		c0-22.7-0.1-45.3,0.1-67.9c42.6-0.1,85.2,0,127.8,0c0.1-22.7-0.1-45.3,0.2-68c21.3-0.1,42.6,0,63.8,0c0-22.3-0.1-44.6,0-66.9
		c21.3,0,42.6,0,63.9,0c0-44.6,0-89.2,0-133.7c20.6-0.2,41.2,0,61.8-0.1V353.2C1128.9,353.2,1108.3,353.2,1087.7,353.2z
		 M1087.3,421.4c0,22.8,0,45.5,0,68.3c0,45.2,0,90.3,0,135.5c0.1,22.3,0,44.5,0,66.8c0.3,22.3,0.2,44.6,0.1,66.9
		c-21.3,0.3-42.5,0.2-63.7,0.1c-0.1,23.1,0.1,46.2-0.1,69.3c0.1,21.3,0.4,42.5-0.1,63.8c0.1,4.2-5.1,2.8-7.6,3.2
		c-18.7,0.3-37.4-0.6-56,0.4c-0.8,21.7,0.1,43.5-0.5,65.2c-21.2,2.2-42.7,0.4-64,1c-21.3,0.1-42.7-0.1-64,0.1
		c0.4,22.3,0.1,44.7,0.2,67.1c-21.2,2.1-42.6,0.4-63.8,0.8c-106.6,0-213.1,0.1-319.6,0c-21.1,0.1-42.2,0.5-63.3-0.2
		c-1.3-22.5-0.6-45.2-0.4-67.7c-21.4,0.3-42.9-0.5-64.3,0.5c-10.3,1.7-20.8,0.6-31.2,0.8c-9.9-0.3-19.8,0.7-29.5-0.6
		c-3.5-1.2-2.4-5.7-2.9-8.5c-0.1-19.5,0.3-38.9-0.1-58.4c-21.4-1.5-42.8,0.6-64.2-1.1c0.1-22.6-0.1-45.1,0.1-67.7
		c-0.1-21.8,0-43.6,0-65.4c-20.1,0.7-40.2,0.6-60.3,0.1c-4,0.6-3.1-4.5-3.4-6.8c0.1-20.5-0.1-41,0.1-61.5
		c-0.1-22.3,0.3-44.5-0.3-66.8c0.2-45.7,0.1-91.3,0.2-137c0-22.7,0-45.4,0-68.1c-0.4-20.3-0.1-40.6-0.2-60.9
		c0.2-2.5-0.4-7.3,3.6-6.9c20-0.4,40.1-0.6,60.2,0.3c0.1-22.9-0.1-45.8,0.1-68.6c0.4-22.4-1-44.9,0.6-67.2c21-2.8,42.6,1.8,63.4-2.2
		c0.3-21-0.5-42,0.3-63c-0.5-3.9,4.3-3.5,6.7-3.7c18.9-0.1,37.8,0.1,56.8-0.1c21.3-0.1,42.6,0,63.8,0c0.1-22.6,0.2-45.2,0.3-67.8
		c127.8,0,255.6-0.2,383.5,0.1c21.1,0.2,42.1-0.3,63.2,0.3c1.7,22.5,0.6,45.1,0.6,67.7c21.3,0.2,42.7,0.1,64.1,0.1
		c14.6-0.4,29.3,0,43.9-0.2c6.6,0,13.3-0.5,19.7,1.3c1.1,22.2-0.8,44.5,0.9,66.6c20,0.8,40,0,60,0.4c4.3-0.5,3.3,4.9,3.5,7.5
		c-0.2,20,0,40.1-0.1,60.1c0.1,23,0.1,45.9,0,68.9c20.9-1,41.9-0.5,62.7-0.3C1088.9,376.1,1086.8,398.8,1087.3,421.4z"/>
	<path class="st1" d="M448,217.1c0-22.7,0-45.5,0-68.2c106.6,0.1,213.1,0,319.7,0c0.1-22.6-0.1-45.1,0.1-67.7
		c-127.8-0.3-255.6-0.1-383.5-0.1c-0.1,22.6-0.2,45.2-0.3,67.8c-21.3,0-42.5,0-63.8,0c0.1,22.7,0,45.4,0.1,68.1
		C362.9,217.1,405.5,217.1,448,217.1z"/>
	<path class="st1" d="M768.1,149.3c-0.1,22.6,0,45.2,0,67.7c21.2,0,42.4,0,63.6,0c0-22.7,0.1-45.3-0.1-68
		C810.5,149.6,789.3,149.3,768.1,149.3z"/>
	<path class="st2" d="M1086.5,353.6c-20.9-0.3-41.9-0.8-62.7,0.3c0.1,22.1-0.1,44.2,0.2,66.4c-21.4,1-42.8,0-64.3,0.5
		c-0.2-22.3-0.1-44.7,0-67c0.1-22.8,0-45.7,0.1-68.5c-21.1-0.4-42.2-0.2-63.4-0.1c-0.8-22.7-0.2-45.3-0.4-68
		c21.1-0.1,42.2,0.1,63.3-0.1c0.9,22.7,0.1,45.3,0.4,68c21.4,0.1,42.7,0.1,64.1,0c0.2-20-0.1-40.1,0.1-60.1c-0.3-2.6,0.7-8-3.5-7.5
		c-20-0.4-40,0.4-60-0.4c-1.7-22.1,0.2-44.4-0.9-66.6c-6.4-1.8-13.2-1.3-19.7-1.3c-14.6,0.1-29.3-0.2-43.9,0.2
		c0,22.6,0.1,45.2,0,67.8c-21.3,0.1-42.6,0-64,0c-21.2-0.1-42.4,0-63.6,0c0-22.6-0.1-45.2,0-67.7c21.2,0,42.4,0.3,63.5-0.2
		c0-22.5,1.1-45.2-0.6-67.7c-21.1-0.6-42.1-0.1-63.2-0.3c-0.1,22.5,0,45.1-0.1,67.7c-106.6,0.1-213.1,0.1-319.7,0
		c-0.1,22.7,0,45.5,0,68.2c-42.6,0-85.1,0-127.7,0c0-22.7,0.1-45.4-0.1-68.1c-18.9,0.3-37.8,0-56.8,0.1c-2.5,0.2-7.2-0.3-6.7,3.7
		c-0.8,21,0,42-0.3,63c-20.8,4-42.4-0.6-63.4,2.2c-1.7,22.3-0.3,44.8-0.6,67.2c21.3,0.2,42.5-0.2,63.7,0.2c0,45.2,0,90.4,0,135.5
		c-21.2,0.3-42.5,0.1-63.7,0.1c-0.1-22.4,0-44.8-0.1-67.2c-20-0.9-40.1-0.7-60.2-0.3c-4-0.4-3.4,4.4-3.6,6.9
		c0.1,20.3-0.2,40.6,0.2,60.9c21.2-0.1,42.3-0.1,63.5,0c0.2,22.7,0,45.5,0.1,68.2c0.1,45.2-0.1,90.3-0.2,135.5
		c0.2,22.5-0.1,45,0.1,67.5c21.1,0.3,42.3-0.3,63.5,0.3c0.2,44.6,0.1,89.2,0,133.9c-21.1,0.2-42.3,0-63.4,0.1
		c-0.1,22.6,0.1,45.1-0.1,67.7c21.4,1.6,42.8-0.5,64.2,1.1c0.4,19.5,0,39,0.1,58.4c0.5,2.8-0.6,7.4,2.9,8.5
		c9.8,1.3,19.7,0.3,29.5,0.6c10.4-0.3,20.9,0.8,31.2-0.8c-0.1-22.4-0.2-44.8,0-67.2c42.5,0,85,0.1,127.6-0.1
		c0.3,22.2,0.3,44.5,0,66.7c-21.1,0-42.2-0.1-63.3,0c-0.2,22.5-0.9,45.2,0.4,67.7c21.1,0.7,42.2,0.4,63.3,0.2
		c0.2-22.4,0-44.9,0.1-67.4c106.5-0.3,213-0.2,319.4,0c0.1,22.5-0.1,45,0.1,67.5c21.3-0.4,42.7,1.3,63.8-0.8
		c-0.1-22.4,0.2-44.7-0.2-67.1c-21.1,0.2-42.2,0.1-63.3,0.1c-0.3-22.2,0-44.3-0.1-66.5c42.4-0.6,84.8-0.1,127.2-0.2
		c0.6,22.1,0,44.3,0.3,66.5c21.3-0.6,42.8,1.3,64-1c0.6-21.7-0.4-43.5,0.5-65.2c18.6-1,37.3-0.1,56-0.4c2.6-0.5,7.8,0.9,7.6-3.2
		c0.4-21.2,0.2-42.5,0.1-63.8c-21.2-0.3-42.4,0.5-63.5-0.4c0-45.1-0.3-90.1,0.1-135.2c21.2-0.1,42.4-0.3,63.6,0.1
		c0,22,0,44.1,0,66.1c21.3,0.1,42.5,0.2,63.7-0.1c0-22.3,0.2-44.6-0.1-66.9c-21.2,0-42.3,0.1-63.5,0c-0.1-22.3-0.1-44.5,0-66.8
		c-0.1-45.2,0.6-90.3,0.1-135.5c-0.4-22.7-0.2-45.4-0.1-68.2c21.2-0.1,42.3,0,63.5-0.1C1086.8,398.8,1088.9,376.1,1086.5,353.6z
		 M320.2,217.2c-0.1,22.7,0.2,45.3-0.2,67.9c-21.2-0.1-42.4,0-63.6,0c-0.1-22.5,0.1-45.1-0.1-67.6
		C277.7,216.7,299,217.4,320.2,217.2z M320,895c-21.1-0.2-42.2,0.1-63.3-0.1c0.1-22.5-0.6-45.1,0.4-67.5c21,0.3,42.1-0.1,63.1,0.2
		C320,850,320.4,872.5,320,895z M895.7,828.3c-21.4-0.2-42.7,0.1-64.1-0.2c-21.3,0.2-42.5,0.2-63.8,0c0.1,22.4,0.3,44.7-0.1,67.1
		c-106.6,0.3-213.2,0-319.8,0.1c0.1-22.7,0.1-45.3,0-68c-21.2,0.3-42.4,0.1-63.7,0.1c-21.4,0.1-42.7,0-64.1-0.1
		c-0.3-22.8,0.2-45.5-0.2-68.3c-0.3-22.3-0.1-44.6-0.1-66.9c-21.2,0.1-42.5,0.1-63.7,0c0.1-67.7-0.2-135.3,0.3-203
		c0.3-22.6,0-45.2,0.1-67.9c21.2-0.1,42.4,0.2,63.7-0.2c-0.2-45.2,0.1-90.5-0.1-135.7c42.6-0.5,85.3,0,127.9-0.2
		c0.2-22.8-0.4-45.6,0.3-68.3c42.5,0.4,85.1,0.1,127.6,0.3c21.5,0,43,0,64.5,0c42.5-0.1,85,0,127.4-0.1c0.3,22.7,0,45.5,0.2,68.2
		c42.4,0,84.9,0.2,127.3-0.1c0.7,45.3,0.3,90.6,0.3,135.9c21.3-0.5,42.7-0.5,64,0c-0.2,22.7,0.1,45.5-0.1,68.2
		c0.2,67.7-0.1,135.5,0.1,203.2c-21.2,0.9-42.4-0.4-63.6-0.2c0.1,22.3,0,44.5-0.1,66.8C895.8,782.1,896.1,805.2,895.7,828.3z
		 M959.3,895.1c-21.1,0.3-42.1-0.1-63.2,0.2c-0.4-22.4-0.3-44.7,0-67.1c21.1,0.2,42.3,0,63.5,0.1
		C959.5,850.5,959.8,872.8,959.3,895.1z"/>
	<path class="st2" d="M128.8,693.3c-0.2,20.5,0,41-0.1,61.5c0.3,2.3-0.6,7.3,3.4,6.8c20.1,0.5,40.2,0.6,60.3-0.1
		c0-22.7,0.1-45.4-0.1-68C171.1,693.3,150,693.4,128.8,693.3z"/>
	<path class="st3" d="M895.7,217.1c0.1-22.6,0-45.2,0-67.8c-21.4,0-42.7,0-64.1-0.1c0.1,22.7,0,45.3,0.1,68
		C853,217.1,874.4,217.2,895.7,217.1z"/>
	<path class="st3" d="M831.8,692.2c-21.2,0-42.5,0-63.7,0c-0.1-22.4,0.1-44.7-0.1-67.1c-21-0.5-42.1,0-63.1-0.3
		c-0.7-22.2-0.9-44.4,0.1-66.6c20.8-1.7,41.7,0.5,62.5-1.1c1.5-22.5-0.2-45,0.9-67.5c21.1-0.8,42.3-0.2,63.4-0.4
		c21.4,0,42.7,0,64.1,0c21.2,0,42.4,0,63.7-0.1c0.2-22.7-0.1-45.5,0.1-68.2c-21.3-0.5-42.7-0.5-64,0c-42.6,0.5-85.2,0.1-127.8,0.2
		c-21.3,0-42.7,0.2-64-0.1c0-22.4-0.2-44.7,0.1-67.1c-21.4-0.8-42.8,0.2-64.1-0.6c0.1-22.8-0.4-45.7,0.4-68.5
		c0.2-22.6,0.2-45.2,0.3-67.8c-21.5,0-43,0-64.5,0c0.1,22.7-0.3,45.3,0.2,68c1.1,22.3,0.4,44.7,0.5,67c-21.3,1.2-42.8,0.8-64.2,0
		v1.3c-0.1,22.5,0,45.1-0.1,67.7c-21.4,0.2-42.7,0-64,0.1c-42.7,0-85.4,0-128,0c-21.2,0.4-42.4,0-63.7,0.2
		c-0.1,22.6,0.1,45.2-0.1,67.9c21.3,0,42.6,0,63.9,0c21.3,0,42.7,0,64,0c21.2,0.2,42.4-0.6,63.5,0.4c1.5,22.3-0.5,44.8,1,67.1
		c20.6,1.6,41.5-1.9,61.8,1.7c2.2,7.3,1.4,15.1,1.5,22.7c-0.4,14.7,0.6,29.4-0.5,44.1c-21.2,0.6-42.5,0-63.7,0.3
		c0,22.1,0,44.3,0,66.5c-21.2-0.1-42.4-0.1-63.6-0.1c-0.2,22.4,0,44.7,0,67.1c0.2,22.8,0,45.6,0,68.4c21.2,0,42.4,0.2,63.7-0.1
		c-0.1-22.3,0-44.5,0-66.7c21.4-0.2,42.8-0.1,64.2-0.3c-0.2-22.3-0.3-44.5-0.2-66.8c21.4-0.9,42.8-0.2,64.2,0.1
		c21.1,0.2,42.2-0.3,63.3-0.2c21,0.1,42-0.4,63,0.3c0.7,22.2,0.7,44.5,0,66.7l1.5,0c21.3,0.2,42.5,0,63.8,0.1
		c0.1,22.6-0.1,45.2,0.1,67.7c21.3,0.1,42.5,0.2,63.8,0c-0.1-23-0.1-46.1,0.1-69.1C831.8,736.7,831.8,714.4,831.8,692.2z M704,557.4
		c-21.5,0.3-43-0.3-64.5,0.3c0.1,22.5,0,45,0,67.6c-21.1,0-42.3,0.1-63.4-0.1c0-22.7,0-45.5,0-68.2c-21.3,0-42.5,0-63.8,0
		c0.2-22.6-0.4-45.2,0.3-67.8c21.2,0,42.4,0.1,63.6,0c0.1-22.7-0.2-45.3,0.1-67.9c21.2-0.3,42.4-0.1,63.7-0.1
		c0.2,22.7,0,45.3,0.1,68c21.2,0.1,42.4,0.1,63.7,0C704.5,511.8,703.9,534.6,704,557.4z"/>
	<path class="st3" d="M959.2,217c-21.1,0.2-42.2,0-63.3,0.1c0.2,22.7-0.5,45.3,0.4,68c21.1,0,42.2-0.3,63.4,0.1
		c-0.1,22.8,0,45.7-0.1,68.5c21.4-0.4,42.8-0.5,64.1,0.1c0.1-22.9,0.1-45.9,0-68.9c-21.4,0.1-42.8,0.1-64.1,0
		C959.3,262.4,960.1,239.7,959.2,217z"/>
	<path class="st3" d="M256.2,421c0.1-45.2,0-90.4,0-135.5c-21.3-0.4-42.5,0-63.7-0.2c-0.2,22.9,0,45.8-0.1,68.6
		c0.1,22.4-0.1,44.8,0.1,67.2C213.7,421.1,234.9,421.2,256.2,421z"/>
	<path class="st3" d="M192.2,625.1c0.1-45.2,0.3-90.3,0.2-135.5c-21.2-0.3-42.4,0-63.6-0.1c-0.1,45.7,0,91.3-0.2,137
		c5.4-1.1,10.9-1.9,16.4-1.8C160.7,625,176.5,624.7,192.2,625.1z"/>
	<path class="st3" d="M1023.8,625.1c21.1-0.3,42.3-0.4,63.5,0c0-45.2,0-90.3,0-135.5c-21.1-0.2-42.3-0.2-63.4-0.1
		C1024.4,534.8,1023.7,579.9,1023.8,625.1z"/>
	<path class="st4" d="M320.1,285.1c0.4-22.7,0.1-45.3,0.2-67.9c-21.3,0.2-42.6-0.5-63.8,0.3c0.2,22.5,0,45.1,0.1,67.6
		C277.7,285.1,298.9,285.1,320.1,285.1z"/>
	<path class="st5" d="M448.4,353.6c21.3-1,42.7-0.5,64.1-0.2v-1.3c0.3-22.3,0-44.7,0.1-67c21.2-0.1,42.4,0,63.6-0.1
		c-0.4-22.7-0.1-45.3-0.2-68c-42.5-0.2-85.1,0.2-127.6-0.3c-0.7,22.8-0.1,45.6-0.3,68.3c-42.6,0.2-85.3-0.3-127.9,0.2
		c0.2,45.2,0,90.5,0.1,135.7c42.7,0,85.3,0,128,0C448.4,398.7,448.4,376.2,448.4,353.6z"/>
	<path class="st5" d="M704,285c0,23,0.1,46-0.1,68.9c21.3,0.5,42.5-0.2,63.8,0.4c0.2,22.3,0,44.5,0.1,66.8
		c42.6-0.1,85.2,0.3,127.8-0.2c0-45.3,0.5-90.6-0.3-135.9c-42.4,0.3-84.9,0.1-127.3,0.1c-0.2-22.7,0.1-45.5-0.2-68.2
		c-42.5,0.2-84.9,0-127.4,0.1c-0.1,22.6-0.1,45.2-0.3,67.8C661.4,285.1,682.7,285,704,285z"/>
	<path class="st5" d="M384.4,691.4c-0.2-44.5,0.1-89.1-0.1-133.6c-21.2-1.1-42.4-0.1-63.6-0.5c-0.8-22.7-0.2-45.3-0.3-68
		c-21.3-0.1-42.6,0-63.9,0c-0.5,67.7-0.1,135.3-0.3,203c21.2,0,42.5,0.1,63.7,0C341.5,691.5,363,693.2,384.4,691.4z"/>
	<path class="st5" d="M895.8,557.7c-21.3,0.4-42.5-0.2-63.8,0.2c-0.2,37.3,0.1,74.6-0.1,111.9c-0.2,7.4,0,14.9,0.6,22.3
		c21.1,0,42.3-0.1,63.4,0c21.2-0.2,42.4,1.1,63.6,0.2c-0.3-67.7,0-135.5-0.1-203.2c-21.2,0.1-42.4,0.1-63.7,0.1
		C895.9,512.1,896.1,534.9,895.8,557.7z"/>
	<path class="st5" d="M704,760.3l-1.5,0c-21-0.2-42-0.1-63-0.1c-21,0.2-42-0.3-63,0.3c-21.4,0.2-42.9-0.7-64.3-0.2
		c0.2,22.3,0.4,44.5-0.1,66.8c-21.4,0.4-42.7-0.2-64.1,0.3c0.1,22.7,0,45.3,0,68c106.6-0.1,213.2,0.2,319.8-0.1
		c0.3-22.4,0.2-44.7,0.1-67.1c-21.3,0.2-42.5,0.2-63.8,0.1C703.5,805.6,703.8,783,704,760.3z"/>
	<path class="st6" d="M512.5,352.2c21.4,0.8,42.8,1.2,64.2,0c-0.1-22.4,0.6-44.7-0.5-67c-21.2,0.1-42.4,0-63.6,0.1
		C512.5,307.5,512.7,329.8,512.5,352.2z"/>
	<path class="st6" d="M640.1,284.9c-0.8,22.8-0.3,45.7-0.4,68.5c21.4,0.7,42.8-0.2,64.1,0.6c0.3-23,0.1-46,0.1-68.9
		C682.7,285,661.4,285.1,640.1,284.9z"/>
	<path class="st6" d="M959.6,353.8c-0.1,22.3-0.2,44.7,0,67c21.4-0.5,42.9,0.4,64.3-0.5c-0.3-22.1,0-44.2-0.2-66.4
		C1002.3,353.3,980.9,353.4,959.6,353.8z"/>
	<path class="st6" d="M192.4,489.6c0-22.7,0.1-45.5-0.1-68.2c-21.2-0.2-42.3-0.1-63.5,0c0,22.7,0,45.4,0,68.1
		C150,489.6,171.2,489.3,192.4,489.6z"/>
	<path class="st6" d="M1023.9,489.6c21.1-0.1,42.3-0.1,63.4,0.1c0-22.8,0-45.5,0-68.3c-21.1,0-42.3-0.1-63.5,0.1
		C1023.7,444.1,1023.5,466.9,1023.9,489.6z"/>
	<path class="st6" d="M448,557.1c0,22.8,0,45.6,0,68.4c21.2-0.3,42.5,0.3,63.7-0.3c1.1-14.7,0.1-29.4,0.5-44.1
		c-0.1-7.6,0.7-15.3-1.5-22.7c-20.3-3.6-41.2,0-61.8-1.7c-1.5-22.4,0.5-44.8-1-67.1c-21.1-1-42.3-0.1-63.5-0.4c0,22.6,0,45.2,0,67.8
		C405.7,557.1,426.9,557.1,448,557.1z"/>
	<path class="st6" d="M768.3,489.6c-1.1,22.5,0.7,45.1-0.9,67.5c-20.8,1.6-41.7-0.7-62.5,1.1c-1,22.2-0.8,44.4-0.1,66.6
		c21,0.3,42.1-0.2,63.1,0.3c-0.1-22.5,0-44.9-0.1-67.4c21.2-0.1,42.4,0.1,63.6-0.1c0.2-22.8,0.1-45.6,0.1-68.4
		C810.6,489.4,789.4,488.8,768.3,489.6z"/>
	<path class="st6" d="M255.8,692.9c-21.1-0.6-42.3,0-63.5-0.3c-0.2-22.5,0.1-45-0.1-67.5c-15.7-0.4-31.5-0.1-47.2-0.4
		c-5.5-0.1-11,0.7-16.4,1.8c0.6,22.3,0.1,44.5,0.3,66.8c21.1,0.1,42.3-0.1,63.4,0.1c0.2,22.7,0.1,45.4,0.1,68
		c0,21.8-0.1,43.6,0,65.4c21.1,0,42.3,0.1,63.4-0.1C255.9,782.1,256,737.5,255.8,692.9z"/>
	<path class="st6" d="M1023.8,625.1c-0.1,22.3-0.1,44.5,0,66.8c21.1,0.1,42.3,0,63.5,0c0-22.3,0-44.5,0-66.8
		C1066.2,624.7,1045,624.8,1023.8,625.1z"/>
	<path class="st6" d="M576.3,693.6c-21.4-0.2-42.8-1-64.2-0.1c-0.1,22.3,0,44.5,0.2,66.8c21.4-0.4,42.9,0.4,64.3,0.2
		C576.5,738.2,576.6,715.9,576.3,693.6z"/>
	<path class="st6" d="M702.5,760.3c0.7-22.2,0.8-44.5,0-66.7c-21-0.7-42-0.2-63-0.3c0,22.3,0,44.6,0,66.9
		C660.6,760.3,681.6,760.1,702.5,760.3z"/>
	<path class="st6" d="M960.2,692.7c-0.4,45.1,0,90.1-0.1,135.2c21.1,0.9,42.3,0.1,63.5,0.4c0.2-23.1,0-46.2,0.1-69.3
		c0-22,0-44.1,0-66.1C1002.6,692.4,981.4,692.6,960.2,692.7z"/>
	<path class="st6" d="M320.1,759.1c0.4,22.8,0,45.5,0.2,68.3c21.4,0.1,42.8,0.2,64.1,0.1c0.1-22.8,0.2-45.6,0-68.4
		C363,759.1,341.5,759,320.1,759.1z"/>
	<path class="st6" d="M831.7,828.1c21.3,0.3,42.7,0,64.1,0.2c0.4-23.1,0.1-46.2,0.1-69.3c-21.4,0-42.7,0-64.1,0
		C831.5,782,831.6,805.1,831.7,828.1z"/>
	<path class="st6" d="M256.7,894.8c21.1,0.3,42.2,0,63.3,0.1c0.4-22.5,0-45,0.2-67.5c-21-0.3-42.1,0-63.1-0.2
		C256.1,849.8,256.8,872.3,256.7,894.8z"/>
	<path class="st6" d="M896.1,828.2c-0.3,22.4-0.4,44.7,0,67.1c21-0.3,42.1,0.1,63.2-0.2c0.5-22.3,0.2-44.5,0.3-66.8
		C938.4,828.2,917.3,828.3,896.1,828.2z"/>
	<path class="st6" d="M447.9,895.1c-42.5,0.1-85,0-127.6,0.1c-0.3,22.4-0.1,44.8,0,67.2c21.4-1,42.9-0.2,64.3-0.5
		c21.1-0.2,42.2-0.1,63.3,0C448.2,939.6,448.2,917.3,447.9,895.1z"/>
	<path class="st6" d="M768.1,895.6c0.1,22.2-0.1,44.3,0.1,66.5c21.1-0.1,42.2,0.1,63.3-0.1c21.3-0.2,42.7,0,64-0.1
		c-0.3-22.2,0.3-44.4-0.3-66.5C852.8,895.5,810.4,895,768.1,895.6z"/>
	<path class="st6" d="M448.4,962.4c-0.1,22.5,0.1,44.9-0.1,67.4c106.5,0.2,213.1,0.1,319.6,0c-0.2-22.5,0-45-0.1-67.5
		C661.3,962.2,554.8,962.2,448.4,962.4z"/>
	<path class="st7" d="M448.4,353.6c0,22.5,0.1,45,0,67.5c21.3,0,42.7,0.1,64-0.1c0-22.5-0.1-45.1,0.1-67.7
		C491.1,353.2,469.7,352.7,448.4,353.6z"/>
	<path class="st7" d="M703.9,354c-0.3,22.4-0.1,44.7-0.1,67.1c21.3,0.3,42.7,0.1,64,0.1c-0.1-22.3,0.1-44.5-0.1-66.8
		C746.4,353.8,725.1,354.4,703.9,354z"/>
	<path class="st7" d="M640,489.1c0-22.7,0.1-45.3-0.1-68c-21.2,0-42.4-0.2-63.7,0.1c-0.3,22.6-0.1,45.3-0.1,67.9
		c-21.2,0.1-42.4,0-63.6,0c-0.7,22.6-0.1,45.2-0.3,67.8c21.3,0,42.6,0,63.8,0c0.1,22.7,0,45.5,0,68.2c21.1,0.2,42.3,0.1,63.4,0.1
		c0.1-22.5,0.1-45.1,0-67.6c21.5-0.6,43,0,64.5-0.3c-0.1-22.8,0.5-45.5-0.3-68.3C682.5,489.2,661.2,489.2,640,489.1z"/>
	<path class="st7" d="M384.5,691.9c21.2,0,42.4,0,63.6,0.1c0-22.2,0-44.3,0-66.5c0-22.8,0-45.6,0-68.4c-21.2,0-42.3,0-63.5,0
		c0-22.6,0-45.2,0-67.8c-21.3,0-42.7,0-64,0c0,22.7-0.5,45.3,0.3,68c21.2,0.4,42.4-0.6,63.6,0.5c0.2,44.5-0.1,89.1,0.1,133.6
		c-21.4,1.8-43,0.2-64.4,0.9c0,22.3-0.2,44.6,0.1,66.9c21.4-0.1,42.9,0,64.4-0.1C384.5,736.7,384.3,714.3,384.5,691.9z"/>
	<path class="st7" d="M832.5,692.2c-0.6-7.4-0.8-14.9-0.6-22.3c0.1-37.3-0.1-74.6,0.1-111.9c21.3-0.4,42.5,0.1,63.8-0.2
		c0.3-22.8,0.1-45.6,0-68.4c-21.4,0-42.7,0-64.1,0c0,22.8,0.1,45.6-0.1,68.4c-21.2,0.1-42.4,0-63.6,0.1c0,22.5-0.1,44.9,0.1,67.4
		c0.1,22.4,0,44.7,0.1,67.1c21.3,0,42.5,0,63.7,0c0,22.3,0.1,44.6,0,66.8c21.4,0,42.7,0,64.1,0c0.1-22.3,0.2-44.5,0.1-66.8
		C874.8,692,853.7,692.2,832.5,692.2z"/>
	<path class="st7" d="M639.6,760.3c0-22.3,0-44.6,0-66.9c-21.1,0-42.2,0.4-63.3,0.2c0.4,22.3,0.2,44.7,0.3,67
		C597.6,760,618.6,760.5,639.6,760.3z"/>
	<path class="st7" d="M512.3,760.3c-21.4,0.1-42.8,0.1-64.2,0.3c0,22.3-0.1,44.5,0,66.7c21.4-0.4,42.7,0.1,64.1-0.3
		C512.7,804.8,512.4,782.6,512.3,760.3z"/>
	<path class="st7" d="M767.8,760.4c-21.3-0.1-42.5,0.1-63.8-0.1c-0.2,22.6-0.5,45.3,0.1,67.9c21.3,0.1,42.5,0.1,63.8-0.1
		C767.6,805.6,767.9,783,767.8,760.4z"/>
</g>
</svg>
