<?xml version="1.0" encoding="utf-8"?>
<!-- Generator: Adobe Illustrator 21.0.0, SVG Export Plug-In . SVG Version: 6.00 Build 0)  -->
<svg version="1.1" id="Bitcoin_Symbol" xmlns="http://www.w3.org/2000/svg" xmlns:xlink="http://www.w3.org/1999/xlink" x="0px"
	 y="0px" viewBox="0 0 1200 1108.3" style="enable-background:new 0 0 1200 1108.3;" xml:space="preserve">
<style type="text/css">
	.st0{fill:#9E461B;}
	.st1{fill:#FFFFFF;}
	.st2{fill:#BD5F28;}
	.st3{fill:#F8C51D;}
	.st4{fill:#FBE638;}
	.st5{fill:#243E96;}
	.st6{fill:#F8A31A;}
	.st7{fill:#1B75BA;}
</style>
<title>icon-bitcoin-symbol</title>
<g>
	<path class="st0" d="M1087.6,349.5c-0.1-45.9,0-91.7,0-137.5c-21.5,0-43.1,0-64.6,0c-0.1-22.9,0-45.8,0-68.8c-21.6,0-43.1,0-64.7,0
		c0-22.9,0-45.9,0-68.8c-43.1-0.1-86.1,0.2-129.2-0.1c-0.3-22.9-0.1-45.7-0.1-68.6H376.3c0,22.9,0,45.8,0,68.7
		c-43.1,0.1-86.2,0-129.3,0.1c-0.1,22.9,0.3,45.9-0.2,68.8c-21.5,0-43,0-64.5,0c0,22.9,0,45.8,0,68.8c-21.5,0-43.1,0-64.6,0
		c0,45.9,0,91.7,0,137.5c-21.5,0.1-43.1,0-64.6,0v413.2c21.5,0,43,0,64.6,0c0.1,45.7,0,91.4,0.1,137.1c21.5,0,43.1-0.1,64.6,0
		c0,21.8,0,43.5,0,65.3c21.5,0,43,0,64.5,0c0.5,22.9,0.1,45.9,0.2,68.8c43.1,0,86.2,0,129.3,0c0,22.9,0,45.8,0,68.7h452.6
		c0-22.9-0.1-45.8,0.1-68.7c43.1-0.1,86.2,0,129.2,0c0.1-22.9-0.1-45.8,0.2-68.8c21.5-0.1,43,0,64.5,0c0-22.5-0.1-45.1,0-67.6
		c21.5,0,43,0,64.6,0c0-45.1,0-90.1,0-135.2c20.8-0.2,41.7,0,62.5-0.1V349.5C1129.2,349.5,1108.4,349.6,1087.6,349.5z M1087.1,418.4
		c0,23,0,46,0,69c0,45.7,0,91.3,0,137c0.1,22.5,0,45,0,67.5c0.3,22.6,0.2,45.1,0.2,67.7c-21.5,0.3-43,0.2-64.4,0.1
		c-0.1,23.4,0.1,46.7-0.1,70.1c0.2,21.5,0.4,43-0.1,64.5c0.1,4.2-5.1,2.8-7.7,3.3c-18.9,0.3-37.8-0.6-56.6,0.4
		c-0.8,22,0.2,44-0.5,66c-21.4,2.3-43.1,0.4-64.7,1c-21.6,0.1-43.1-0.1-64.7,0.1c0.4,22.6,0.1,45.2,0.2,67.8
		c-21.4,2.1-43,0.5-64.5,0.8c-107.7,0-215.4,0.1-323.1,0c-21.3,0.2-42.7,0.5-64-0.2c-1.3-22.8-0.6-45.7-0.4-68.5
		c-21.7,0.3-43.4-0.5-65,0.5c-10.5,1.7-21,0.6-31.6,0.8c-10-0.3-20,0.7-29.9-0.6c-3.6-1.2-2.4-5.8-2.9-8.6
		c-0.1-19.7,0.3-39.4-0.1-59.1c-21.6-1.5-43.3,0.6-64.9-1.1c0.1-22.8-0.1-45.6,0.1-68.5c-0.1-22,0-44.1,0-66.1
		c-20.3,0.7-40.6,0.6-60.9,0.1c-4,0.6-3.1-4.5-3.4-6.8c0.1-20.7-0.1-41.4,0.1-62.2c-0.2-22.5,0.3-45-0.3-67.5
		c0.2-46.2,0.2-92.3,0.2-138.5c0-23,0-45.9,0-68.9c-0.5-20.5-0.1-41.1-0.2-61.6c0.2-2.5-0.5-7.4,3.6-7c20.2-0.4,40.6-0.6,60.8,0.3
		c0.1-23.1-0.1-46.3,0.1-69.4c0.4-22.6-1.1-45.4,0.6-68c21.2-2.8,43.1,1.8,64.1-2.2c0.3-21.2-0.5-42.5,0.3-63.7
		c-0.5-4,4.3-3.5,6.8-3.7c19.1-0.1,38.3,0.1,57.4-0.2c21.5-0.1,43,0,64.5,0c0.1-22.9,0.2-45.7,0.3-68.6c129.2,0,258.5-0.2,387.7,0.1
		c21.3,0.2,42.6-0.3,63.9,0.3c1.7,22.7,0.6,45.6,0.6,68.4c21.6,0.2,43.2,0.1,64.8,0.1c14.8-0.4,29.6,0,44.4-0.2
		c6.7,0,13.5-0.5,20,1.3c1.1,22.4-0.8,45,0.9,67.3c20.2,0.8,40.5,0,60.7,0.4c4.3-0.5,3.3,4.9,3.6,7.6c-0.2,20.2,0,40.5-0.1,60.8
		c0.1,23.2,0.1,46.4,0,69.6c21.1-1,42.3-0.5,63.4-0.3C1088.8,372.7,1086.6,395.6,1087.1,418.4z"/>
	<path class="st1" d="M440.8,211.9c0-23,0-46,0-68.9c107.8,0.1,215.5,0,323.3,0c0.1-22.8-0.1-45.6,0.1-68.4
		c-129.2-0.3-258.5-0.1-387.7-0.1c-0.2,22.9-0.2,45.7-0.3,68.6c-21.5,0-43,0-64.5,0c0.2,22.9,0,45.9,0.1,68.8
		C354.7,211.9,397.8,211.9,440.8,211.9z"/>
	<path class="st1" d="M764.4,143.4c-0.1,22.8,0,45.7,0,68.5c21.4,0,42.9,0,64.3,0c0-22.9,0.1-45.8-0.1-68.7
		C807.2,143.7,785.8,143.4,764.4,143.4z"/>
	<path class="st2" d="M1086.3,349.9c-21.1-0.3-42.3-0.8-63.4,0.3c0.2,22.4-0.1,44.7,0.2,67.1c-21.6,1-43.3,0-65,0.5
		c-0.2-22.6-0.1-45.1,0-67.7c0.1-23.1,0-46.2,0.1-69.3c-21.4-0.5-42.7-0.2-64.1-0.1c-0.9-22.9-0.2-45.9-0.4-68.8
		c21.3-0.2,42.7,0.1,64-0.1c0.9,22.9,0.2,45.9,0.4,68.8c21.6,0.1,43.2,0.1,64.8,0c0.2-20.2-0.1-40.5,0.1-60.8
		c-0.3-2.7,0.7-8.1-3.6-7.6c-20.2-0.4-40.5,0.4-60.7-0.4c-1.7-22.4,0.2-44.9-0.9-67.3c-6.5-1.8-13.3-1.3-20-1.3
		c-14.8,0.2-29.6-0.2-44.4,0.2c0,22.9,0.1,45.7,0,68.6c-21.6,0.1-43.1,0-64.7,0c-21.5-0.1-42.9,0-64.3,0c0-22.8-0.1-45.7,0-68.5
		c21.4,0,42.8,0.3,64.2-0.2c0-22.8,1.1-45.7-0.6-68.4c-21.3-0.6-42.6-0.1-63.9-0.3c-0.2,22.8,0,45.6-0.1,68.4
		c-107.8,0.1-215.5,0.1-323.3,0c-0.1,23,0,46,0,68.9c-43,0-86,0-129.1,0c0-22.9,0.1-45.9-0.1-68.8c-19.1,0.3-38.2,0-57.4,0.2
		c-2.5,0.2-7.3-0.3-6.8,3.7c-0.8,21.2,0,42.4-0.3,63.7c-21,4.1-42.9-0.6-64.1,2.2c-1.7,22.5-0.3,45.3-0.6,68
		c21.5,0.2,43-0.2,64.4,0.2c0,45.7,0,91.4,0,137c-21.5,0.3-43,0.1-64.4,0.1c-0.2-22.7,0-45.3-0.1-68c-20.2-0.9-40.6-0.7-60.8-0.3
		c-4.1-0.5-3.4,4.4-3.6,7c0.1,20.5-0.2,41.1,0.2,61.6c21.4-0.1,42.8-0.2,64.2,0c0.2,23,0,46,0.1,68.9c0.1,45.7-0.2,91.3-0.2,137
		c0.2,22.8-0.1,45.5,0.2,68.2c21.4,0.3,42.8-0.3,64.2,0.3c0.2,45.1,0.1,90.2,0,135.3c-21.4,0.2-42.8,0-64.1,0.1
		c-0.2,22.8,0.1,45.6-0.1,68.5c21.6,1.6,43.3-0.5,64.9,1.1c0.4,19.7,0,39.4,0.1,59.1c0.5,2.8-0.6,7.5,2.9,8.6
		c9.9,1.3,19.9,0.3,29.9,0.6c10.5-0.3,21.1,0.9,31.6-0.8c-0.1-22.6-0.2-45.3,0-67.9c43,0,86,0.1,129-0.1c0.3,22.5,0.3,45,0,67.4
		c-21.3,0-42.7-0.2-64,0c-0.2,22.8-0.9,45.7,0.4,68.5c21.3,0.7,42.7,0.4,64,0.2c0.2-22.7,0-45.4,0.1-68.1c107.6-0.3,215.3-0.2,323,0
		c0.1,22.7-0.1,45.5,0.1,68.2c21.5-0.4,43.1,1.3,64.5-0.8c-0.1-22.6,0.2-45.2-0.2-67.8c-21.3,0.2-42.7,0.1-64,0.1
		c-0.3-22.4,0-44.8-0.1-67.2c42.9-0.6,85.7-0.1,128.6-0.2c0.6,22.4,0,44.8,0.3,67.2c21.5-0.6,43.2,1.3,64.7-1c0.6-22-0.4-44,0.5-66
		c18.8-1,37.7-0.1,56.6-0.4c2.6-0.5,7.9,0.9,7.7-3.3c0.4-21.5,0.2-43,0.1-64.5c-21.4-0.3-42.8,0.5-64.2-0.4
		c0-45.6-0.3-91.1,0.1-136.7c21.4-0.2,42.9-0.3,64.3,0.1c0,22.3,0,44.6,0,66.8c21.5,0.1,43,0.2,64.4-0.1c0-22.6,0.2-45.1-0.2-67.7
		c-21.4,0-42.8,0.1-64.2,0c-0.1-22.5-0.1-45,0-67.5c-0.2-45.7,0.6-91.3,0.1-137c-0.4-23-0.2-45.9-0.1-68.9c21.4-0.1,42.8,0,64.2-0.1
		C1086.6,395.6,1088.8,372.7,1086.3,349.9z M311.6,212c-0.1,22.9,0.2,45.8-0.2,68.7c-21.4-0.1-42.9,0-64.3,0
		c-0.1-22.8,0.1-45.6-0.1-68.3C268.5,211.5,290.1,212.2,311.6,212z M311.3,897.3c-21.3-0.2-42.7,0.1-64-0.2
		c0.1-22.8-0.6-45.6,0.4-68.3c21.3,0.3,42.6-0.1,63.8,0.2C311.4,851.8,311.7,874.5,311.3,897.3z M893.4,829.9
		c-21.6-0.2-43.2,0.1-64.8-0.2c-21.5,0.2-43,0.2-64.5,0c0.2,22.6,0.3,45.2-0.1,67.8c-107.8,0.3-215.5,0-323.3,0.1
		c0.1-22.9,0.1-45.8,0-68.8c-21.4,0.3-42.9,0.1-64.4,0.1c-21.6,0.1-43.2,0-64.8-0.1c-0.3-23,0.2-46-0.2-69
		c-0.3-22.5-0.1-45.1-0.1-67.6c-21.5,0.1-42.9,0.1-64.4,0c0.2-68.4-0.2-136.8,0.3-205.3c0.3-22.9,0-45.7,0.1-68.6
		c21.5-0.1,42.9,0.2,64.4-0.2c-0.2-45.7,0.1-91.5-0.1-137.2c43.1-0.5,86.2,0,129.3-0.2c0.2-23-0.4-46.1,0.3-69.1
		c43,0.4,86,0.1,129,0.3c21.7,0,43.5,0,65.2,0c43-0.1,85.9,0,128.8-0.1c0.3,23,0,46,0.2,69c42.9,0,85.8,0.2,128.7-0.1
		c0.7,45.8,0.3,91.6,0.3,137.4c21.6-0.5,43.2-0.5,64.7,0c-0.2,23,0.1,46-0.1,69c0.2,68.5-0.2,137,0.1,205.5
		c-21.4,0.9-42.9-0.4-64.3-0.2c0.1,22.5,0,45-0.1,67.6C893.5,783.2,893.8,806.5,893.4,829.9z M957.7,897.4
		c-21.3,0.3-42.6-0.1-63.9,0.2c-0.4-22.6-0.3-45.2,0-67.8c21.4,0.2,42.8,0,64.2,0.1C957.9,852.4,958.2,874.9,957.7,897.4z"/>
	<path class="st2" d="M118.1,693.4c-0.2,20.7,0,41.4-0.1,62.2c0.3,2.3-0.6,7.4,3.4,6.8c20.3,0.5,40.6,0.6,60.9-0.1
		c0-22.9,0.1-45.9-0.1-68.8C160.8,693.3,139.4,693.5,118.1,693.4z"/>
	<path class="st3" d="M893.4,211.9c0.1-22.9,0-45.7,0-68.6c-21.6,0-43.2,0-64.8-0.1c0.1,22.9,0,45.8,0.1,68.7
		C850.3,211.9,871.8,212,893.4,211.9z"/>
	<path class="st3" d="M828.8,692.2c-21.5,0-42.9,0-64.4,0c-0.1-22.6,0.1-45.2-0.1-67.8c-21.3-0.5-42.6,0-63.8-0.3
		c-0.7-22.4-0.9-44.9,0.1-67.3c21-1.8,42.1,0.5,63.2-1.1c1.6-22.7-0.2-45.5,0.9-68.3c21.3-0.9,42.7-0.2,64.1-0.4
		c21.6,0,43.2,0,64.8,0c21.4,0,42.9,0,64.4-0.1c0.2-23-0.1-46,0.1-69c-21.6-0.5-43.2-0.5-64.7,0c-43.1,0.5-86.1,0.1-129.2,0.2
		c-21.6,0-43.2,0.2-64.7-0.1c0-22.6-0.2-45.2,0.1-67.8c-21.6-0.8-43.3,0.2-64.9-0.6c0.1-23.1-0.4-46.2,0.4-69.3
		c0.2-22.8,0.2-45.7,0.3-68.5c-21.7,0-43.5,0-65.2,0c0.1,22.9-0.3,45.9,0.2,68.8c1.1,22.6,0.4,45.2,0.5,67.8
		c-21.6,1.2-43.3,0.8-64.9,0v1.3c-0.1,22.8,0,45.6-0.1,68.4c-21.6,0.2-43.2,0-64.7,0.1c-43.2,0-86.3,0-129.4,0
		c-21.5,0.4-42.9,0-64.4,0.2c-0.1,22.9,0.1,45.7-0.1,68.6c21.6,0,43.1,0,64.6,0c21.6,0,43.2,0,64.7,0c21.4,0.2,42.8-0.6,64.2,0.4
		c1.5,22.6-0.5,45.3,1,67.9c20.8,1.6,42-1.9,62.5,1.7c2.3,7.4,1.4,15.3,1.5,22.9c-0.4,14.9,0.6,29.8-0.5,44.6
		c-21.5,0.6-43,0-64.4,0.3c0,22.4,0,44.8,0,67.2c-21.4-0.1-42.8-0.1-64.3-0.1c-0.2,22.6,0,45.2,0,67.9c0.2,23.1,0,46.2,0,69.2
		c21.5,0,42.9,0.2,64.4-0.1c-0.1-22.5,0-45,0-67.5c21.6-0.2,43.3-0.1,64.9-0.3c-0.2-22.5-0.3-45-0.2-67.6
		c21.6-0.9,43.3-0.2,64.9,0.1c21.3,0.2,42.7-0.3,64-0.2c21.2,0.1,42.5-0.4,63.7,0.3c0.7,22.5,0.7,45,0,67.4l1.5,0
		c21.5,0.2,43,0,64.5,0.1c0.1,22.8-0.2,45.7,0.1,68.5c21.5,0.2,43,0.2,64.5,0c-0.1-23.3-0.1-46.6,0.1-69.9
		C828.8,737.3,828.8,714.8,828.8,692.2z M699.6,556c-21.7,0.3-43.5-0.3-65.2,0.3c0.1,22.8,0,45.5,0,68.3c-21.4,0-42.7,0.1-64.1-0.1
		c0-23,0-46,0-68.9c-21.5,0-43,0-64.5,0c0.2-22.9-0.4-45.7,0.3-68.6c21.4,0,42.9,0.1,64.3,0c0.1-22.9-0.2-45.8,0.1-68.7
		c21.5-0.3,42.9-0.1,64.4-0.1c0.2,22.9,0,45.8,0.1,68.8c21.4,0.1,42.9,0.1,64.4,0C700.1,509.9,699.5,532.9,699.6,556z"/>
	<path class="st3" d="M957.6,211.8c-21.3,0.2-42.7,0-64,0.1c0.2,22.9-0.5,45.9,0.4,68.8c21.4,0,42.7-0.3,64.1,0.1
		c-0.1,23.1,0,46.2-0.1,69.3c21.6-0.4,43.2-0.5,64.9,0.1c0.1-23.2,0.1-46.4,0-69.6c-21.6,0.1-43.2,0.1-64.8,0
		C957.7,257.7,958.5,234.7,957.6,211.8z"/>
	<path class="st3" d="M246.8,418.1c0.1-45.7,0-91.4,0-137c-21.5-0.4-43,0-64.4-0.2c-0.2,23.1,0,46.3-0.1,69.4
		c0.1,22.7-0.1,45.3,0.1,68C203.8,418.1,225.3,418.3,246.8,418.1z"/>
	<path class="st3" d="M182.1,624.4c0.1-45.7,0.3-91.3,0.2-137c-21.4-0.3-42.9,0-64.3-0.1c-0.1,46.2,0,92.3-0.2,138.5
		c5.5-1.1,11-2,16.6-1.8C150.3,624.3,166.2,624,182.1,624.4z"/>
	<path class="st3" d="M1023,624.4c21.4-0.3,42.8-0.4,64.2,0c0-45.7,0-91.3,0-137c-21.4-0.2-42.7-0.2-64.1-0.1
		C1023.5,533.1,1022.8,578.8,1023,624.4z"/>
	<path class="st4" d="M311.4,280.7c0.4-22.9,0.1-45.8,0.2-68.7c-21.5,0.2-43-0.5-64.6,0.3c0.2,22.8,0,45.6,0.1,68.3
		C268.6,280.7,290,280.6,311.4,280.7z"/>
	<path class="st5" d="M441.1,350c21.6-1,43.2-0.5,64.8-0.2v-1.3c0.3-22.6,0-45.2,0.1-67.7c21.4-0.1,42.8,0,64.3-0.1
		c-0.4-22.9-0.1-45.8-0.2-68.8c-43-0.2-86,0.2-129-0.3c-0.7,23-0.1,46.1-0.3,69.1c-43.1,0.2-86.2-0.3-129.3,0.2
		c0.2,45.7,0,91.5,0.1,137.2c43.1,0,86.3,0,129.4,0C441.2,395.5,441.1,372.7,441.1,350z"/>
	<path class="st5" d="M699.6,280.6c0,23.2,0.1,46.5-0.1,69.7c21.5,0.5,43-0.2,64.5,0.4c0.2,22.5,0,45,0.1,67.5
		c43.1-0.1,86.2,0.3,129.2-0.2c0-45.8,0.5-91.6-0.3-137.4c-42.9,0.3-85.8,0.1-128.7,0.1c-0.2-23,0.2-46-0.2-69
		c-42.9,0.2-85.9,0-128.8,0.1c-0.1,22.8-0.1,45.7-0.3,68.5C656.5,280.6,678,280.6,699.6,280.6z"/>
	<path class="st5" d="M376.5,691.4c-0.2-45,0.1-90.1-0.1-135.1c-21.4-1.1-42.8-0.1-64.3-0.5c-0.8-22.9-0.2-45.8-0.3-68.7
		c-21.5-0.1-43.1,0-64.6,0c-0.5,68.4-0.1,136.8-0.3,205.3c21.5,0,42.9,0.1,64.4,0C333,691.6,354.8,693.3,376.5,691.4z"/>
	<path class="st5" d="M893.5,556.3c-21.5,0.4-43-0.2-64.5,0.2c-0.2,37.7,0.1,75.5-0.1,113.2c-0.2,7.5,0,15,0.6,22.5
		c21.4,0,42.7-0.1,64.1,0c21.4-0.2,42.9,1.1,64.3,0.2c-0.3-68.5,0-137-0.1-205.5c-21.4,0.1-42.9,0.1-64.4,0.1
		C893.7,510.1,893.8,533.2,893.5,556.3z"/>
	<path class="st5" d="M699.6,761.2l-1.5,0c-21.2-0.2-42.4-0.1-63.7-0.1c-21.2,0.2-42.5-0.3-63.7,0.3c-21.7,0.2-43.3-0.7-65-0.2
		c0.2,22.5,0.4,45-0.1,67.5c-21.6,0.4-43.2-0.2-64.8,0.3c0.1,22.9,0,45.8,0,68.8c107.8-0.1,215.5,0.2,323.3-0.1
		c0.3-22.6,0.2-45.2,0.1-67.8c-21.5,0.2-43,0.2-64.5,0.1C699,807,699.4,784.1,699.6,761.2z"/>
	<path class="st6" d="M505.9,348.5c21.6,0.8,43.3,1.2,64.9,0c-0.1-22.6,0.6-45.2-0.5-67.8c-21.4,0.1-42.8,0-64.3,0.1
		C506,303.3,506.2,325.9,505.9,348.5z"/>
	<path class="st6" d="M635,280.5c-0.8,23.1-0.3,46.2-0.4,69.3c21.6,0.8,43.2-0.2,64.9,0.6c0.3-23.2,0.1-46.5,0.1-69.7
		C678,280.6,656.5,280.6,635,280.5z"/>
	<path class="st6" d="M958,350.1c-0.1,22.6-0.2,45.1,0,67.7c21.7-0.5,43.3,0.5,65-0.5c-0.3-22.4,0-44.7-0.2-67.1
		C1001.2,349.6,979.6,349.7,958,350.1z"/>
	<path class="st6" d="M182.3,487.5c0-23,0.1-46-0.1-68.9c-21.4-0.2-42.8-0.1-64.2,0c0,22.9,0,45.9,0,68.9
		C139.5,487.5,160.9,487.2,182.3,487.5z"/>
	<path class="st6" d="M1023,487.4c21.4-0.1,42.7-0.1,64.1,0.1c0-23,0-46,0-69c-21.4,0-42.8-0.1-64.2,0.1
		C1022.8,441.5,1022.6,464.4,1023,487.4z"/>
	<path class="st6" d="M440.8,555.7c0,23.1,0,46.1,0,69.2c21.5-0.3,43,0.3,64.4-0.3c1.1-14.8,0.1-29.7,0.5-44.6
		c-0.1-7.6,0.7-15.5-1.5-22.9c-20.5-3.6-41.7,0-62.5-1.7c-1.5-22.6,0.5-45.3-1-67.9c-21.4-1-42.8-0.2-64.2-0.4c0,22.9,0,45.7,0,68.6
		C398,555.7,419.4,555.7,440.8,555.7z"/>
	<path class="st6" d="M764.6,487.5c-1.1,22.8,0.7,45.6-0.9,68.3c-21,1.6-42.1-0.7-63.2,1.1c-1,22.4-0.8,44.9-0.1,67.3
		c21.3,0.3,42.5-0.2,63.8,0.3c-0.2-22.7,0-45.4-0.1-68.1c21.4-0.1,42.9,0.1,64.3-0.1c0.2-23,0.1-46.1,0.1-69.1
		C807.3,487.3,786,486.6,764.6,487.5z"/>
	<path class="st6" d="M246.4,693c-21.4-0.6-42.8,0-64.2-0.3c-0.2-22.7,0.1-45.5-0.2-68.2c-15.9-0.4-31.8-0.1-47.7-0.4
		c-5.6-0.1-11.1,0.7-16.6,1.8c0.6,22.5,0.1,45,0.3,67.5c21.4,0.1,42.8-0.1,64.1,0.1c0.2,22.9,0.1,45.9,0.1,68.8
		c0,22-0.1,44.1,0,66.1c21.4,0,42.8,0.1,64.1-0.1C246.6,783.2,246.7,738.1,246.4,693z"/>
	<path class="st6" d="M1023,624.4c-0.1,22.5-0.1,45,0,67.5c21.4,0.1,42.8,0,64.2,0c0-22.5,0-45,0-67.5
		C1065.7,624,1044.3,624.1,1023,624.4z"/>
	<path class="st6" d="M570.4,693.7c-21.6-0.2-43.3-1-64.9-0.1c-0.1,22.5,0,45,0.2,67.6c21.7-0.5,43.3,0.5,65,0.2
		C570.7,738.8,570.8,716.2,570.4,693.7z"/>
	<path class="st6" d="M698.1,761.2c0.7-22.5,0.8-45,0-67.4c-21.2-0.7-42.5-0.2-63.7-0.3c0,22.5,0,45.1,0,67.6
		C655.7,761.1,676.9,761,698.1,761.2z"/>
	<path class="st6" d="M958.6,692.8c-0.4,45.6,0,91.1-0.1,136.7c21.4,0.9,42.8,0.1,64.2,0.4c0.2-23.4,0-46.8,0.1-70.1
		c0-22.3,0-44.6,0-66.8C1001.4,692.5,980,692.7,958.6,692.8z"/>
	<path class="st6" d="M311.4,759.9c0.5,23,0,46,0.2,69c21.6,0.1,43.2,0.2,64.8,0.1c0.1-23.1,0.2-46.1,0-69.2
		C354.8,759.9,333.1,759.8,311.4,759.9z"/>
	<path class="st6" d="M828.7,829.7c21.6,0.3,43.2,0,64.8,0.2c0.4-23.4,0.1-46.7,0.2-70.1c-21.6,0-43.2,0-64.8,0
		C828.5,783.1,828.6,806.4,828.7,829.7z"/>
	<path class="st6" d="M247.3,897.1c21.3,0.3,42.7,0,64,0.2c0.4-22.7,0-45.5,0.2-68.2c-21.3-0.3-42.6,0-63.8-0.2
		C246.7,851.6,247.4,874.4,247.3,897.1z"/>
	<path class="st6" d="M893.8,829.8c-0.3,22.6-0.4,45.2,0,67.8c21.3-0.3,42.6,0.1,63.9-0.2c0.5-22.5,0.2-45,0.3-67.5
		C936.6,829.8,915.2,829.9,893.8,829.8z"/>
	<path class="st6" d="M440.6,897.4c-43,0.1-86,0-129,0.1c-0.3,22.6-0.2,45.3,0,67.9c21.6-1,43.3-0.2,65-0.5c21.3-0.2,42.7-0.1,64,0
		C440.9,942.4,440.9,919.9,440.6,897.4z"/>
	<path class="st6" d="M764.3,897.9c0.1,22.4-0.2,44.8,0.1,67.2c21.3-0.1,42.7,0.1,64-0.1c21.6-0.2,43.1,0,64.7-0.1
		c-0.3-22.4,0.3-44.8-0.3-67.2C850.1,897.8,807.2,897.3,764.3,897.9z"/>
	<path class="st6" d="M441.1,965.5c-0.1,22.7,0.1,45.4-0.1,68.1c107.7,0.2,215.4,0.1,323.1,0c-0.2-22.7,0-45.5-0.1-68.2
		C656.4,965.3,548.8,965.2,441.1,965.5z"/>
	<path class="st7" d="M441.1,350c0,22.8,0.1,45.5,0,68.3c21.6,0,43.2,0.1,64.7-0.1c0-22.8-0.1-45.6,0.1-68.4
		C484.3,349.5,462.7,349,441.1,350z"/>
	<path class="st7" d="M699.4,350.3c-0.3,22.6-0.1,45.2-0.1,67.8c21.6,0.3,43.1,0.1,64.7,0.1c-0.1-22.5,0.1-45-0.1-67.5
		C742.4,350.1,720.9,350.8,699.4,350.3z"/>
	<path class="st7" d="M634.9,486.9c0-22.9,0.1-45.8-0.1-68.8c-21.5,0-42.9-0.2-64.4,0.1c-0.3,22.9-0.1,45.8-0.1,68.7
		c-21.4,0.1-42.9,0-64.3,0c-0.7,22.8-0.1,45.7-0.3,68.6c21.5,0,43,0,64.5,0c0.1,23,0,46,0,68.9c21.4,0.2,42.7,0.1,64.1,0.1
		c0.1-22.8,0.1-45.6,0-68.3c21.7-0.6,43.5,0,65.2-0.3c-0.1-23,0.5-46-0.3-69C677.8,487.1,656.3,487.1,634.9,486.9z"/>
	<path class="st7" d="M376.6,692c21.4,0,42.8,0,64.3,0.1c0-22.4,0-44.8,0-67.2c0-23.1,0-46.2,0-69.2c-21.4,0-42.8,0-64.2,0
		c0-22.9,0-45.7,0-68.6c-21.6,0-43.2,0-64.7,0c0,22.9-0.5,45.8,0.3,68.7c21.4,0.4,42.9-0.6,64.3,0.5c0.2,45-0.1,90.1,0.1,135.1
		c-21.6,1.8-43.4,0.2-65.1,0.9c0,22.5-0.2,45.1,0.1,67.6c21.7-0.1,43.4,0,65.1-0.1C376.5,737.2,376.4,714.6,376.6,692z"/>
	<path class="st7" d="M829.5,692.2c-0.6-7.5-0.8-15-0.6-22.5c0.2-37.7-0.1-75.4,0.1-113.2c21.5-0.4,43,0.1,64.5-0.2
		c0.3-23.1,0.2-46.2,0-69.2c-21.6,0-43.2,0-64.8,0c0,23.1,0.1,46.1-0.1,69.1c-21.4,0.2-42.9,0-64.3,0.1c0,22.7-0.1,45.4,0.1,68.1
		c0.1,22.6,0,45.2,0.1,67.8c21.5,0,43,0,64.4,0c0,22.5,0.1,45.1,0,67.6c21.6,0,43.2,0,64.8,0c0.1-22.5,0.2-45,0.1-67.6
		C872.3,692.1,850.9,692.3,829.5,692.2z"/>
	<path class="st7" d="M634.4,761.1c0-22.6,0-45.1,0-67.6c-21.3,0-42.7,0.4-64,0.2c0.4,22.6,0.2,45.1,0.3,67.7
		C592,760.8,613.2,761.3,634.4,761.1z"/>
	<path class="st7" d="M505.7,761.2c-21.6,0.2-43.3,0.1-64.9,0.3c0,22.5-0.1,45,0,67.5c21.6-0.4,43.2,0.1,64.8-0.3
		C506.1,806.2,505.9,783.7,505.7,761.2z"/>
	<path class="st7" d="M764.1,761.3c-21.5-0.1-43,0.1-64.5-0.1c-0.2,22.9-0.5,45.8,0.1,68.7c21.5,0.1,43,0.1,64.5-0.1
		C763.9,806.9,764.2,784.1,764.1,761.3z"/>
</g>
</svg>
