<?xml version="1.0" encoding="utf-8"?>
<!-- Generator: Adobe Illustrator 21.0.0, SVG Export Plug-In . SVG Version: 6.00 Build 0)  -->
<svg version="1.1" id="Capa_1" xmlns:sketch="http://www.bohemiancoding.com/sketch/ns"
	 xmlns="http://www.w3.org/2000/svg" xmlns:xlink="http://www.w3.org/1999/xlink" x="0px" y="0px" viewBox="0 0 234 102"
	 style="enable-background:new 0 0 234 102;" xml:space="preserve">
<style type="text/css">
	.st0{fill:#993333;}
	.st1{fill:#FDE9A6;}
	.st2{fill:#FAD14A;}
	.st3{fill:#FBDB72;}
	.st4{fill:#FEF4D3;}
	.st5{opacity:0.74;fill:#FEF4D3;enable-background:new    ;}
	.st6{fill:#F9C31F;}
	.st7{fill:#FE9C31;}
</style>
<title>download 3</title>
<desc>Created with Sketch.</desc>
<g id="_x23_993333ff">
	<path class="st0" d="M40.3,27.7c11.6,0,23.3,0,34.9,0c0,5.2,0,10.3,0,15.5c-1.3,0-2.6,0-3.9,0c0,5.2,0,10.3,0,15.5
		c-5.2,0-10.3,0-15.5,0c0,5.2,0,10.3,0,15.5c-5.2,0-10.3,0-15.5,0C40.3,58.8,40.3,43.2,40.3,27.7 M44.2,31.6c0,1.9,0,3.7,0,5.6
		c0,5.2,0,10.4,0,15.6c0,4.6,0,9.1,0,13.7c2.6,0,5.2,0,7.8,0c0-4.6,0-9.2,0-13.8c0-0.6,0-1.2,0-1.8c5.2,0,10.3,0,15.5,0
		c0-1.3,0-2.6,0-3.9c-5.2,0-10.3,0-15.5,0c0-2.6,0-5.2,0-7.7c6.5,0,12.9,0,19.4,0c0-0.7,0-1.4,0-2.2c0-1.7,0-3.4,0-5.1
		c0-0.1,0-0.4,0-0.5c-0.4,0-0.8,0-1.2,0c-6.9,0-13.8,0-20.7,0c-1.4,0-2.8,0-4.2,0C44.9,31.6,44.5,31.6,44.2,31.6z"/>
	<path class="st0" d="M77.2,27.7c10.3,0,20.7,0,31,0c0,1.3,0,2.6,0,3.9c1.3,0,2.6,0,3.9,0c0,1.3,0,2.6,0,3.9c1.3,0,2.6,0,3.9,0
		c0,11.6,0,23.3,0,34.9c-1.3,0-2.6,0-3.9,0c0,1.3,0,2.6,0,3.9c-3.9,0-7.8,0-11.6,0c0-1.3,0-2.6,0-3.9c-1.3,0-2.6,0-3.9,0
		c0-1.3,0-2.6,0-3.9c-1.3,0-2.6,0-3.9,0c0,2.6,0,5.2,0,7.7c-5.2,0-10.3,0-15.5,0C77.2,58.8,77.2,43.2,77.2,27.7 M81,31.6
		c0,0.1,0,0.3,0,0.4c0,1.7,0,3.5,0,5.2c0,1.7,0,3.4,0,5.2c0,3.5,0,7,0,10.4c0,4.6,0,9.1,0,13.7c2.6,0,5.2,0,7.8,0
		c0-3.9,0-7.7,0-11.6c2.6,0,5.2,0,7.8,0c0,1.3,0,2.6,0,3.9c1.3,0,2.6,0,3.9,0c0,1.3,0,2.6,0,3.9c1.3,0,2.6,0,3.8,0
		c0,1.3,0,2.6,0,3.9c1.3,0,2.6,0,3.9,0c0-1.3,0-2.5,0-3.8l0.1-0.1c1.3,0,2.5,0,3.8,0c0-1.3,0-2.6,0-3.9c-1.3,0-2.6,0-3.9,0
		c-0.1-1.3,0-2.6,0-3.9c-1.3,0-2.6,0-3.9,0c0-0.7,0-1.4,0-2.1c0-0.6,0-1.2,0-1.8c1.3,0,2.6,0,3.9,0c0-1.3,0-2.6,0-3.9
		c1.3,0,2.6,0,3.8,0c0.1-1.6,0-3.2,0-4.8c0-1,0-2,0-3c-0.1,0-0.4,0-0.5,0c-1.1,0-2.3,0.1-3.4,0c0-0.7,0-1.4,0-2.2c0-0.6,0-1.1,0-1.7
		c-1.3,0-2.6,0-3.9,0c0-1.1,0-2.3,0-3.4c0-0.1,0-0.4,0-0.5c-3.1,0-6.1,0-9.2,0c-3.9,0-7.8,0-11.7,0C82.6,31.6,81.8,31.6,81,31.6z"/>
	<path class="st0" d="M129.5,27.7c6.5,0,12.9,0,19.4,0c0,1.3,0,2.6,0,3.9c1.3,0,2.6,0,3.9,0c0,1.3,0,2.6,0,3.9c1.3,0,2.6,0,3.9,0
		c0,10.3,0,20.7,0,31c-1.3,0-2.6,0-3.9,0c0,1.3,0,2.6,0,3.9c-1.3,0-2.6,0-3.9,0c0,1.3,0,2.6,0,3.9c-7.8,0-15.5,0-23.3,0
		c0-1.3,0-2.6,0-3.9c-1.3,0-2.6,0-3.9,0c0-1.3,0-2.6,0-3.9c-1.3,0-2.6,0-3.9,0c0-9.1,0-18.1,0-27.1c1.3,0,2.6,0,3.9,0
		c0-1.3,0-2.6,0-3.9c1.3,0,2.6,0,3.9,0c0-1.3,0-2.6,0-3.9c1.3,0,2.6,0,3.9,0C129.5,30.3,129.5,29,129.5,27.7 M133.3,31.6
		c0,0.1,0,0.3,0,0.4c0,1.2,0,2.3,0,3.5c-1.3,0-2.6,0-3.9,0c0,0.6,0,1.2,0,1.8c0,0.7,0,1.4,0,2.1c-1.3,0-2.6,0-3.9,0c0,1,0,2,0,3
		c0,0.3,0,0.6,0,0.8c-1.3,0.1-2.6,0-3.9,0c0,3.1,0,6.3,0,9.4c0,2-0.1,4.1,0,6.1c1.3,0,2.6,0,3.8,0c0,1.3,0,2.6,0,3.8
		c1.3,0.1,2.6,0,3.9,0c0,1.3,0,2.6,0,3.9c5.2,0,10.3,0,15.5,0c0-1.3,0-2.6,0-3.9c1.3,0,2.5,0,3.8,0l0.1-0.1c0-1.3,0-2.5,0-3.8
		c1.3,0,2.6,0,3.9,0c0-5.4,0-10.8,0-16.2c-1.9,0-3.7,0-5.6,0c-1.4,0-2.8,0.1-4.1-0.1c-0.7-0.2-1.3,0.2-2,0.1c0,0.2,0.1,0.5,0.1,0.7
		c1.3,0,2.5,0,3.8,0c0,3.9,0,7.8,0,11.6c-1.3,0-2.6,0-3.9,0c0,1,0,2,0,3c0,0.3,0,0.6,0,0.9c-2.6,0-5.1,0-7.7,0l-0.1-0.1
		c0-1.3,0-2.5,0-3.8c-1.3,0-2.6,0-3.9,0c0-0.7,0-1.4,0-2.1c0-3.2,0-6.3,0-9.5c1.3,0,2.6,0,3.9,0c0-0.3,0-0.6,0-0.9c0-1,0-2,0-3
		c2.6,0,5.2,0,7.8,0c0,1,0,2,0,3.1c1.2,0,2.5-0.1,3.7,0c2.6,0,5.3,0,7.9,0c0-1,0-2,0-3.1c-1.3,0-2.6,0-3.9,0c0-1.3,0-2.6,0-3.9
		c-1.3,0-2.6,0-3.9,0c0-1.2,0-2.3,0-3.5c0-0.1,0-0.3,0-0.4C141.1,31.6,137.2,31.6,133.3,31.6z"/>
	<path class="st0" d="M158.5,27.7c10.3,0,20.7,0,31,0c0,1.3,0,2.6,0,3.9c1.3,0,2.6,0,3.9,0c0,5.2,0,10.3,0,15.5c1.3,0,2.6,0,3.9,0
		c0.1,6.5,0,12.9,0,19.4c-1.3,0-2.6,0-3.9,0c0,1.3,0,2.6,0,3.9c-1.3,0-2.6,0-3.9,0c0,1.3,0,2.6,0,3.9c-10.3,0-20.7,0-31,0
		C158.5,58.8,158.5,43.2,158.5,27.7 M162.4,31.6c0,0.1,0,0.4,0,0.5c0,3.4,0,6.8,0,10.3c0,1.7,0,3.5,0,5.2c0,3.4,0,6.9,0,10.3
		c0,2.9,0,5.8,0,8.6c7.8,0,15.5,0,23.3,0c0-1.3,0-2.6,0-3.9c1.3,0,2.6,0,3.9,0c0-1.3,0-2.6,0-3.8c1.2,0,2.4,0,3.7,0l0.2,0.1
		c0.1-2.6,0-5.2,0.1-7.8c-1.3,0-2.6,0-3.9,0c0-1.1,0-2.3,0-3.4c0-0.1,0-0.3,0-0.4c-1.3-0.1-2.6,0-3.9,0c0-1.3,0-2.6,0-3.9
		c1.3,0,2.6,0,3.9,0c0-0.3,0-0.6,0-0.9c0-2.3,0-4.6,0-6.9c-1.3,0-2.6,0-3.9,0c0-1.1,0-2.3,0-3.4c0-0.1,0-0.4,0-0.5
		c-3.3,0-6.7,0-10,0C171.2,31.6,166.8,31.6,162.4,31.6z"/>
	<path class="st0" d="M88.8,39.4c2.1,0,4.1,0,6.2,0c3.1,0,6.2,0,9.3,0c0,1,0,2,0,3c0,1.6,0,3.2,0,4.8c-1.3,0-2.6,0-3.8,0
		c-0.1,1.3,0,2.6,0,3.9c-2,0-4,0-6,0c-1.9,0.2-3.7-0.1-5.6,0c0-2.9,0-5.7,0-8.6C88.8,41.4,88.8,40.4,88.8,39.4z"/>
	<path class="st0" d="M170.2,39.4c3.9,0,7.8,0,11.6,0c0,1,0,2,0,3c0,1.6,0,3.2,0,4.8c-0.6,0-1.3,0-1.9,0c-3.2,0-6.4,0-9.7,0
		c-0.1-1.6,0-3.2,0-4.8C170.2,41.4,170.2,40.4,170.2,39.4z"/>
	<path class="st0" d="M170.2,51c3.9,0,7.8,0,11.6,0c0,2.3,0,4.6,0,6.9c0,0.3,0,0.6,0,0.9c-3.9,0-7.8,0-11.6,0c0-0.3,0-0.6,0-0.9
		C170.1,55.6,170.1,53.3,170.2,51z"/>
</g>
<g id="_x23_fde9a6ff">
	<path class="st1" d="M44.2,31.6c0.4,0,0.7,0,1.1,0c0,0.1,0,0.3,0.1,0.4c1.4,0,2.7,0,4.1,0c0-0.1,0.1-0.3,0.1-0.4
		c6.9,0,13.8,0,20.7,0c0,0.1,0,0.3,0,0.4c-5.5-0.1-11-0.1-16.5,0c-0.3,1.6,0.1,3.3-0.2,4.9c-1.3-0.1-2.6,0-3.9,0
		c-0.1,0.1-0.2,0.2-0.2,0.3c-1.7,0-3.5,0-5.2,0C44.2,35.3,44.2,33.5,44.2,31.6z"/>
	<path class="st1" d="M83.4,31.6c3.9,0,7.8,0,11.7,0c0,0.1,0,0.4,0,0.5c-1.3,0-2.7,0-4,0c-2.6-0.2-5.2,0.1-7.8-0.1
		C83.3,31.9,83.4,31.7,83.4,31.6z"/>
	<path class="st1" d="M133.3,31.6c3.9,0,7.7,0,11.6,0c0,0.1,0,0.3,0,0.4c-3.9,0-7.8,0-11.6,0C133.4,31.9,133.4,31.7,133.3,31.6z"/>
	<path class="st1" d="M175.6,31.6c3.3,0,6.7,0,10,0c0,0.1,0,0.4,0,0.5c-3.4,0-6.7,0-10.1,0C175.6,32,175.6,31.7,175.6,31.6z"/>
	<path class="st1" d="M107.5,37.2c0.2,0,0.4,0,0.7,0c0,0.7,0,1.4,0,2.2c1.1,0.1,2.3,0,3.4,0c0,1,0,2,0,3c-1.4,0-2.8,0-4.1,0
		C107.6,40.6,107.5,38.9,107.5,37.2z"/>
	<path class="st1" d="M181.8,42.4c2.6,0,5.2,0,7.8,0c0,0.3,0,0.6,0,0.9c-1.3,0-2.6,0-3.9,0c0,1.3,0,2.6,0,3.9c1.3,0,2.6,0,3.9,0
		c0,0.1,0,0.3,0,0.4c-3.2,0-6.5,0-9.7,0c0-0.1,0-0.3,0-0.5c0.6,0,1.3,0,1.9,0C181.8,45.5,181.8,44,181.8,42.4z"/>
</g>
<g id="_x23_fffffeff">
	<path class="st1" d="M45.3,31.6c1.4,0,2.8,0,4.2,0c0,0.1-0.1,0.3-0.1,0.4c-1.4,0-2.7,0-4.1,0C45.3,31.9,45.3,31.7,45.3,31.6z"/>
	<path class="st1" d="M81,32c0.7,0,1.5,0,2.2,0c2.6,0.2,5.2-0.1,7.8,0.1c1.3,0,2.7,0,4,0c3.1,0.1,6.2-0.2,9.2,0c0,1.1,0,2.3,0,3.4
		c1.3,0,2.6,0,3.9,0c0,0.6,0,1.1,0,1.7c-0.2,0-0.4,0-0.7,0c-4.1,0-8.3,0-12.4,0c-4.7,0-9.4,0-14.1,0C81,35.5,81,33.7,81,32z"/>
	<path class="st1" d="M133.4,32c3.9,0,7.8,0,11.6,0c0,1.2,0,2.3,0,3.5c1.3,0,2.6,0,3.9,0c0,1.3,0,2.6,0,3.9c1.3,0,2.6,0,3.9,0
		c0,1,0,2,0,3.1c-2.6,0-5.3,0-7.9,0c-1.2-0.1-2.5-0.1-3.7,0c0.1-1,0-2,0-3.1c-2.6,0-5.2,0-7.8,0l0-0.1c1,0,2.1,0,3.1,0
		c0-0.6,0.2-1.3,0-1.9c-0.7-0.2-1.5,0-2.2-0.1c-1.6,0-3.2-0.1-4.8,0c0-0.6,0-1.2,0-1.8c1.3,0,2.6,0,3.9,0
		C133.4,34.3,133.4,33.2,133.4,32z"/>
	<path class="st1" d="M162.4,32.1c3.1,0.1,6.2-0.2,9.4,0c1.3,0,2.5,0,3.8,0c3.4,0,6.7,0,10.1,0c0,1.1,0,2.3,0,3.4c1.3,0,2.6,0,3.9,0
		c0,2.3,0,4.6,0,6.9c-2.6,0-5.2,0-7.8,0c0-1,0-2,0-3c-3.9,0-7.8,0-11.6,0c0,1,0,2,0,3c-2.6,0-5.2,0-7.7,0
		C162.4,38.9,162.4,35.5,162.4,32.1z"/>
	<path class="st1" d="M66,32.2c1.4,0,2.7,0,4.1-0.1c0,1.7-0.1,3.4,0,5c-2.8,0-5.6,0-8.4,0c0.2-0.1,0.5-0.2,0.7-0.2
		c1.1-0.1,2.3,0.1,3.4-0.1c0.2-0.3,0.1-0.6,0.2-0.9C66.1,34.8,66,33.5,66,32.2z"/>
</g>
<g id="_x23_fad14aff">
	<path class="st2" d="M70.1,31.6c0.4,0,0.8,0,1.2,0c0,0.1,0,0.4,0,0.5c-0.4,0-0.8,0-1.2-0.1C70.2,31.9,70.1,31.7,70.1,31.6z"/>
	<path class="st2" d="M81,37.2c4.7,0,9.4,0,14.1,0c0,0.7-0.1,1.4-0.1,2.2c-2.1,0-4.1,0-6.2,0c0,1,0,2,0,3c-2.6,0-5.2,0-7.8,0
		C81,40.6,81,38.9,81,37.2z"/>
</g>
<g id="_x23_fbdb72ff">
	<path class="st3" d="M81,31.6c0.8,0,1.6,0,2.4,0c-0.1,0.1-0.1,0.3-0.2,0.4c-0.7,0-1.5,0-2.2,0C81,31.9,81,31.7,81,31.6z"/>
	<path class="st3" d="M162.4,31.6c4.4,0,8.8,0,13.2,0c0,0.1,0,0.4,0,0.5c-1.3,0-2.5,0-3.8,0c-3.1-0.2-6.2,0.1-9.4,0
		C162.4,32,162.4,31.7,162.4,31.6z"/>
	<path class="st3" d="M95.1,37.2c4.1,0,8.3,0,12.4,0c0,1.7,0.1,3.4,0,5.1c-1.1,0-2.1,0-3.2,0c0-1,0-2,0-3c-3.1,0-6.2,0-9.3,0
		C95,38.6,95.1,37.9,95.1,37.2z"/>
	<path class="st3" d="M111.6,39.4c0.1,0,0.4,0,0.5,0c0,1,0,2,0,3c-0.1,0-0.3,0-0.4,0C111.6,41.4,111.6,40.4,111.6,39.4z"/>
	<path class="st3" d="M162.4,42.4c2.6,0,5.2,0,7.7,0c0,1.6,0,3.2,0,4.8c3.2,0,6.4,0,9.7,0c0,0.1,0,0.3,0,0.5c-5.8,0-11.6,0-17.5,0
		C162.4,45.8,162.4,44.1,162.4,42.4z"/>
</g>
<g id="_x23_fef4d3ff">
	<path class="st4" d="M95.1,31.6c3.1,0,6.1,0,9.2,0c0,0.1,0,0.4,0,0.5c-3.1-0.2-6.2,0-9.2,0C95.1,32,95.1,31.7,95.1,31.6z"/>
	<path class="st4" d="M53.6,32.1c5.5-0.1,11-0.1,16.5,0c0.4,0,0.8,0,1.2,0.1c0,1.7,0,3.4,0,5.1c-0.4,0-0.8,0-1.2,0
		c-0.1-1.7,0-3.4,0-5c-1.4,0-2.7,0.1-4.1,0.1c0,1.3,0,2.5,0,3.8c0,0.3,0,0.6-0.2,0.9c-1.1,0.2-2.3,0-3.4,0.1c-0.3,0-0.5,0.1-0.7,0.2
		c-4.1,0.1-8.3,0-12.4,0c0.1-0.1,0.2-0.2,0.2-0.3c1.3,0,2.6,0,3.9,0C53.7,35.3,53.4,33.7,53.6,32.1 M57.4,36.4
		c0.1,0.2,0.2,0.3,0.3,0.4c1.2-0.3,2.5,0,3.8-0.2c-1,0-1.9,0-2.9,0C58.2,36.6,57.9,36.3,57.4,36.4z"/>
	<path class="st4" d="M129.5,37.3c1.6-0.1,3.2,0,4.8,0c0.7,0,1.5-0.1,2.2,0.1c0.2,0.6,0.1,1.3,0,1.9c-1,0.1-2.1,0-3.1,0l0,0.1
		c0,1,0,2,0,3c-2.6,0-5.2,0-7.8,0c0-1,0-2,0-3c1.3,0,2.6,0,3.9,0C129.5,38.7,129.5,38,129.5,37.3z"/>
</g>
<g id="_x23_953232bc">
	<path class="st5" d="M57.4,36.4c0.4-0.1,0.8,0.2,1.2,0.2c1,0.1,1.9,0,2.9,0c-1.2,0.2-2.5-0.1-3.8,0.2
		C57.7,36.7,57.5,36.6,57.4,36.4z"/>
</g>
<g id="_x23_f9c31fff">
	<path class="st6" d="M44.2,37.2c1.7,0,3.5,0,5.2,0c4.1,0,8.3,0,12.4,0c2.8,0,5.6,0,8.4,0c0.4,0,0.8,0,1.2,0c0,0.7,0,1.4,0,2.2
		c-6.5,0-12.9,0-19.4,0c0,2.6,0,5.2,0,7.7c5.2,0,10.3,0,15.5,0c0,1.3,0,2.6,0,3.9c-5.2,0-10.3,0-15.5,0c0,0.6,0,1.2,0,1.8
		c-2.6,0-5.2-0.1-7.8,0.1C44.2,47.6,44.2,42.4,44.2,37.2z"/>
	<path class="st6" d="M104.3,42.3c1.1,0,2.1,0,3.2,0c1.4,0,2.8,0,4.1,0c0.1,0,0.3,0,0.4,0c0,1.6,0.1,3.2,0,4.8c-1.3-0.1-2.6,0-3.8,0
		c0,1.3,0,2.6,0,3.9c-1.3,0-2.6,0-3.9,0c0,0.6,0,1.2,0,1.8c-7.8,0-15.5-0.1-23.3,0c0-3.5,0-7,0-10.4c2.6,0,5.2,0,7.8,0
		c0,2.9,0,5.7,0,8.6c1.9-0.1,3.7,0.2,5.6,0c2,0,4,0,6,0c0-1.3,0-2.6,0-3.9c1.3,0,2.6,0,3.8,0C104.3,45.5,104.3,43.9,104.3,42.3z"/>
	<path class="st6" d="M125.6,42.4c2.6,0,5.2,0,7.8,0c0,0.3,0,0.6,0,0.9c-1.3,0-2.6,0-3.9,0c0,3.2,0,6.3,0,9.5
		c-2.6-0.1-5.2,0-7.8-0.1c0-3.1,0-6.3,0-9.4c1.3,0,2.6,0,3.9,0C125.6,42.9,125.6,42.6,125.6,42.4z"/>
	<path class="st6" d="M141,42.6c0.7,0.1,1.3-0.3,2-0.1c1.4,0.2,2.8,0.1,4.1,0.1c1.9,0,3.7,0,5.6,0c0,5.4,0,10.8,0,16.2
		c0-0.3,0-0.6-0.1-0.9c-0.4-0.1-0.7-0.1-1.1-0.1c-3.5,0-6.9,0-10.4,0c0-1,0-2,0-3c1.3,0,2.6,0,3.9,0c0-3.9,0-7.8,0-11.6
		c-1.3,0-2.5,0-3.8,0C141.1,43.1,141.1,42.7,141,42.6z"/>
	<path class="st6" d="M162.4,47.5c5.8,0,11.6,0,17.5,0c3.2,0,6.5,0,9.7,0c0,1.1,0,2.3,0,3.4c1.3,0,2.6,0,3.9,0
		c0,2.6,0.1,5.2-0.1,7.8l-0.2-0.1c-0.1-0.2-0.1-0.5-0.2-0.7c-0.3-0.2-0.7-0.1-1-0.1c-3.4,0-6.8,0-10.2,0c0-2.3,0-4.6,0-6.9
		c-3.9,0-7.8,0-11.6,0c0,2.3,0,4.6,0,6.9c-2.6,0-5.2-0.1-7.7,0C162.4,54.4,162.4,51,162.4,47.5z"/>
</g>
<g id="_x23_fe9c31ff">
	<path class="st7" d="M121.7,52.7c2.6,0.1,5.2,0,7.8,0.1c0,0.7,0,1.4,0,2.1c1.3,0,2.6,0,3.9,0c0,1.3,0,2.5,0,3.8l0.1,0.1
		c2.6,0,5.1,0,7.7,0c0-0.3,0-0.6,0-0.9c3.5-0.1,6.9,0,10.4,0c0.4,0,0.7,0,1.1,0.1c0.1,0.3,0.1,0.6,0.1,0.9c-1.3,0-2.6,0-3.9,0
		c0,1.3,0,2.5,0,3.8l-0.1,0.1c-1.3,0-2.5,0-3.8,0c0,1.3,0,2.6,0,3.9c-5.2,0-10.3,0-15.5,0c0-1.3,0-2.6,0-3.9c-1.3,0-2.6,0-3.9,0
		c0-1.3,0-2.6,0-3.8c-1.3,0-2.6,0-3.8,0C121.7,56.7,121.7,54.7,121.7,52.7z"/>
	<path class="st7" d="M44.2,52.8c2.6-0.2,5.2-0.1,7.8-0.1c0,4.6,0,9.2,0,13.8c-2.6,0-5.2,0-7.8,0C44.2,61.9,44.2,57.4,44.2,52.8z"/>
	<path class="st7" d="M81,52.8c7.8-0.1,15.5,0,23.3,0c0,0.7,0,1.4,0,2.1c1.3,0,2.6,0,3.9,0c0.1,1.3,0,2.6,0,3.9c1.3,0,2.6,0,3.9,0
		c0,1.3,0,2.6,0,3.9c-1.3,0-2.5,0-3.8,0l-0.1,0.1c0,1.3,0,2.5,0,3.8c-1.3,0-2.6,0-3.9,0c0-1.3,0-2.6,0-3.9c-1.3,0-2.6,0-3.8,0
		c-0.1-1.3,0-2.6,0-3.9c-1.3,0-2.6,0-3.9,0c0-1.3,0-2.6,0-3.9c-2.6,0-5.2,0-7.8,0c0,3.9,0,7.7,0,11.6c-2.6,0-5.2,0-7.8,0
		C81.1,61.9,81,57.4,81,52.8z"/>
	<path class="st7" d="M162.4,57.9c2.6-0.1,5.2,0,7.7,0c0,0.3,0,0.6,0,0.9c3.9,0,7.8,0,11.6,0c0-0.3,0-0.6,0-0.9
		c3.4-0.1,6.8,0,10.2,0c0.3,0,0.7,0,1,0.1c0.1,0.2,0.1,0.5,0.2,0.7c-1.2,0.1-2.4,0-3.7,0c0,1.3,0,2.6,0,3.8c-1.3,0.1-2.6,0-3.9,0
		c0,1.3,0,2.6,0,3.9c-7.8,0-15.5,0-23.3,0C162.4,63.6,162.4,60.7,162.4,57.9z"/>
</g>
<rect x="141.1" y="42.3" class="st1" width="11.7" height="0.4"/>
</svg>
