<?xml version="1.0" encoding="utf-8"?>
<!-- Generator: Adobe Illustrator 21.0.0, SVG Export Plug-In . SVG Version: 6.00 Build 0)  -->
<svg version="1.1" id="Capa_1" xmlns:sketch="http://www.bohemiancoding.com/sketch/ns"
	 xmlns="http://www.w3.org/2000/svg" xmlns:xlink="http://www.w3.org/1999/xlink" x="0px" y="0px" viewBox="0 0 234 102"
	 style="enable-background:new 0 0 234 102;" xml:space="preserve">
<style type="text/css">
	.st0{fill:#993333;}
	.st1{fill:#FDE9A6;}
	.st2{fill:#FFFFFE;}
	.st3{fill:#FAD14A;}
	.st4{fill:#FBDB72;}
	.st5{fill:#FEF4D3;}
	.st6{opacity:0.74;fill:#953232;enable-background:new    ;}
	.st7{fill:#F9C31F;}
	.st8{fill:#FE9C31;}
</style>
<title>download 3</title>
<desc>Created with Sketch.</desc>
<g id="_x23_993333ff">
	<path class="st0" d="M53.5,28.8c9.5,0,19,0,28.5,0c0,4.2,0,8.4,0,12.7c-1.1,0-2.1,0-3.2,0c0,4.2,0,8.4,0,12.7c-4.2,0-8.4,0-12.7,0
		c0,4.2,0,8.4,0,12.6c-4.2,0-8.4,0-12.7,0C53.5,54.2,53.5,41.5,53.5,28.8 M56.7,32c0,1.5,0,3,0,4.6c0,4.2,0,8.5,0,12.7
		c0,3.7,0,7.4,0,11.2c2.1,0,4.2,0,6.3,0c0-3.7,0-7.5,0-11.2c0-0.5,0-1,0-1.4c4.2,0,8.4,0,12.6,0c0-1.1,0-2.1,0-3.2
		c-4.2,0-8.4,0-12.6,0c0-2.1,0-4.2,0-6.3c5.3,0,10.5,0,15.8,0c0-0.6,0-1.2,0-1.8c0-1.4,0-2.8,0-4.2c0-0.1,0-0.3,0-0.4
		c-0.3,0-0.7,0-1,0c-5.6,0-11.2,0-16.9,0c-1.1,0-2.3,0-3.4,0C57.3,32,57,32,56.7,32z"/>
	<path class="st0" d="M83.6,28.8c8.4,0,16.9,0,25.3,0c0,1.1,0,2.1,0,3.2c1.1,0,2.1,0,3.2,0c0,1.1,0,2.1,0,3.2c1.1,0,2.1,0,3.2,0
		c0,9.5,0,19,0,28.5c-1.1,0-2.1,0-3.2,0c0,1.1,0,2.1,0,3.2c-3.2,0-6.3,0-9.5,0c0-1,0-2.1,0-3.2c-1.1,0-2.1,0-3.2,0
		c0-1.1,0-2.1,0-3.2c-1.1,0-2.1,0-3.2,0c0,2.1,0,4.2,0,6.3c-4.2,0-8.4,0-12.7,0C83.6,54.2,83.6,41.5,83.6,28.8 M86.8,32
		c0,0.1,0,0.2,0,0.3c0,1.4,0,2.8,0,4.2c0,1.4,0,2.8,0,4.2c0,2.8,0,5.7,0,8.5c0,3.7,0,7.4,0,11.2c2.1,0,4.2,0,6.3,0
		c0-3.2,0-6.3,0-9.5c2.1,0,4.2,0,6.3,0c0,1,0,2.1,0,3.2c1.1,0,2.1,0,3.2,0c0,1.1,0,2.1,0,3.2c1,0,2.1,0,3.1,0c0,1.1,0,2.1,0,3.2
		c1.1,0,2.1,0,3.2,0c0-1,0-2.1,0-3.1l0.1-0.1c1,0,2.1,0,3.1,0c0-1.1,0-2.1,0-3.2c-1,0-2.1,0-3.1,0c0-1.1,0-2.1,0-3.2
		c-1.1,0-2.1,0-3.2,0c0-0.6,0-1.1,0-1.7c0-0.5,0-1,0-1.5c1.1,0,2.1,0,3.2,0c0-1.1,0-2.1,0-3.2c1,0,2.1,0,3.1,0c0.1-1.3,0-2.6,0-3.9
		c0-0.8,0-1.6,0-2.4c-0.1,0-0.3,0-0.4,0c-0.9,0-1.9,0-2.8,0c0-0.6,0-1.2,0-1.8c0-0.5,0-0.9,0-1.4c-1.1,0-2.1,0-3.2,0
		c0-0.9,0-1.9,0-2.8c0-0.1,0-0.3,0-0.4c-2.5,0-5,0-7.5,0c-3.2,0-6.3,0-9.5,0C88.1,32,87.4,32,86.8,32z"/>
	<path class="st0" d="M126.3,28.8c5.3,0,10.6,0,15.8,0c0,1.1,0,2.1,0,3.2c1.1,0,2.1,0,3.2,0c0,1.1,0,2.1,0,3.2c1.1,0,2.1,0,3.2,0
		c0,8.4,0,16.9,0,25.3c-1.1,0-2.1,0-3.2,0c0,1,0,2.1,0,3.1c-1.1,0-2.1,0-3.2,0c0,1.1,0,2.1,0,3.2c-6.3,0-12.7,0-19,0
		c0-1.1,0-2.1,0-3.2c-1.1,0-2.1,0-3.2,0c0-1.1,0-2.1,0-3.2c-1.1,0-2.1,0-3.2,0c0-7.4,0-14.8,0-22.2c1.1,0,2.1,0,3.2,0
		c0-1.1,0-2.1,0-3.2c1.1,0,2.1,0,3.2,0c0-1.1,0-2.1,0-3.2c1.1,0,2.1,0,3.2,0C126.3,30.9,126.3,29.9,126.3,28.8 M129.5,32
		c0,0.1,0,0.2,0,0.3c0,0.9,0,1.9,0,2.8c-1.1,0-2.1,0-3.2,0c0,0.5,0,1,0,1.5c0,0.6,0,1.1,0,1.7c-1.1,0-2.1,0-3.2,0c0,0.8,0,1.6,0,2.4
		c0,0.2,0,0.5,0,0.7c-1.1,0.1-2.1,0-3.2,0c0,2.6,0,5.1,0,7.7c0,1.7-0.1,3.3,0,5c1,0,2.1,0,3.1,0c0,1,0,2.1,0,3.1
		c1.1,0.1,2.1,0,3.2,0c0,1.1,0,2.1,0,3.2c4.2,0,8.4,0,12.6,0c0-1.1,0-2.1,0-3.2c1,0,2.1,0,3.1,0l0.1-0.1c0-1,0-2.1,0-3.1
		c1.1,0,2.1,0,3.2,0c0-4.4,0-8.8,0-13.2c-1.5,0-3,0-4.5,0c-1.1,0-2.3,0-3.4-0.1c-0.6-0.1-1.1,0.2-1.6,0.1c0,0.1,0.1,0.4,0.1,0.6
		c1,0,2.1,0,3.1,0c0,3.2,0,6.3,0,9.5c-1.1,0-2.1,0-3.2,0c0,0.8,0,1.6,0,2.4c0,0.2,0,0.5,0,0.7c-2.1,0-4.2,0-6.3,0l-0.1-0.1
		c0-1,0-2.1,0-3.1c-1.1,0-2.1,0-3.2,0c0-0.6,0-1.2,0-1.7c0-2.6,0-5.2,0-7.8c1.1,0,2.1,0,3.2,0c0-0.2,0-0.5,0-0.7c0-0.8,0-1.6,0-2.5
		c2.1,0,4.2,0,6.3,0c0,0.8,0,1.7,0,2.5c1,0,2-0.1,3,0c2.2,0,4.3,0,6.5,0c0-0.8,0-1.7,0-2.5c-1.1,0-2.1,0-3.2,0c0-1.1,0-2.1,0-3.2
		c-1.1,0-2.1,0-3.2,0c0-0.9,0-1.9,0-2.8c0-0.1,0-0.2,0-0.3C135.8,32,132.7,32,129.5,32z"/>
	<path class="st0" d="M150.1,28.8c8.4,0,16.9,0,25.3,0c0,1.1,0,2.1,0,3.2c1.1,0,2.1,0,3.2,0c0,4.2,0,8.4,0,12.7c1,0,2.1,0,3.1,0
		c0,5.3,0,10.6,0,15.8c-1.1,0-2.1,0-3.2,0c0,1.1,0,2.1,0,3.2c-1,0-2.1,0-3.1,0c0,1.1,0,2.1,0,3.2c-8.4,0-16.9,0-25.3,0
		C150,54.2,150.1,41.5,150.1,28.8 M153.2,32c0,0.1,0,0.3,0,0.4c0,2.8,0,5.6,0,8.4c0,1.4,0,2.8,0,4.2c0,2.8,0,5.6,0,8.4
		c0,2.4,0,4.7,0,7.1c6.3,0,12.7,0,19,0c0-1.1,0-2.1,0-3.2c1.1,0,2.1,0,3.2,0c0-1,0-2.1,0-3.1c1,0,2,0,3,0l0.1,0.1
		c0.1-2.1,0-4.3,0.1-6.4c-1.1,0-2.1,0-3.2,0c0-0.9,0-1.9,0-2.8c0-0.1,0-0.3,0-0.4c-1.1,0-2.1,0-3.2,0c0-1,0-2.1,0-3.2
		c1.1,0,2.1,0,3.2,0c0-0.2,0-0.5,0-0.7c0-1.9,0-3.8,0-5.6c-1.1,0-2.1,0-3.2,0c0-0.9,0-1.9,0-2.8c0-0.1,0-0.3,0-0.4
		c-2.7,0-5.5,0-8.2,0C160.4,32,156.8,32,153.2,32z"/>
	<path class="st0" d="M93.1,38.3c1.7,0,3.4,0,5.1,0c2.5,0,5.1,0,7.6,0c0,0.8,0,1.6,0,2.4c0,1.3,0,2.6,0,3.9c-1,0-2.1,0-3.1,0
		c0,1.1,0,2.1,0,3.2c-1.6,0-3.3,0-4.9,0c-1.5,0.1-3-0.1-4.6,0c0-2.3,0-4.7,0-7C93.1,40,93.1,39.2,93.1,38.3z"/>
	<path class="st0" d="M159.5,38.3c3.2,0,6.3,0,9.5,0c0,0.8,0,1.6,0,2.5c0,1.3,0,2.6,0,3.9c-0.5,0-1.1,0-1.6,0c-2.6,0-5.3,0-7.9,0
		c-0.1-1.3,0-2.6,0-3.9C159.5,40,159.5,39.1,159.5,38.3z"/>
	<path class="st0" d="M159.6,47.8c3.2,0,6.3,0,9.5,0c0,1.9,0,3.7,0,5.6c0,0.2,0,0.5,0,0.7c-3.2,0-6.3,0-9.5,0c0-0.2,0-0.5,0-0.7
		C159.5,51.6,159.5,49.7,159.6,47.8z"/>
</g>
<g id="_x23_fde9a6ff">
	<path class="st1" d="M56.7,32c0.3,0,0.6,0,0.9,0c0,0.1,0,0.2,0.1,0.3c1.1,0,2.2,0,3.3,0c0-0.1,0-0.2,0.1-0.3c5.6,0,11.2,0,16.9,0
		c0,0.1,0,0.3,0,0.4c-4.5,0-9-0.1-13.5,0c-0.2,1.3,0.1,2.7-0.1,4c-1.1-0.1-2.1,0-3.2,0c0,0.1-0.1,0.2-0.2,0.3c-1.4,0-2.8,0-4.2,0
		C56.7,35,56.7,33.5,56.7,32z"/>
	<path class="st1" d="M88.7,32c3.2,0,6.3,0,9.5,0c0,0.1,0,0.3,0,0.4c-1.1,0-2.2,0-3.3,0c-2.1-0.1-4.3,0.1-6.4,0
		C88.6,32.2,88.7,32.1,88.7,32z"/>
	<path class="st1" d="M129.5,32c3.2,0,6.3,0,9.5,0c0,0.1,0,0.2,0,0.3c-3.2,0-6.3,0-9.5,0C129.5,32.2,129.5,32.1,129.5,32z"/>
	<path class="st1" d="M164,32c2.7,0,5.5,0,8.2,0c0,0.1,0,0.3,0,0.4c-2.7,0-5.5,0-8.2,0C164,32.3,164,32.1,164,32z"/>
	<path class="st1" d="M108.4,36.6c0.2,0,0.4,0,0.5,0c0,0.6,0,1.2,0,1.8c0.9,0.1,1.9,0,2.8,0c0,0.8,0,1.6,0,2.4c-1.1,0-2.3,0-3.4,0
		C108.5,39.4,108.4,38,108.4,36.6z"/>
	<path class="st1" d="M169.1,40.8c2.1,0,4.2,0,6.3,0c0,0.2,0,0.5,0,0.7c-1.1,0-2.1,0-3.2,0c0,1.1,0,2.1,0,3.2c1.1,0,2.1,0,3.2,0
		c0,0.1,0,0.3,0,0.4c-2.6,0-5.3,0-7.9,0c0-0.1,0-0.3,0-0.4c0.5,0,1.1,0,1.6,0C169.1,43.4,169.1,42.1,169.1,40.8z"/>
</g>
<g id="_x23_fffffeff">
	<path class="st2" d="M57.6,32c1.1,0,2.3,0,3.4,0c0,0.1,0,0.2-0.1,0.3c-1.1,0-2.2,0-3.3,0C57.6,32.2,57.6,32.1,57.6,32z"/>
	<path class="st2" d="M86.8,32.3c0.6,0,1.2,0,1.8,0c2.1,0.1,4.3-0.1,6.4,0c1.1,0,2.2,0,3.3,0c2.5,0,5-0.2,7.5,0c0,0.9,0,1.9,0,2.8
		c1.1,0,2.1,0,3.2,0c0,0.5,0,0.9,0,1.4c-0.2,0-0.4,0-0.5,0c-3.4,0-6.8,0-10.1,0c-3.8,0-7.7,0-11.5,0C86.8,35.2,86.8,33.7,86.8,32.3z
		"/>
	<path class="st2" d="M129.5,32.3c3.2,0,6.3,0,9.5,0c0,0.9,0,1.9,0,2.8c1.1,0,2.1,0,3.2,0c0,1.1,0,2.1,0,3.2c1.1,0,2.1,0,3.2,0
		c0,0.8,0,1.7,0,2.5c-2.2,0-4.3,0-6.5,0c-1-0.1-2-0.1-3,0c0.1-0.8,0-1.7,0-2.5c-2.1,0-4.2,0-6.3,0l0-0.1c0.9,0,1.7,0,2.6,0
		c0-0.5,0.1-1,0-1.5c-0.6-0.1-1.2,0-1.8-0.1c-1.3,0-2.6-0.1-3.9,0c0-0.5,0-1,0-1.5c1.1,0,2.1,0,3.2,0
		C129.5,34.2,129.5,33.3,129.5,32.3z"/>
	<path class="st2" d="M153.2,32.4c2.6,0.1,5.1-0.2,7.6,0c1,0,2.1,0,3.1,0c2.7,0,5.5,0,8.2,0c0,0.9,0,1.9,0,2.8c1.1,0,2.1,0,3.2,0
		c0,1.9,0,3.8,0,5.6c-2.1,0-4.2,0-6.3,0c0-0.8,0-1.6,0-2.5c-3.2,0-6.3,0-9.5,0c0,0.8,0,1.6,0,2.5c-2.1,0-4.2,0-6.3,0
		C153.2,38,153.2,35.2,153.2,32.4z"/>
	<path class="st2" d="M74.5,32.5c1.1,0,2.2,0,3.3-0.1c0,1.4-0.1,2.7,0,4.1c-2.3,0-4.6,0-6.8,0c0.2-0.1,0.4-0.2,0.6-0.2
		c0.9,0,1.9,0.1,2.8,0c0.1-0.2,0.1-0.5,0.1-0.7C74.6,34.6,74.5,33.6,74.5,32.5z"/>
</g>
<g id="_x23_fad14aff">
	<path class="st3" d="M77.9,32c0.3,0,0.6,0,1,0c0,0.1,0,0.3,0,0.4c-0.3,0-0.6,0-1,0C77.9,32.3,77.9,32.1,77.9,32z"/>
	<path class="st3" d="M86.8,36.6c3.8,0,7.7,0,11.5,0c0,0.6-0.1,1.2-0.1,1.8c-1.7,0-3.4,0-5.1,0c0,0.8,0,1.6,0,2.5
		c-2.1,0-4.2,0-6.3,0C86.8,39.4,86.8,38,86.8,36.6z"/>
</g>
<g id="_x23_fbdb72ff">
	<path class="st4" d="M86.8,32c0.7,0,1.3,0,2,0c-0.1,0.1-0.1,0.2-0.2,0.3c-0.6,0-1.2,0-1.8,0C86.8,32.2,86.8,32.1,86.8,32z"/>
	<path class="st4" d="M153.2,32c3.6,0,7.2,0,10.8,0c0,0.1,0,0.3,0,0.4c-1,0-2.1,0-3.1,0c-2.5-0.2-5.1,0.1-7.6,0
		C153.2,32.3,153.2,32.1,153.2,32z"/>
	<path class="st4" d="M98.3,36.6c3.4,0,6.8,0,10.1,0c0,1.4,0,2.8,0,4.2c-0.9,0-1.7,0-2.6,0c0-0.8,0-1.6,0-2.4c-2.5,0-5.1,0-7.6,0
		C98.2,37.7,98.2,37.2,98.3,36.6z"/>
	<path class="st4" d="M111.7,38.3c0.1,0,0.3,0,0.4,0c0,0.8,0,1.6,0,2.4c-0.1,0-0.2,0-0.4,0C111.7,40,111.7,39.2,111.7,38.3z"/>
	<path class="st4" d="M153.2,40.8c2.1,0,4.2,0,6.3,0c0,1.3,0,2.6,0,3.9c2.6,0,5.3,0,7.9,0c0,0.1,0,0.3,0,0.4c-4.8,0-9.5,0-14.3,0
		C153.2,43.6,153.2,42.2,153.2,40.8z"/>
</g>
<g id="_x23_fef4d3ff">
	<path class="st5" d="M98.3,32c2.5,0,5,0,7.5,0c0,0.1,0,0.3,0,0.4c-2.5-0.2-5,0-7.5,0C98.2,32.3,98.3,32.1,98.3,32z"/>
	<path class="st5" d="M64.4,32.4c4.5-0.1,9-0.1,13.5,0c0.3,0,0.6,0,1,0c0,1.4,0,2.8,0,4.2c-0.3,0-0.6,0-1,0c-0.1-1.4,0-2.7,0-4.1
		c-1.1,0-2.2,0.1-3.3,0.1c0,1,0,2.1,0,3.1c0,0.2,0,0.5-0.1,0.7c-0.9,0.1-1.9,0-2.8,0c-0.2,0-0.4,0.1-0.6,0.2c-3.4,0-6.7,0-10.1,0
		c0-0.1,0.1-0.2,0.2-0.3c1.1,0,2.1,0,3.2,0C64.5,35,64.2,33.7,64.4,32.4 M67.5,35.9c0.1,0.1,0.2,0.2,0.3,0.3c1-0.2,2.1,0,3.1-0.2
		c-0.8,0-1.6,0-2.3,0C68.2,36.1,67.9,35.9,67.5,35.9z"/>
	<path class="st5" d="M126.3,36.6c1.3-0.1,2.6,0,3.9,0c0.6,0,1.2-0.1,1.8,0.1c0.2,0.5,0,1,0,1.5c-0.9,0.1-1.7,0-2.6,0l0,0.1
		c0,0.8,0,1.6,0,2.5c-2.1,0-4.2,0-6.3,0c0-0.8,0-1.6,0-2.4c1.1,0,2.1,0,3.2,0C126.3,37.8,126.3,37.2,126.3,36.6z"/>
</g>
<g id="_x23_953232bc">
	<path class="st6" d="M67.5,35.9c0.3,0,0.6,0.2,1,0.2c0.8,0,1.6,0,2.3,0c-1,0.2-2.1-0.1-3.1,0.2C67.7,36.1,67.6,36,67.5,35.9z"/>
</g>
<g id="_x23_f9c31fff">
	<path class="st7" d="M56.7,36.6c1.4,0,2.8,0,4.2,0c3.4,0,6.7,0,10.1,0c2.3,0,4.6,0,6.8,0c0.3,0,0.6,0,1,0c0,0.6,0,1.2,0,1.8
		c-5.3,0-10.5,0-15.8,0c0,2.1,0,4.2,0,6.3c4.2,0,8.4,0,12.6,0c0,1.1,0,2.1,0,3.2c-4.2,0-8.4,0-12.6,0c0,0.5,0,1,0,1.4
		c-2.1,0-4.2-0.1-6.3,0.1C56.7,45.1,56.7,40.8,56.7,36.6z"/>
	<path class="st7" d="M105.8,40.8c0.9,0,1.7,0,2.6,0c1.1,0,2.3,0,3.4,0c0.1,0,0.2,0,0.4,0c0,1.3,0,2.6,0,3.9c-1,0-2.1,0-3.1,0
		c0,1.1,0,2.1,0,3.2c-1.1,0-2.1,0-3.2,0c0,0.5,0,1,0,1.5c-6.3,0-12.7-0.1-19,0c0-2.8,0-5.7,0-8.5c2.1,0,4.2,0,6.3,0c0,2.3,0,4.7,0,7
		c1.5-0.1,3,0.1,4.6,0c1.6,0,3.3,0,4.9,0c0-1.1,0-2.1,0-3.2c1,0,2.1,0,3.1,0C105.8,43.4,105.8,42.1,105.8,40.8z"/>
	<path class="st7" d="M123.2,40.8c2.1,0,4.2,0,6.3,0c0,0.2,0,0.5,0,0.7c-1.1,0-2.1,0-3.2,0c0,2.6,0,5.2,0,7.8c-2.1-0.1-4.2,0-6.3,0
		c0-2.6,0-5.1,0-7.7c1.1,0,2.1,0,3.2,0C123.2,41.2,123.2,41,123.2,40.8z"/>
	<path class="st7" d="M135.8,40.9c0.6,0.1,1.1-0.3,1.6-0.1c1.1,0.2,2.3,0.1,3.4,0.1c1.5,0,3,0,4.5,0c0,4.4,0,8.8,0,13.2
		c0-0.2,0-0.5-0.1-0.7c-0.3-0.1-0.6-0.1-0.9-0.1c-2.8,0-5.7,0-8.5,0c0-0.8,0-1.6,0-2.4c1.1,0,2.1,0,3.2,0c0-3.2,0-6.3,0-9.5
		c-1,0-2.1,0-3.1,0C135.8,41.4,135.8,41.1,135.8,40.9z"/>
	<path class="st7" d="M153.2,45c4.8,0,9.5,0,14.3,0c2.6,0,5.3,0,7.9,0c0,0.9,0,1.9,0,2.8c1.1,0,2.1,0,3.2,0c0,2.1,0.1,4.3-0.1,6.4
		l-0.1-0.1c0-0.2-0.1-0.4-0.1-0.6c-0.3-0.1-0.6-0.1-0.8-0.1c-2.8,0-5.6,0-8.4,0c0-1.9,0-3.7,0-5.6c-3.2,0-6.3,0-9.5,0
		c0,1.9,0,3.7,0,5.6c-2.1,0-4.2-0.1-6.3,0C153.2,50.6,153.2,47.8,153.2,45z"/>
</g>
<g id="_x23_fe9c31ff">
	<path class="st8" d="M120,49.2c2.1,0.1,4.2,0,6.3,0c0,0.6,0,1.2,0,1.7c1.1,0,2.1,0,3.2,0c0,1,0,2.1,0,3.1l0.1,0.1
		c2.1,0,4.2,0,6.3,0c0-0.2,0-0.5,0-0.7c2.8,0,5.7,0,8.5,0c0.3,0,0.6,0,0.9,0.1c0.1,0.2,0.1,0.5,0.1,0.7c-1.1,0-2.1,0-3.2,0
		c0,1,0,2.1,0,3.1l-0.1,0.1c-1,0-2.1,0-3.1,0c0,1.1,0,2.1,0,3.2c-4.2,0-8.4,0-12.6,0c0-1.1,0-2.1,0-3.2c-1.1,0-2.1,0-3.2,0
		c0-1,0-2.1,0-3.1c-1,0-2.1,0-3.1,0C120,52.5,120,50.9,120,49.2z"/>
	<path class="st8" d="M56.7,49.3c2.1-0.1,4.2-0.1,6.3-0.1c0,3.7,0,7.5,0,11.2c-2.1,0-4.2,0-6.3,0C56.7,56.8,56.7,53,56.7,49.3z"/>
	<path class="st8" d="M86.8,49.3c6.3-0.1,12.7,0,19,0c0,0.6,0,1.1,0,1.7c1.1,0,2.1,0,3.2,0c0,1.1,0,2.1,0,3.2c1,0,2.1,0,3.1,0
		c0,1.1,0,2.1,0,3.2c-1,0-2.1,0-3.1,0l-0.1,0.1c0,1,0,2.1,0,3.1c-1.1,0-2.1,0-3.2,0c0-1.1,0-2.1,0-3.2c-1,0-2.1,0-3.1,0
		c-0.1-1.1,0-2.1,0-3.2c-1.1,0-2.1,0-3.2,0c0-1.1,0-2.1,0-3.2c-2.1,0-4.2,0-6.3,0c0,3.2,0,6.3,0,9.5c-2.1,0-4.2,0-6.3,0
		C86.8,56.8,86.8,53,86.8,49.3z"/>
	<path class="st8" d="M153.2,53.4c2.1-0.1,4.2,0,6.3,0c0,0.2,0,0.5,0,0.7c3.2,0,6.3,0,9.5,0c0-0.2,0-0.5,0-0.7c2.8,0,5.6,0,8.4,0
		c0.3,0,0.6,0,0.8,0.1c0.1,0.2,0.1,0.4,0.1,0.6c-1,0.1-2,0-3,0c0,1,0,2.1,0,3.1c-1.1,0.1-2.1,0-3.2,0c0,1.1,0,2.1,0,3.2
		c-6.3,0-12.7,0-19,0C153.2,58.1,153.2,55.8,153.2,53.4z"/>
</g>
</svg>
