<?xml version="1.0" encoding="utf-8"?>
<!-- Generator: Adobe Illustrator 21.0.0, SVG Export Plug-In . SVG Version: 6.00 Build 0)  -->
<svg version="1.1" id="Layer_1" xmlns="http://www.w3.org/2000/svg" xmlns:xlink="http://www.w3.org/1999/xlink" x="0px" y="0px"
	 viewBox="0 0 247 247" style="enable-background:new 0 0 247 247;" xml:space="preserve">
<style type="text/css">
	.st0{opacity:0.3;fill:url(#Oval-2_1_);enable-background:new    ;}
	.st1{fill:#253377;stroke:#647CE8;stroke-width:2;}
	.st2{fill:none;stroke:#647CE8;stroke-width:2;stroke-linecap:square;}
	.st3{fill:#1F2F7B;stroke:#12E5B6;stroke-width:2;}
	.st4{fill:none;stroke:#12E5B6;stroke-width:2;}
	.st5{fill:#F9F9F9;stroke:#12E5B6;stroke-width:2;}
	.st6{fill:#9E461B;}
	.st7{fill:#FFFFFF;}
	.st8{fill:#BD5F28;}
	.st9{fill:#F8C51D;}
	.st10{fill:#FBE638;}
	.st11{fill:#243E96;}
	.st12{fill:#F8A31A;}
	.st13{fill:#1B75BA;}
</style>
<title>bg-3</title>
<desc>Created with Sketch.</desc>
<linearGradient id="Oval-2_1_" gradientUnits="userSpaceOnUse" x1="-827.5263" y1="941.1619" x2="-827.5263" y2="940.2672" gradientTransform="matrix(247 0 0 -247 204522.5 232467)">
	<stop  offset="0" style="stop-color:#3950B5"/>
	<stop  offset="1" style="stop-color:#162360"/>
</linearGradient>
<path id="Oval-2" class="st0" d="M123.5,247c68.2,0,123.5-55.3,123.5-123.5S191.7,0,123.5,0S0,55.3,0,123.5S55.3,247,123.5,247z"/>
<path id="Combined-Shape" class="st1" d="M71,24h83.8c4.4,0,8,3.6,8,8v167.9c0,4.4-3.6,8-8,8H71c-4.4,0-8-3.6-8-8V32
	C63,27.6,66.6,24,71,24z"/>
<path id="Line" class="st2" d="M63.5,180.6h98.8"/>
<path id="Line_1_" class="st2" d="M104.1,194.3h18.7"/>
<g id="Group-3" transform="translate(125.000000, 122.000000)">
	<path id="Rectangle-path" class="st3" d="M4,37.6h66.8c2.2,0,4,1.8,4,4v57.7c0,2.2-1.8,4-4,4H4c-2.2,0-4-1.8-4-4V41.6
		C0,39.4,1.8,37.6,4,37.6z"/>
	<path id="Shape_6_" class="st4" d="M18.7,37.6V18.9c0-10.3,8.4-18.8,18.7-18.8l0,0c10.3,0,18.7,8.4,18.7,18.8v18.8"/>
	<path id="Shape_7_" class="st5" d="M36.6,65.8v9.4"/>
</g>
<g>
	<path class="st6" d="M136,83.6c0-2.1,0-4.2,0-6.3c-1,0-2,0-2.9,0c0-1,0-2.1,0-3.1c-1,0-2,0-2.9,0c0-1,0-2.1,0-3.1c-2,0-3.9,0-5.9,0
		c0-1,0-2.1,0-3.1h-20.6c0,1,0,2.1,0,3.1c-2,0-3.9,0-5.9,0c0,1,0,2.1,0,3.1c-1,0-2,0-2.9,0c0,1,0,2.1,0,3.1c-1,0-2,0-2.9,0
		c0,2.1,0,4.2,0,6.3c-1,0-2,0-2.9,0v18.8c1,0,2,0,2.9,0c0,2.1,0,4.2,0,6.2c1,0,2,0,2.9,0c0,1,0,2,0,3c1,0,2,0,2.9,0c0,1,0,2.1,0,3.1
		c2,0,3.9,0,5.9,0c0,1,0,2.1,0,3.1h20.6c0-1,0-2.1,0-3.1c2,0,3.9,0,5.9,0c0-1,0-2.1,0-3.1c1,0,2,0,2.9,0c0-1,0-2.1,0-3.1
		c1,0,2,0,2.9,0c0-2.1,0-4.1,0-6.2c0.9,0,1.9,0,2.8,0V83.6C137.9,83.6,137,83.6,136,83.6z M136,86.7c0,1,0,2.1,0,3.1
		c0,2.1,0,4.2,0,6.2c0,1,0,2.1,0,3.1c0,1,0,2.1,0,3.1c-1,0-2,0-2.9,0c0,1.1,0,2.1,0,3.2c0,1,0,2,0,2.9c0,0.2-0.2,0.1-0.4,0.1
		c-0.9,0-1.7,0-2.6,0c0,1,0,2,0,3c-1,0.1-2,0-2.9,0c-1,0-2,0-2.9,0c0,1,0,2.1,0,3.1c-1,0.1-2,0-2.9,0c-4.9,0-9.8,0-14.7,0
		c-1,0-1.9,0-2.9,0c-0.1-1,0-2.1,0-3.1c-1,0-2,0-3,0c-0.5,0.1-1,0-1.4,0c-0.5,0-0.9,0-1.4,0c-0.2-0.1-0.1-0.3-0.1-0.4
		c0-0.9,0-1.8,0-2.7c-1-0.1-2,0-3,0c0-1,0-2.1,0-3.1c0-1,0-2,0-3c-0.9,0-1.9,0-2.8,0c-0.2,0-0.1-0.2-0.2-0.3c0-0.9,0-1.9,0-2.8
		c0-1,0-2.1,0-3.1c0-2.1,0-4.2,0-6.3c0-1,0-2.1,0-3.1c0-0.9,0-1.9,0-2.8c0-0.1,0-0.3,0.2-0.3c0.9,0,1.8,0,2.8,0c0-1.1,0-2.1,0-3.2
		c0-1,0-2.1,0-3.1c1-0.1,2,0.1,2.9-0.1c0-1,0-1.9,0-2.9c0-0.2,0.2-0.2,0.3-0.2c0.9,0,1.7,0,2.6,0c1,0,2,0,2.9,0c0-1,0-2.1,0-3.1
		c5.9,0,11.8,0,17.7,0c1,0,1.9,0,2.9,0c0.1,1,0,2.1,0,3.1c1,0,2,0,3,0c0.7,0,1.3,0,2,0c0.3,0,0.6,0,0.9,0.1c0,1,0,2,0,3.1
		c0.9,0,1.8,0,2.8,0c0.2,0,0.2,0.2,0.2,0.3c0,0.9,0,1.8,0,2.8c0,1.1,0,2.1,0,3.2c1,0,1.9,0,2.9,0C136.1,84.7,136,85.7,136,86.7z"/>
	<path class="st7" d="M106.6,77.3c0-1,0-2.1,0-3.1c4.9,0,9.8,0,14.7,0c0-1,0-2.1,0-3.1c-5.9,0-11.8,0-17.7,0c0,1,0,2.1,0,3.1
		c-1,0-2,0-2.9,0c0,1,0,2.1,0,3.1C102.6,77.3,104.6,77.3,106.6,77.3z"/>
	<path class="st7" d="M121.3,74.2c0,1,0,2.1,0,3.1c1,0,2,0,2.9,0c0-1,0-2.1,0-3.1C123.3,74.2,122.3,74.2,121.3,74.2z"/>
	<path class="st8" d="M136,83.6c-1,0-1.9,0-2.9,0c0,1,0,2,0,3.1c-1,0-2,0-3,0c0-1,0-2.1,0-3.1c0-1.1,0-2.1,0-3.2c-1,0-1.9,0-2.9,0
		c0-1,0-2.1,0-3.1c1,0,1.9,0,2.9,0c0,1,0,2.1,0,3.1c1,0,2,0,3,0c0-0.9,0-1.8,0-2.8c0-0.1,0-0.4-0.2-0.3c-0.9,0-1.8,0-2.8,0
		c-0.1-1,0-2,0-3.1c-0.3-0.1-0.6-0.1-0.9-0.1c-0.7,0-1.4,0-2,0c0,1,0,2.1,0,3.1c-1,0-2,0-2.9,0c-1,0-2,0-2.9,0c0-1,0-2.1,0-3.1
		c1,0,2,0,2.9,0c0-1,0-2.1,0-3.1c-1,0-1.9,0-2.9,0c0,1,0,2.1,0,3.1c-4.9,0-9.8,0-14.7,0c0,1,0,2.1,0,3.1c-2,0-3.9,0-5.9,0
		c0-1,0-2.1,0-3.1c-0.9,0-1.7,0-2.6,0c-0.1,0-0.3,0-0.3,0.2c0,1,0,1.9,0,2.9c-1,0.2-2,0-2.9,0.1c-0.1,1,0,2.1,0,3.1c1,0,2,0,2.9,0
		c0,2.1,0,4.2,0,6.2c-1,0-2,0-2.9,0c0-1,0-2.1,0-3.1c-0.9,0-1.8,0-2.8,0c-0.2,0-0.2,0.2-0.2,0.3c0,0.9,0,1.9,0,2.8c1,0,2,0,2.9,0
		c0,1,0,2.1,0,3.1c0,2.1,0,4.2,0,6.2c0,1,0,2.1,0,3.1c1,0,2,0,2.9,0c0,2.1,0,4.1,0,6.2c-1,0-1.9,0-2.9,0c0,1,0,2.1,0,3.1
		c1,0.1,2,0,3,0c0,0.9,0,1.8,0,2.7c0,0.1,0,0.3,0.1,0.4c0.5,0.1,0.9,0,1.4,0c0.5,0,1,0,1.4,0c0-1,0-2.1,0-3.1c2,0,3.9,0,5.9,0
		c0,1,0,2,0,3.1c-1,0-1.9,0-2.9,0c0,1,0,2.1,0,3.1c1,0,1.9,0,2.9,0c0-1,0-2.1,0-3.1c4.9,0,9.8,0,14.7,0c0,1,0,2.1,0,3.1
		c1,0,2,0.1,2.9,0c0-1,0-2.1,0-3.1c-1,0-1.9,0-2.9,0c0-1,0-2,0-3.1c2,0,3.9,0,5.9,0c0,1,0,2,0,3.1c1,0,2,0.1,2.9,0c0-1,0-2,0-3
		c0.9,0,1.7,0,2.6,0c0.1,0,0.4,0,0.4-0.1c0-1,0-2,0-2.9c-1,0-2,0-2.9,0c0-2.1,0-4.2,0-6.2c1,0,2,0,2.9,0c0,1,0,2,0,3c1,0,2,0,2.9,0
		c0-1,0-2.1,0-3.1c-1,0-2,0-2.9,0c0-1,0-2.1,0-3.1c0-2.1,0-4.2,0-6.2c0-1,0-2.1,0-3.1c1,0,2,0,2.9,0C136,85.7,136.1,84.7,136,83.6z
		 M100.7,77.3c0,1,0,2.1,0,3.1c-1,0-2,0-2.9,0c0-1,0-2.1,0-3.1C98.7,77.3,99.7,77.3,100.7,77.3z M100.7,108.6c-1,0-1.9,0-2.9,0
		c0-1,0-2.1,0-3.1c1,0,1.9,0,2.9,0C100.7,106.5,100.7,107.5,100.7,108.6z M127.2,105.5c-1,0-2,0-3,0c-1,0-2,0-2.9,0c0,1,0,2.1,0,3.1
		c-4.9,0-9.8,0-14.7,0c0-1,0-2.1,0-3.1c-1,0-2,0-2.9,0c-1,0-2,0-3,0c0-1,0-2.1,0-3.1c0-1,0-2.1,0-3.1c-1,0-2,0-2.9,0
		c0-3.1,0-6.2,0-9.4c0-1,0-2.1,0-3.1c1,0,2,0,2.9,0c0-2.1,0-4.2,0-6.3c2,0,3.9,0,5.9,0c0-1,0-2.1,0-3.1c2,0,3.9,0,5.9,0c1,0,2,0,3,0
		c2,0,3.9,0,5.9,0c0,1,0,2.1,0,3.1c2,0,3.9,0,5.9,0c0,2.1,0,4.2,0,6.3c1,0,2,0,2.9,0c0,1,0,2.1,0,3.1c0,3.1,0,6.2,0,9.4
		c-1,0-2,0-2.9,0c0,1,0,2.1,0,3.1C127.2,103.4,127.2,104.4,127.2,105.5z M130.1,108.6c-1,0-1.9,0-2.9,0c0-1,0-2.1,0-3.1
		c1,0,1.9,0,2.9,0C130.1,106.5,130.1,107.6,130.1,108.6z"/>
	<path class="st8" d="M91.8,99.3c0,0.9,0,1.9,0,2.8c0,0.1,0,0.3,0.2,0.3c0.9,0,1.9,0,2.8,0c0-1,0-2.1,0-3.1
		C93.8,99.3,92.8,99.3,91.8,99.3z"/>
	<path class="st9" d="M127.2,77.3c0-1,0-2.1,0-3.1c-1,0-2,0-3,0c0,1,0,2.1,0,3.1C125.2,77.3,126.2,77.3,127.2,77.3z"/>
	<path class="st9" d="M124.2,99.2c-1,0-2,0-2.9,0c0-1,0-2.1,0-3.1c-1,0-1.9,0-2.9,0c0-1,0-2,0-3.1c1-0.1,1.9,0,2.9,0
		c0.1-1,0-2.1,0-3.1c1,0,1.9,0,2.9,0c1,0,2,0,3,0c1,0,2,0,2.9,0c0-1,0-2.1,0-3.1c-1,0-2,0-2.9,0c-2,0-3.9,0-5.9,0c-1,0-2,0-2.9,0
		c0-1,0-2.1,0-3.1c-1,0-2,0-3,0c0-1.1,0-2.1,0-3.2c0-1,0-2.1,0-3.1c-1,0-2,0-3,0c0,1,0,2.1,0,3.1c0.1,1,0,2.1,0,3.1c-1,0.1-2,0-3,0
		v0.1c0,1,0,2.1,0,3.1c-1,0-2,0-3,0c-2,0-3.9,0-5.9,0c-1,0-2,0-2.9,0c0,1,0,2.1,0,3.1c1,0,2,0,2.9,0c1,0,2,0,3,0c1,0,2,0,2.9,0
		c0.1,1,0,2.1,0,3.1c0.9,0.1,1.9-0.1,2.8,0.1c0.1,0.3,0.1,0.7,0.1,1c0,0.7,0,1.4,0,2c-1,0-2,0-2.9,0c0,1,0,2,0,3.1c-1,0-2,0-2.9,0
		c0,1,0,2.1,0,3.1c0,1.1,0,2.1,0,3.2c1,0,2,0,2.9,0c0-1,0-2,0-3.1c1,0,2,0,3,0c0-1,0-2.1,0-3.1c1,0,2,0,3,0c1,0,1.9,0,2.9,0
		c1,0,1.9,0,2.9,0c0,1,0,2,0,3.1l0.1,0c1,0,2,0,2.9,0c0,1,0,2.1,0,3.1c1,0,2,0,2.9,0c0-1.1,0-2.1,0-3.2
		C124.2,101.3,124.2,100.3,124.2,99.2z M118.4,93c-1,0-2,0-3,0c0,1,0,2.1,0,3.1c-1,0-1.9,0-2.9,0c0-1,0-2.1,0-3.1c-1,0-2,0-2.9,0
		c0-1,0-2.1,0-3.1c1,0,2,0,2.9,0c0-1,0-2.1,0-3.1c1,0,2,0,2.9,0c0,1,0,2.1,0,3.1c1,0,2,0,2.9,0C118.4,90.9,118.3,92,118.4,93z"/>
	<path class="st9" d="M130.1,77.3c-1,0-1.9,0-2.9,0c0,1,0,2.1,0,3.1c1,0,1.9,0,2.9,0c0,1.1,0,2.1,0,3.2c1,0,2,0,3,0
		c0-1.1,0-2.1,0-3.2c-1,0-2,0-3,0C130.1,79.4,130.2,78.4,130.1,77.3z"/>
	<path class="st9" d="M97.7,86.7c0-2.1,0-4.2,0-6.2c-1,0-2,0-2.9,0c0,1.1,0,2.1,0,3.2c0,1,0,2.1,0,3.1
		C95.8,86.7,96.7,86.7,97.7,86.7z"/>
	<path class="st9" d="M94.8,96.1c0-2.1,0-4.2,0-6.2c-1,0-2,0-2.9,0c0,2.1,0,4.2,0,6.3c0.2-0.1,0.5-0.1,0.8-0.1
		C93.3,96.1,94,96.1,94.8,96.1z"/>
	<path class="st9" d="M133.1,96.1c1,0,2,0,2.9,0c0-2.1,0-4.2,0-6.2c-1,0-1.9,0-2.9,0C133.1,92,133.1,94.1,133.1,96.1z"/>
	<path class="st10" d="M100.7,80.5c0-1,0-2.1,0-3.1c-1,0-2,0-2.9,0c0,1,0,2.1,0,3.1C98.7,80.5,99.7,80.5,100.7,80.5z"/>
	<path class="st11" d="M106.6,83.6c1,0,2,0,3,0v-0.1c0-1,0-2.1,0-3.1c1,0,2,0,2.9,0c0-1,0-2.1,0-3.1c-2,0-3.9,0-5.9,0
		c0,1,0,2.1,0,3.1c-2,0-3.9,0-5.9,0c0,2.1,0,4.2,0,6.3c2,0,3.9,0,5.9,0C106.6,85.7,106.6,84.7,106.6,83.6z"/>
	<path class="st11" d="M118.4,80.5c0,1.1,0,2.1,0,3.2c1,0,2,0,2.9,0c0,1,0,2.1,0,3.1c2,0,3.9,0,5.9,0c0-2.1,0-4.2,0-6.3
		c-2,0-3.9,0-5.9,0c0-1,0-2.1,0-3.1c-2,0-3.9,0-5.9,0c0,1,0,2.1,0,3.1C116.4,80.5,117.4,80.5,118.4,80.5z"/>
	<path class="st11" d="M103.6,99.2c0-2.1,0-4.1,0-6.2c-1,0-2,0-2.9,0c0-1,0-2.1,0-3.1c-1,0-2,0-2.9,0c0,3.1,0,6.2,0,9.4
		c1,0,2,0,2.9,0C101.6,99.2,102.6,99.3,103.6,99.2z"/>
	<path class="st11" d="M127.2,93c-1,0-2,0-2.9,0c0,1.7,0,3.4,0,5.2c0,0.3,0,0.7,0,1c1,0,1.9,0,2.9,0c1,0,2,0,2.9,0
		c0-3.1,0-6.2,0-9.4c-1,0-2,0-2.9,0C127.2,90.9,127.2,92,127.2,93z"/>
	<path class="st11" d="M118.4,102.4L118.4,102.4c-1,0-2,0-3,0c-1,0-1.9,0-2.9,0c-1,0-2,0-3,0c0,1,0,2.1,0,3.1c-1,0-2,0-3,0
		c0,1,0,2.1,0,3.1c4.9,0,9.8,0,14.7,0c0-1,0-2.1,0-3.1c-1,0-2,0-2.9,0C118.3,104.5,118.3,103.4,118.4,102.4z"/>
	<path class="st12" d="M109.5,83.6c1,0,2,0.1,3,0c0-1,0-2.1,0-3.1c-1,0-2,0-2.9,0C109.5,81.5,109.5,82.5,109.5,83.6z"/>
	<path class="st12" d="M115.4,80.5c0,1.1,0,2.1,0,3.2c1,0,2,0,3,0c0-1.1,0-2.1,0-3.2C117.4,80.5,116.4,80.5,115.4,80.5z"/>
	<path class="st12" d="M130.1,83.6c0,1,0,2.1,0,3.1c1,0,2,0,3,0c0-1,0-2,0-3.1C132.1,83.6,131.1,83.6,130.1,83.6z"/>
	<path class="st12" d="M94.8,89.9c0-1,0-2.1,0-3.1c-1,0-2,0-2.9,0c0,1,0,2.1,0,3.1C92.8,89.9,93.8,89.9,94.8,89.9z"/>
	<path class="st12" d="M133.1,89.9c1,0,1.9,0,2.9,0c0-1,0-2.1,0-3.1c-1,0-2,0-2.9,0C133.1,87.8,133.1,88.8,133.1,89.9z"/>
	<path class="st12" d="M106.6,93c0,1.1,0,2.1,0,3.2c1,0,2,0,2.9,0c0-0.7,0-1.4,0-2c0-0.3,0-0.7-0.1-1
		C108.5,92.9,107.5,93.1,106.6,93c0-1,0.1-2.1,0-3.1c-1,0-2,0-2.9,0c0,1,0,2.1,0,3.1C104.6,93,105.6,93,106.6,93z"/>
	<path class="st12" d="M121.3,89.9c0,1,0,2.1,0,3.1c-1,0.1-1.9,0-2.9,0c0,1,0,2,0,3.1c1,0,1.9,0,2.9,0c0-1,0-2.1,0-3.1
		c1,0,2,0,2.9,0c0-1,0-2.1,0-3.2C123.3,89.9,122.3,89.9,121.3,89.9z"/>
	<path class="st12" d="M97.7,99.3c-1,0-2,0-2.9,0c0-1,0-2.1,0-3.1c-0.7,0-1.5,0-2.2,0c-0.3,0-0.5,0-0.8,0.1c0,1,0,2.1,0,3.1
		c1,0,1.9,0,2.9,0c0,1,0,2.1,0,3.1c0,1,0,2,0,3c1,0,1.9,0,2.9,0C97.7,103.4,97.7,101.3,97.7,99.3z"/>
	<path class="st12" d="M133.1,96.1c0,1,0,2.1,0,3.1c1,0,2,0,2.9,0c0-1,0-2.1,0-3.1C135,96.1,134.1,96.1,133.1,96.1z"/>
	<path class="st12" d="M112.5,99.3c-1,0-2,0-3,0c0,1,0,2.1,0,3.1c1,0,2,0,3,0C112.5,101.4,112.5,100.3,112.5,99.3z"/>
	<path class="st12" d="M118.3,102.4c0-1,0-2,0-3.1c-1,0-1.9,0-2.9,0c0,1,0,2.1,0,3.1C116.3,102.4,117.3,102.4,118.3,102.4z"/>
	<path class="st12" d="M130.2,99.3c0,2.1,0,4.2,0,6.2c1,0,2,0,2.9,0c0-1.1,0-2.1,0-3.2c0-1,0-2,0-3
		C132.1,99.2,131.1,99.2,130.2,99.3z"/>
	<path class="st12" d="M100.7,102.3c0,1,0,2.1,0,3.1c1,0,2,0,3,0c0-1.1,0-2.1,0-3.2C102.6,102.3,101.6,102.3,100.7,102.3z"/>
	<path class="st12" d="M124.2,105.5c1,0,2,0,3,0c0-1.1,0-2.1,0-3.2c-1,0-2,0-3,0C124.2,103.4,124.2,104.4,124.2,105.5z"/>
	<path class="st12" d="M97.7,108.6c1,0,1.9,0,2.9,0c0-1,0-2.1,0-3.1c-1,0-1.9,0-2.9,0C97.7,106.5,97.7,107.5,97.7,108.6z"/>
	<path class="st12" d="M127.2,105.5c0,1,0,2.1,0,3.1c1,0,1.9,0,2.9,0c0-1,0-2.1,0-3.1C129.2,105.5,128.2,105.5,127.2,105.5z"/>
	<path class="st12" d="M106.5,108.6c-2,0-3.9,0-5.9,0c0,1,0,2.1,0,3.1c1,0,2,0,3,0c1,0,1.9,0,2.9,0
		C106.6,110.6,106.6,109.6,106.5,108.6z"/>
	<path class="st12" d="M121.3,108.6c0,1,0,2,0,3.1c1,0,1.9,0,2.9,0c1,0,2,0,2.9,0c0-1,0-2,0-3.1
		C125.2,108.6,123.3,108.6,121.3,108.6z"/>
	<path class="st12" d="M106.6,111.7c0,1,0,2.1,0,3.1c4.9,0,9.8,0,14.7,0c0-1,0-2.1,0-3.1C116.4,111.7,111.5,111.7,106.6,111.7z"/>
	<path class="st13" d="M106.6,83.6c0,1,0,2.1,0,3.1c1,0,2,0,3,0c0-1,0-2.1,0-3.1C108.5,83.6,107.6,83.6,106.6,83.6z"/>
	<path class="st13" d="M118.3,83.6c0,1,0,2.1,0,3.1c1,0,2,0,2.9,0c0-1,0-2.1,0-3.1C120.3,83.6,119.3,83.7,118.3,83.6z"/>
	<path class="st13" d="M115.4,89.9c0-1,0-2.1,0-3.1c-1,0-2,0-2.9,0c0,1,0,2.1,0,3.1c-1,0-2,0-2.9,0c0,1,0,2.1,0,3.1c1,0,2,0,2.9,0
		c0,1,0,2.1,0,3.1c1,0,1.9,0,2.9,0c0-1,0-2.1,0-3.1c1,0,2,0,3,0c0-1,0-2.1,0-3.1C117.4,89.9,116.4,89.9,115.4,89.9z"/>
	<path class="st13" d="M103.6,99.2c1,0,2,0,2.9,0c0-1,0-2,0-3.1c0-1.1,0-2.1,0-3.2c-1,0-2,0-2.9,0c0-1,0-2.1,0-3.1c-1,0-2,0-3,0
		c0,1,0,2.1,0,3.1c1,0,2,0,2.9,0C103.6,95.1,103.6,97.1,103.6,99.2c-1,0.1-2,0-3,0c0,1,0,2.1,0,3.1c1,0,2,0,3,0
		C103.6,101.3,103.6,100.2,103.6,99.2z"/>
	<path class="st13" d="M124.3,99.2c0-0.3,0-0.7,0-1c0-1.7,0-3.4,0-5.2c1,0,2,0,2.9,0c0-1.1,0-2.1,0-3.2c-1,0-2,0-3,0
		c0,1.1,0,2.1,0,3.2c-1,0-2,0-2.9,0c0,1,0,2.1,0,3.1c0,1,0,2.1,0,3.1C122.3,99.2,123.3,99.2,124.3,99.2c0,1,0,2.1,0,3.1c1,0,2,0,3,0
		c0-1,0-2.1,0-3.1C126.2,99.2,125.2,99.2,124.3,99.2z"/>
	<path class="st13" d="M115.4,102.4c0-1,0-2.1,0-3.1c-1,0-1.9,0-2.9,0c0,1,0,2.1,0,3.1C113.4,102.4,114.4,102.4,115.4,102.4z"/>
	<path class="st13" d="M109.5,102.4c-1,0-2,0-3,0c0,1,0,2,0,3.1c1,0,2,0,3,0C109.5,104.4,109.5,103.4,109.5,102.4z"/>
	<path class="st13" d="M121.3,102.4c-1,0-2,0-2.9,0c0,1,0,2.1,0,3.1c1,0,2,0,2.9,0C121.3,104.5,121.3,103.4,121.3,102.4z"/>
</g>
</svg>
