<svg id="Layer_1" data-name="Layer 1" xmlns="http://www.w3.org/2000/svg" xmlns:xlink="http://www.w3.org/1999/xlink" viewBox="0 0 612 612"><defs><style>.cls-1{opacity:0.3;isolation:isolate;fill:url(#linear-gradient);}.cls-2{fill:#253377;}.cls-2,.cls-3{stroke:#647ce8;}.cls-2,.cls-3,.cls-4,.cls-5,.cls-6{stroke-width:2px;}.cls-3,.cls-5{fill:none;}.cls-3{stroke-linecap:square;}.cls-4{fill:#1f2f7b;}.cls-4,.cls-5,.cls-6{stroke:#12e5b6;}.cls-6{fill:#f9f9f9;}.cls-7{stroke-miterlimit:10;stroke-width:3px;fill:url(#linear-gradient-2);stroke:url(#linear-gradient-3);}.cls-8{fill:#fff;}.cls-9{fill:url(#linear-gradient-4);}</style><linearGradient id="linear-gradient" x1="-1478.96" y1="1085.43" x2="-1478.96" y2="1084.53" gradientTransform="matrix(612, 0, 0, -612, 905429.5, 664372.5)" gradientUnits="userSpaceOnUse"><stop offset="0" stop-color="#3950b5"/><stop offset="1" stop-color="#162360"/></linearGradient><linearGradient id="linear-gradient-2" x1="282.59" y1="403.07" x2="282.59" y2="541.97" gradientTransform="matrix(1, 0, 0, -1, 0, 704)" gradientUnits="userSpaceOnUse"><stop offset="0.29" stop-color="#ffa700"/><stop offset="0.95" stop-color="#ff7100"/><stop offset="1" stop-color="#ff6d00"/></linearGradient><linearGradient id="linear-gradient-3" x1="282.59" y1="401.57" x2="282.59" y2="543.47" gradientTransform="matrix(1, 0, 0, -1, 0, 704)" gradientUnits="userSpaceOnUse"><stop offset="0" stop-color="#737373"/><stop offset="0.6"/></linearGradient><linearGradient id="linear-gradient-4" x1="288.02" y1="419.32" x2="288.02" y2="467.12" gradientTransform="matrix(1, 0, 0, -1, -3.39, 790.39)" xlink:href="#linear-gradient-3"/></defs><title>tour-control</title><path id="Oval-2" class="cls-1" d="M306,702c169,0,306-137,306-306S475,90,306,90,0,227,0,396,137,702,306,702Z" transform="translate(0 -90)"/><path id="Combined-Shape" class="cls-2" d="M175.92,149.47H383.55a19.88,19.88,0,0,1,19.83,19.82v416a19.89,19.89,0,0,1-19.83,19.82H175.92A19.88,19.88,0,0,1,156.1,585.3v-416A19.87,19.87,0,0,1,175.92,149.47Z" transform="translate(0 -90)"/><path id="Line" class="cls-3" d="M157.34,537.48h244.8" transform="translate(0 -90)"/><path id="Line-2" data-name="Line" class="cls-3" d="M257.93,571.42h46.34" transform="translate(0 -90)"/><g id="Group-3"><path id="Rectangle-path" class="cls-4" d="M319.63,485.45H485.14a9.94,9.94,0,0,1,9.91,9.91v143a9.94,9.94,0,0,1-9.91,9.91H319.63a9.94,9.94,0,0,1-9.91-9.91v-143A9.94,9.94,0,0,1,319.63,485.45Z" transform="translate(0 -90)"/><path id="Shape" class="cls-5" d="M356.05,485.45V439.11c0-25.52,20.81-46.58,46.33-46.58h0a46.48,46.48,0,0,1,46.34,46.58v46.58" transform="translate(0 -90)"/><path id="Shape-2" data-name="Shape" class="cls-6" d="M400.4,555.32v23.29" transform="translate(0 -90)"/></g><circle class="cls-7" cx="282.59" cy="231.48" r="69.45"/><path class="cls-8" d="M310.57,316.56v-2.25a.57.57,0,0,0-.57-.56c-22.4-.11-42.58-.5-41.12-3.6C269,306.34,314,274.83,315,274.07s-.64-3.67-2.25-3.09-22.38,12-22.38,12l-.13-9.7-4.31.08v11.93l-7.07,4-.17-15.9h-4.23l0,18.62c-7.8,4.58-24.12,16.43-26.12,18.34s-1.84,4.91,1,6c4.54,1.77,19.17,3.84,60.76.74A.59.59,0,0,0,310.57,316.56Z" transform="translate(0 -90)"/><path class="cls-9" d="M255.19,325.43v2.25a.56.56,0,0,0,.56.56c22.4.11,42.58.5,41.12,3.59-.13,3.81-45.14,35.31-46.12,36.08s.64,3.67,2.25,3.09,22.39-12,22.39-12l.14,9.71,4.31-.08V356.67l7.07-4,.17,15.9h4.23l0-18.63c7.8-4.58,24.12-16.43,26.12-18.33s1.83-4.91-1-6c-4.54-1.76-19.17-3.83-60.76-.74A.59.59,0,0,0,255.19,325.43Z" transform="translate(0 -90)"/></svg>