<svg id="Capa_1" data-name="Capa 1" xmlns="http://www.w3.org/2000/svg" xmlns:xlink="http://www.w3.org/1999/xlink" viewBox="0 0 586.27 586.27"><defs><style>.cls-1{stroke-miterlimit:10;stroke-width:8px;fill:url(#linear-gradient);stroke:url(#linear-gradient-2);}.cls-2{fill:#fff;}.cls-3{fill:url(#linear-gradient-3);}</style><linearGradient id="linear-gradient" x1="306.94" y1="104.81" x2="306.94" y2="683.07" gradientTransform="matrix(1, 0, 0, -1, -13.8, 687.07)" gradientUnits="userSpaceOnUse"><stop offset="0.29" stop-color="#ffa700"/><stop offset="0.95" stop-color="#ff7100"/><stop offset="1" stop-color="#ff6d00"/></linearGradient><linearGradient id="linear-gradient-2" x1="306.94" y1="100.81" x2="306.94" y2="687.07" gradientTransform="matrix(1, 0, 0, -1, -13.8, 687.07)" gradientUnits="userSpaceOnUse"><stop offset="0" stop-color="#737373"/><stop offset="0.6"/></linearGradient><linearGradient id="linear-gradient-3" x1="319.37" y1="170.39" x2="319.37" y2="382.39" gradientTransform="matrix(1, 0, 0, -1, -3.39, 790.39)" xlink:href="#linear-gradient-2"/></defs><title>bitpay-logo</title><circle class="cls-1" cx="293.13" cy="293.13" r="289.13"/><path class="cls-2" d="M431,378.24v-10a2.51,2.51,0,0,0-2.49-2.49c-99.35-.49-188.85-2.2-182.36-16,.56-16.89,200.17-156.63,204.52-160s-2.85-16.25-10-13.69-99.27,53.34-99.27,53.34l-.55-43-19.13.36V239.7l-31.37,17.68-.71-70.51h-18.8l-.15,82.59c-34.61,20.31-107,72.86-115.85,81.31s-8.13,21.79,4.29,26.64c20.15,7.84,85,17,269.48,3.27A2.55,2.55,0,0,0,431,378.24Z" transform="translate(-13.8 -106.93)"/><path class="cls-3" d="M185.41,417.57v10a2.49,2.49,0,0,0,2.48,2.49c99.35.49,188.84,2.2,182.35,15.9-.55,16.88-200.17,156.62-204.51,160s2.82,16.27,10,13.7S275,566.32,275,566.32l.63,43.06,19.12-.36v-52.9l31.37-17.69.72,70.51,18.79-.06.15-82.59C380.38,506,452.74,453.43,461.6,445s8.14-21.79-4.29-26.64c-20.15-7.83-85-17-269.47-3.27A2.54,2.54,0,0,0,185.41,417.57Z" transform="translate(-13.8 -106.93)"/></svg>