<svg id="Bitcoin_Symbol" data-name="Bitcoin Symbol" xmlns="http://www.w3.org/2000/svg" xmlns:xlink="http://www.w3.org/1999/xlink" viewBox="0 0 1093.67 1093.67"><defs><style>.cls-1{stroke-miterlimit:10;stroke-width:8px;fill:url(#linear-gradient);stroke:url(#linear-gradient-2);}.cls-2{fill:#fff;}.cls-3{fill:url(#linear-gradient-3);}</style><linearGradient id="linear-gradient" x1="605" y1="4.9" x2="605" y2="1090.56" gradientTransform="matrix(1, 0, 0, -1, -58.17, 1094.56)" gradientUnits="userSpaceOnUse"><stop offset="0.29" stop-color="#ffa700"/><stop offset="0.95" stop-color="#ff7100"/><stop offset="1" stop-color="#ff6d00"/></linearGradient><linearGradient id="linear-gradient-2" x1="605" y1="0.9" x2="605" y2="1094.56" gradientTransform="matrix(1, 0, 0, -1, -58.17, 1094.56)" gradientUnits="userSpaceOnUse"><stop offset="0" stop-color="#737373"/><stop offset="0.6"/></linearGradient><linearGradient id="linear-gradient-3" x1="625.37" y1="131.2" x2="625.37" y2="529.21" gradientTransform="matrix(1, 0, 0, -1, -3.39, 1104.39)" xlink:href="#linear-gradient-2"/></defs><title>icon-aureus-symbol</title><circle class="cls-1" cx="546.83" cy="546.83" r="542.83"/><path class="cls-2" d="M837.88,519.31V500.56a4.7,4.7,0,0,0-4.67-4.68c-186.53-.92-354.55-4.13-342.36-30,1-31.71,375.81-294.06,384-300.42s-5.34-30.52-18.72-25.72S669.71,239.92,669.71,239.92l-1-80.73-35.92.68V259.2l-58.89,33.2L572.52,160H537.23L537,315.08C472,353.2,336.08,451.86,319.44,467.73s-15.27,40.91,8.06,50c37.83,14.73,159.64,31.94,505.93,6.15A4.77,4.77,0,0,0,837.88,519.31Z" transform="translate(-58.17 -13.44)"/><path class="cls-3" d="M376.84,593.15V611.9a4.69,4.69,0,0,0,4.65,4.68C568,617.5,736,620.7,723.85,646.42c-1,31.71-375.81,294.06-384,300.43s5.29,30.54,18.72,25.71S545,872.41,545,872.41l1.17,80.85,35.91-.67V853.26L641,820.06l1.34,132.38,35.3-.12.27-155.06c65-38.13,200.87-136.79,217.51-152.66s15.27-40.91-8.06-50c-37.82-14.7-159.64-31.93-505.93-6.14A4.77,4.77,0,0,0,376.84,593.15Z" transform="translate(-58.17 -13.44)"/></svg>