<svg id="Layer_1" data-name="Layer 1" xmlns="http://www.w3.org/2000/svg" xmlns:xlink="http://www.w3.org/1999/xlink" viewBox="0 0 11.59 11.59"><defs><style>.cls-1{fill:#9e461b;}.cls-2{fill:#fff;}.cls-3{fill:#bd5f28;}.cls-4{fill:#f8c51d;}.cls-5{fill:#fbe638;}.cls-6{fill:#243e96;}.cls-7{fill:#f8a31a;}.cls-8{fill:#1b75ba;}.cls-9{stroke-miterlimit:10;stroke-width:0.25px;fill:url(#linear-gradient);stroke:url(#linear-gradient-2);}.cls-10{fill:url(#linear-gradient-3);}</style><linearGradient id="linear-gradient" x1="5.45" y1="0.88" x2="5.45" y2="12.22" gradientTransform="matrix(1, 0, 0, -1, 0.35, 12.35)" gradientUnits="userSpaceOnUse"><stop offset="0.29" stop-color="#ffa700"/><stop offset="0.95" stop-color="#ff7100"/><stop offset="1" stop-color="#ff6d00"/></linearGradient><linearGradient id="linear-gradient-2" x1="5.45" y1="0.75" x2="5.45" y2="12.35" gradientTransform="matrix(1, 0, 0, -1, 0.35, 12.35)" gradientUnits="userSpaceOnUse"><stop offset="0" stop-color="#737373"/><stop offset="0.6"/></linearGradient><linearGradient id="linear-gradient-3" x1="8.97" y1="-1.22" x2="8.97" y2="2.94" gradientTransform="matrix(1, 0, 0, -1, -3.39, 8.39)" xlink:href="#linear-gradient-2"/></defs><title>icon-aureus-small</title><path class="cls-1" d="M9.9,3.3V2H9.3V1.4H8.7V.8H7.5V.2h-4V.8H2.3v.6H1.7V2H1.1V3.3H.5V7.1h.6V8.3h.6v.6h.6v.6H3.5v.6H7.6V9.5H8.8V8.9h.6V8.3H10V7.1h.6V3.3Zm0,.7V7H9.3V8.2H8.7v.6H7.5v.6H3.4V8.8H2.8c0,.2-.1.2-.2.2H2.3V8.4H1.7V7.2H1.1V3.3h.6V2.1h.6V1.5H3.5V.9H7.6v.6H8.8v.6h.6V3.4H10C10,3.5,9.9,3.8,9.9,4Z" transform="translate(0.35 0.35)"/><path class="cls-2" d="M4,2.1V1.5H6.9A2,2,0,0,0,7,.8H3.5v.6H2.9V2A4.48,4.48,0,0,0,4,2.1Z" transform="translate(0.35 0.35)"/><path class="cls-2" d="M7,1.5v.6h.6V1.5Z" transform="translate(0.35 0.35)"/><path class="cls-3" d="M9.9,3.3H9.3v.6a.75.75,0,0,1-.5.1V2.8H8.2V2.2h.6v.6h.6V2.1H8.8V1.5H8.2v.6H7V1.5h.6V.9H7v.6H4.1v.6H2.9V1.5H2.3v.6H1.7v.6h.6V3.9a1.27,1.27,0,0,1-.6.1V3.4H1.1v.7h.6V6.5h.6V7.7H1.7v.6h.6v.6h.6V8.3H4.1v.6H3.5v.6h.6A.75.75,0,0,1,4,9H6.9v.6h.6V9H6.9V8.4H8.1V9h.6V8.4h.6V7.8H8.7V6.6h.6v.6h.6V6.6H9.3V4.2h.6C9.9,3.8,10,3.5,9.9,3.3Zm-7-1.2v.6H2.3V2.1Zm0,6.2H2.3V7.7h.6Zm5.3-.6H7v.6H4.1V7.7H2.9V6.5H2.3V4h.6V2.7H4.1V2.1h3v.6H8.3V4h.6V6.5H8.3v.6A1.27,1.27,0,0,0,8.2,7.7Zm.6.6H8.2V7.7h.6Z" transform="translate(0.35 0.35)"/><path class="cls-3" d="M1.1,6.5v.7h.6V6.6A1.27,1.27,0,0,0,1.1,6.5Z" transform="translate(0.35 0.35)"/><path class="cls-4" d="M8.2,2.1V1.5H7.6v.6Z" transform="translate(0.35 0.35)"/><path class="cls-4" d="M7.6,6.5H7V5.8H6.4V5.2H7V4.6H8.8V4H6.4V3.4H5.8V2.2H5.2V3.4H4.6V4H2.3v.6H4.1v.6h.6v.6H4.1v.6H3.5V7.6h.6V7h.6V6.4H6.5V7h.6v.6h.6V7A.75.75,0,0,1,7.6,6.5ZM6.4,5.2H5.8v.6H5.2V5.2H4.6V4.6h.6V4h.6v.6h.6Z" transform="translate(0.35 0.35)"/><path class="cls-4" d="M8.8,2.1H8.2v.6h.6v.6h.6V2.7H8.8Z" transform="translate(0.35 0.35)"/><path class="cls-4" d="M2.3,4V2.8H1.7V4Z" transform="translate(0.35 0.35)"/><path class="cls-4" d="M1.7,5.8V4.6H1.1V5.9h.2C1.4,5.8,1.5,5.8,1.7,5.8Z" transform="translate(0.35 0.35)"/><path class="cls-4" d="M9.4,5.8H10V4.6H9.4Z" transform="translate(0.35 0.35)"/><path class="cls-5" d="M2.9,2.7V2.1H2.3v.6Z" transform="translate(0.35 0.35)"/><path class="cls-6" d="M4,3.3h.6V2.7h.6V2.1H4v.6H2.8V4H4Z" transform="translate(0.35 0.35)"/><path class="cls-6" d="M6.4,2.7v.6H7V4H8.2V2.7H7V2.1H5.8v.6Z" transform="translate(0.35 0.35)"/><path class="cls-6" d="M3.5,6.5V5.3H2.9V4.7H2.3V6.6h.6A1.27,1.27,0,0,1,3.5,6.5Z" transform="translate(0.35 0.35)"/><path class="cls-6" d="M8.2,5.2H7.6V6.4H8.8V4.5H8.2Z" transform="translate(0.35 0.35)"/><path class="cls-6" d="M6.4,7.1H4.6v.6H4v.6H6.9V7.7H6.3A1.27,1.27,0,0,0,6.4,7.1Z" transform="translate(0.35 0.35)"/><path class="cls-7" d="M4.6,3.3h.6V2.7H4.6Z" transform="translate(0.35 0.35)"/><path class="cls-7" d="M5.8,2.7v.6h.6V2.7Z" transform="translate(0.35 0.35)"/><path class="cls-7" d="M8.8,3.3v.6a1.27,1.27,0,0,0,.6.1V3.4A1.27,1.27,0,0,0,8.8,3.3Z" transform="translate(0.35 0.35)"/><path class="cls-7" d="M1.7,4.6V4H1.1v.6Z" transform="translate(0.35 0.35)"/><path class="cls-7" d="M9.4,4.6H10V4H9.4C9.4,4.2,9.3,4.4,9.4,4.6Z" transform="translate(0.35 0.35)"/><path class="cls-7" d="M4,5.2v.6h.6V5.2H4V4.6H3.4v.6Z" transform="translate(0.35 0.35)"/><path class="cls-7" d="M7,4.6v.6H6.4v.6H7V5.2h.6V4.6Z" transform="translate(0.35 0.35)"/><path class="cls-7" d="M2.3,6.5H1.7V5.9H1.1v.6h.6V7.7h.6Z" transform="translate(0.35 0.35)"/><path class="cls-7" d="M9.4,5.8v.6H10V5.8Z" transform="translate(0.35 0.35)"/><path class="cls-7" d="M5.2,6.5H4.6v.6h.6Z" transform="translate(0.35 0.35)"/><path class="cls-7" d="M6.4,7.1V6.5H5.8v.6Z" transform="translate(0.35 0.35)"/><path class="cls-7" d="M8.8,6.5V7.7h.6V6.5Z" transform="translate(0.35 0.35)"/><path class="cls-7" d="M2.9,7.1v.6h.6V7.1Z" transform="translate(0.35 0.35)"/><path class="cls-7" d="M7.6,7.7h.6V7.1H7.6Z" transform="translate(0.35 0.35)"/><path class="cls-7" d="M2.3,8.3h.6V7.7H2.3Z" transform="translate(0.35 0.35)"/><path class="cls-7" d="M8.2,7.7v.6h.6V7.7Z" transform="translate(0.35 0.35)"/><path class="cls-7" d="M4,8.3H2.8v.6H4Z" transform="translate(0.35 0.35)"/><path class="cls-7" d="M7,8.3v.6H8.2V8.3Z" transform="translate(0.35 0.35)"/><path class="cls-7" d="M4,9v.6H6.9A1.27,1.27,0,0,0,7,9,15,15,0,0,0,4,9Z" transform="translate(0.35 0.35)"/><path class="cls-8" d="M4,3.3V4h.6V3.4A1.27,1.27,0,0,0,4,3.3Z" transform="translate(0.35 0.35)"/><path class="cls-8" d="M6.4,3.3v.6A1.27,1.27,0,0,0,7,4V3.4A1.27,1.27,0,0,0,6.4,3.3Z" transform="translate(0.35 0.35)"/><path class="cls-8" d="M5.8,4.6V4H5.2v.6H4.6v.6h.6v.6h.6V5.2h.6V4.6Z" transform="translate(0.35 0.35)"/><path class="cls-8" d="M3.5,6.5h.6V5.3H3.5V4.7H2.9v.6h.6V6.5H2.9v.6h.6Z" transform="translate(0.35 0.35)"/><path class="cls-8" d="M7.6,6.5V5.3h.6V4.7H7.6v.6H7V6.5h.6v.6h.6V6.5Z" transform="translate(0.35 0.35)"/><path class="cls-8" d="M5.8,7.1V6.5H5.2v.6Z" transform="translate(0.35 0.35)"/><path class="cls-8" d="M4.6,7.1H4v.6h.6Z" transform="translate(0.35 0.35)"/><path class="cls-8" d="M7,7.1H6.4v.6H7Z" transform="translate(0.35 0.35)"/><circle class="cls-9" cx="5.8" cy="5.8" r="5.67"/><path class="cls-2" d="M7.83,4.87v-.2a0,0,0,0,0,0,0c-1.94,0-3.7,0-3.57-.31s3.92-3.07,4-3.14S8.16.85,8,.9,6.08,2,6.08,2V1.1H5.69v1l-.62.35V1.11H4.69V2.73a23.78,23.78,0,0,0-2.27,1.6.3.3,0,0,0,.08.52c.4.15,1.67.33,5.29.06A0,0,0,0,0,7.83,4.87Z" transform="translate(0.35 0.35)"/><path class="cls-10" d="M3,5.64v.19a0,0,0,0,0,0,0c1.95,0,3.71,0,3.58.31s-3.92,3.08-4,3.14.06.32.2.27,1.94-1,1.94-1l0,.84h.37v-1L5.78,8V9.39h.37V7.77A26.08,26.08,0,0,0,8.43,6.18a.3.3,0,0,0-.08-.53C8,5.5,6.68,5.32,3.06,5.59A0,0,0,0,0,3,5.64Z" transform="translate(0.35 0.35)"/></svg>