<svg id="Layer_1" data-name="Layer 1" xmlns="http://www.w3.org/2000/svg" xmlns:xlink="http://www.w3.org/1999/xlink" viewBox="0 0 11.59 11.59"><defs><style>.cls-1{stroke-miterlimit:10;stroke-width:0.25px;fill:url(#linear-gradient);stroke:url(#linear-gradient-2);}.cls-2{fill:#fff;}.cls-3{fill:url(#linear-gradient-3);}</style><linearGradient id="linear-gradient" x1="5.6" y1="0.93" x2="5.6" y2="12.27" gradientTransform="matrix(1, 0, 0, -1, 0.19, 12.39)" gradientUnits="userSpaceOnUse"><stop offset="0.29" stop-color="#ffa700"/><stop offset="0.95" stop-color="#ff7100"/><stop offset="1" stop-color="#ff6d00"/></linearGradient><linearGradient id="linear-gradient-2" x1="5.6" y1="0.81" x2="5.6" y2="12.39" gradientTransform="matrix(1, 0, 0, -1, 0.19, 12.39)" gradientUnits="userSpaceOnUse"><stop offset="0" stop-color="#737373"/><stop offset="0.6"/></linearGradient><linearGradient id="linear-gradient-3" x1="9.17" y1="-1.32" x2="9.17" y2="2.83" gradientTransform="matrix(1, 0, 0, -1, -3.39, 8.39)" xlink:href="#linear-gradient-2"/></defs><title>icon-bitcoin-small</title><circle class="cls-1" cx="5.79" cy="5.79" r="5.67"/><path class="cls-2" d="M8,5V4.78a0,0,0,0,0,0,0c-1.94,0-3.7-.05-3.57-.32s3.92-3.07,4-3.13S8.36,1,8.22,1s-1.94,1-1.94,1l0-.84H5.89v1l-.62.34V1.22H4.89V2.84A26.08,26.08,0,0,0,2.62,4.43.3.3,0,0,0,2.7,5c.4.15,1.67.33,5.29.06A0,0,0,0,0,8,5Z" transform="translate(0.19 0.39)"/><path class="cls-3" d="M3.22,5.74v.2a0,0,0,0,0,0,0C5.21,6,7,6,6.84,6.3s-3.92,3.07-4,3.14.06.32.2.27S5,8.66,5,8.66L5,9.5h.37v-1L6,8.11V9.5h.37V7.88a23.78,23.78,0,0,0,2.27-1.6.3.3,0,0,0-.08-.52c-.4-.16-1.67-.34-5.28-.07C3.24,5.7,3.22,5.72,3.22,5.74Z" transform="translate(0.19 0.39)"/></svg>