<svg id="Bitcoin_Symbol" data-name="Bitcoin Symbol" xmlns="http://www.w3.org/2000/svg" xmlns:xlink="http://www.w3.org/1999/xlink" viewBox="0 0 1093.67 1093.67"><defs><style>.cls-1{stroke-miterlimit:10;stroke-width:8px;fill:url(#linear-gradient);stroke:url(#linear-gradient-2);}.cls-2{fill:#fff;}.cls-3{fill:url(#linear-gradient-3);}</style><linearGradient id="linear-gradient" x1="590.27" y1="9.9" x2="590.27" y2="1095.56" gradientTransform="matrix(1, 0, 0, -1, -43.44, 1099.56)" gradientUnits="userSpaceOnUse"><stop offset="0.29" stop-color="#ffa700"/><stop offset="0.95" stop-color="#ff7100"/><stop offset="1" stop-color="#ff6d00"/></linearGradient><linearGradient id="linear-gradient-2" x1="590.27" y1="5.9" x2="590.27" y2="1099.56" gradientTransform="matrix(1, 0, 0, -1, -43.44, 1099.56)" gradientUnits="userSpaceOnUse"><stop offset="0" stop-color="#737373"/><stop offset="0.6"/></linearGradient><linearGradient id="linear-gradient-3" x1="610.64" y1="136.2" x2="610.64" y2="534.21" gradientTransform="matrix(1, 0, 0, -1, -3.39, 1104.39)" xlink:href="#linear-gradient-2"/></defs><title>icon-bitcoin-symbol</title><circle class="cls-1" cx="546.83" cy="546.83" r="542.83"/><path class="cls-2" d="M823.15,514.31V495.56a4.7,4.7,0,0,0-4.67-4.68c-186.53-.92-354.55-4.13-342.36-30,1-31.71,375.81-294.06,384-300.42s-5.34-30.52-18.72-25.72S655,234.92,655,234.92l-1-80.73-35.92.68V254.2l-58.89,33.2L557.79,155H522.5l-.27,155.07c-65,38.12-200.88,136.78-217.52,152.65s-15.27,40.91,8.06,50c37.83,14.73,159.64,31.94,505.93,6.15A4.77,4.77,0,0,0,823.15,514.31Z" transform="translate(-43.44 -8.44)"/><path class="cls-3" d="M362.11,588.15V606.9a4.69,4.69,0,0,0,4.65,4.68c186.53.92,354.55,4.12,342.36,29.84-1,31.71-375.81,294.06-384,300.43s5.29,30.54,18.72,25.71S530.26,867.41,530.26,867.41l1.17,80.85,35.91-.67V848.26l58.89-33.2,1.34,132.38,35.3-.12.27-155.06c65-38.13,200.87-136.79,217.51-152.66s15.27-40.91-8.06-50c-37.82-14.7-159.64-31.93-505.93-6.14A4.77,4.77,0,0,0,362.11,588.15Z" transform="translate(-43.44 -8.44)"/></svg>