<svg id="Capa_1" data-name="Capa 1" xmlns="http://www.w3.org/2000/svg" viewBox="0 0 176.02 34.17"><title>logo-negative</title><path d="M51.07,32.91l-.65,6.73a22.28,22.28,0,0,0-3.83-1.27A15.38,15.38,0,0,0,43,37.94a8.34,8.34,0,0,0-4.11.84,2.56,2.56,0,0,0-1.48,2.3,2.53,2.53,0,0,0,.75,1.81,5.76,5.76,0,0,0,2.27,1.27l1.45.46q5.6,1.82,7.44,3.19a8.47,8.47,0,0,1,2.52,3,9.24,9.24,0,0,1,.8,4q0,5.4-3.58,8.23T38.72,65.92a35.39,35.39,0,0,1-4.92-.35,36.18,36.18,0,0,1-4.9-1l.73-7.28a26.37,26.37,0,0,0,4.47,1.58,16.93,16.93,0,0,0,4.09.54,7.41,7.41,0,0,0,4.06-1,3,3,0,0,0,1.5-2.62c0-1.36-1.6-2.59-4.78-3.69l-1.76-.62c-3.11-1.12-5.33-2.41-6.66-3.89a8.14,8.14,0,0,1-2-5.66,8.89,8.89,0,0,1,3.51-7.55c2.35-1.76,5.7-2.64,10.08-2.64a36.58,36.58,0,0,1,4.64.29A29.63,29.63,0,0,1,51.07,32.91Z" transform="translate(-28.55 -31.74)"/><path d="M54.92,32.55h8.7L67.29,55l.27,2.38c.1.88.2,1.81.31,2.79,0-.92.09-1.81.18-2.66s.2-1.64.32-2.39l3.81-22.56H83.13l4,22.46c.13.63.26,1.39.36,2.27s.21,1.84.3,2.88c.14-1.69.24-2.84.31-3.46s.14-1.13.22-1.53l3.79-22.62h8.14l-7,32.61H82.14L77.92,41.89c-.08-.38-.16-1-.25-2s-.19-2.07-.28-3.41c-.09,1.52-.17,2.72-.24,3.61S77,41.57,77,41.84L73,65.16H62Z" transform="translate(-28.55 -31.74)"/><path d="M103.94,32.55h8.7V65.16h-8.7Z" transform="translate(-28.55 -31.74)"/><path d="M116.36,32.55h24.85v6.51h-8.08v26.1h-8.69V39.06h-8.08Z" transform="translate(-28.55 -31.74)"/><path d="M171.87,33.53l-.75,6.82a15.54,15.54,0,0,0-3.79-1.64,15,15,0,0,0-4-.54A10.6,10.6,0,0,0,155.53,41a10.21,10.21,0,0,0-2.89,7.64,10.16,10.16,0,0,0,3,7.67,10.81,10.81,0,0,0,7.86,2.86,17.44,17.44,0,0,0,3.94-.47,21.25,21.25,0,0,0,4.05-1.41l.52,7.32a35.34,35.34,0,0,1-4.68,1,33.72,33.72,0,0,1-4.72.33q-8.9,0-13.84-4.56t-5-12.7q0-7.78,4.89-12.35t13.26-4.57a30.21,30.21,0,0,1,5.32.45A22.4,22.4,0,0,1,171.87,33.53Z" transform="translate(-28.55 -31.74)"/><path d="M177,32.55h8.69V45h10.15V32.55h8.7V65.16h-8.7V51.53H185.73V65.16H177Z" transform="translate(-28.55 -31.74)"/></svg>