<svg id="Capa_1" data-name="Capa 1" xmlns="http://www.w3.org/2000/svg" viewBox="0 0 176.02 34.17"><title>logo</title><path d="M51.87,34.94l-.65,6.73a23.26,23.26,0,0,0-3.83-1.28A15.92,15.92,0,0,0,43.83,40a8.41,8.41,0,0,0-4.12.84,2.55,2.55,0,0,0-1.48,2.3,2.5,2.5,0,0,0,.76,1.8,5.65,5.65,0,0,0,2.27,1.28l1.45.46c3.73,1.2,6.21,2.27,7.44,3.19a8.39,8.39,0,0,1,2.52,3,9.24,9.24,0,0,1,.8,4q0,5.4-3.58,8.23T39.52,67.94a35.38,35.38,0,0,1-4.92-.34,36.18,36.18,0,0,1-4.9-1l.73-7.28a26.3,26.3,0,0,0,4.47,1.57A16.93,16.93,0,0,0,39,61.4a7.41,7.41,0,0,0,4.06-1,3,3,0,0,0,1.5-2.62c0-1.36-1.6-2.59-4.78-3.69L38,53.51a16.47,16.47,0,0,1-6.66-3.89,8.14,8.14,0,0,1-2-5.66,8.89,8.89,0,0,1,3.51-7.55c2.35-1.76,5.7-2.64,10.08-2.64a36.58,36.58,0,0,1,4.64.29A28.35,28.35,0,0,1,51.87,34.94Z" transform="translate(-29.35 -33.77)"/><path d="M55.72,34.57h8.7L68.09,57l.27,2.37c.1.88.2,1.81.31,2.79,0-.92.09-1.8.18-2.65s.2-1.65.32-2.4L73,34.57h11L88,57c.13.63.26,1.38.36,2.26s.21,1.84.3,2.88c.14-1.68.24-2.83.31-3.45s.14-1.13.22-1.53L93,34.57h8.14l-7,32.62H82.94L78.72,43.92c-.08-.39-.16-1.05-.26-2s-.18-2.08-.27-3.41C78.1,40,78,41.24,78,42.13s-.13,1.46-.17,1.74l-4,23.32h-11Z" transform="translate(-29.35 -33.77)"/><path d="M104.74,34.57h8.7V67.19h-8.7Z" transform="translate(-29.35 -33.77)"/><path d="M117.16,34.57H142v6.52h-8.08v26.1h-8.69V41.09h-8.08Z" transform="translate(-29.35 -33.77)"/><path d="M172.67,35.56l-.75,6.82a15.16,15.16,0,0,0-3.79-1.64,15,15,0,0,0-4-.54A10.64,10.64,0,0,0,156.33,43a10.25,10.25,0,0,0-2.89,7.65,10.16,10.16,0,0,0,2.95,7.67,10.81,10.81,0,0,0,7.86,2.86,17.44,17.44,0,0,0,3.94-.47,22,22,0,0,0,4.05-1.41l.52,7.32a35.34,35.34,0,0,1-4.68,1,33.72,33.72,0,0,1-4.72.32q-8.9,0-13.84-4.55t-5-12.7q0-7.78,4.89-12.35t13.26-4.57a30.21,30.21,0,0,1,5.32.45A21.8,21.8,0,0,1,172.67,35.56Z" transform="translate(-29.35 -33.77)"/><path d="M177.84,34.57h8.69V47h10.15V34.57h8.7V67.19h-8.7V53.55H186.53V67.19h-8.69Z" transform="translate(-29.35 -33.77)"/></svg>