<?xml version="1.0" encoding="utf-8"?>
<!-- Generator: Adobe Illustrator 21.0.0, SVG Export Plug-In . SVG Version: 6.00 Build 0)  -->
<svg version="1.1" id="Layer_1" xmlns="http://www.w3.org/2000/svg" xmlns:xlink="http://www.w3.org/1999/xlink" x="0px" y="0px"
	 viewBox="0 0 247 247" style="enable-background:new 0 0 247 247;" xml:space="preserve">
<style type="text/css">
	.st0{opacity:0.3;fill:url(#Oval-2_1_);enable-background:new    ;}
	.st1{fill:#253377;stroke:#647CE8;stroke-width:2;}
	.st2{fill:none;stroke:#647CE8;stroke-width:2;stroke-linecap:square;}
	.st3{fill:#1F2F7B;stroke:#12E5B6;stroke-width:2;}
	.st4{fill:none;stroke:#12E5B6;stroke-width:2;}
	.st5{fill:#F9F9F9;stroke:#12E5B6;stroke-width:2;}
	.st6{fill:#FFFFFF;}
	.st7{fill:#253377;}
	.st8{fill:#0198F5;}
</style>
<title>bg-3</title>
<desc>Created with Sketch.</desc>
<linearGradient id="Oval-2_1_" gradientUnits="userSpaceOnUse" x1="-696.0607" y1="-561.6964" x2="-696.0607" y2="-560.8017" gradientTransform="matrix(247 0 0 247 172050.5 138739)">
	<stop  offset="0" style="stop-color:#3950B5"/>
	<stop  offset="1" style="stop-color:#162360"/>
</linearGradient>
<path id="Oval-2" class="st0" d="M123.5,247c68.2,0,123.5-55.3,123.5-123.5S191.7,0,123.5,0S0,55.3,0,123.5S55.3,247,123.5,247z"/>
<path id="Combined-Shape" class="st1" d="M71,24h83.8c4.4,0,8,3.6,8,8v167.9c0,4.4-3.6,8-8,8H71c-4.4,0-8-3.6-8-8V32
	C63,27.6,66.6,24,71,24z"/>
<path id="Line" class="st2" d="M63.5,180.6h98.8"/>
<path id="Line_1_" class="st2" d="M104.1,194.3h18.7"/>
<g id="Group-3" transform="translate(125.000000, 122.000000)">
	<path id="Rectangle-path" class="st3" d="M4,37.6h66.8c2.2,0,4,1.8,4,4v57.7c0,2.2-1.8,4-4,4H4c-2.2,0-4-1.8-4-4V41.6
		C0,39.4,1.8,37.6,4,37.6z"/>
	<path id="Shape_6_" class="st4" d="M18.7,37.6V18.9c0-10.3,8.4-18.8,18.7-18.8l0,0c10.3,0,18.7,8.4,18.7,18.8v18.8"/>
	<path id="Shape_7_" class="st5" d="M36.6,65.8v9.4"/>
</g>
<g>
	<polygon class="st6" points="128.3,124.7 140.3,124.7 118.5,70.4 107,70.4 85.9,124.7 97.5,124.7 112.5,83.1 	"/>
	<rect x="85.2" y="104.2" class="st6" width="55.4" height="3.2"/>
	<rect x="85.2" y="97.6" class="st6" width="55.4" height="3.2"/>
	<rect x="74.3" y="58.9" class="st7" width="72.9" height="68.4"/>
</g>
<g>
	<path class="st6" d="M113.7,122.9c-0.5,0-1.2-0.3-2.3-0.8C109,121,87.9,111.2,87,110.8c-0.3-0.1-0.5-0.5-0.5-0.8V91.7
		c0-0.9,0-1.6,0.6-1.9c0.6-0.4,1.5-0.2,3.5,0.7c0.2,0.1,19.1,8.8,20.7,9.6l0.1,0.1c1.6,0.8,3.2,1.5,3.2,6.7v14.4
		c0,0.6,0,1.3-0.5,1.6C114.1,122.9,113.9,122.9,113.7,122.9z M87.8,90.4c-0.1,0-0.2,0-0.2,0.1c-0.2,0.1-0.2,0.9-0.2,1.2V110
		c0,0,0,0,0,0c0.9,0.4,21.9,10.2,24.3,11.3c0.7,0.3,1.8,0.8,2,0.8c0,0,0.1-0.2,0.1-0.9v-14.4c0-4.6-1.2-5.2-2.7-5.9l-0.1-0.1
		c-1.6-0.8-20.5-9.5-20.7-9.6l0,0C89.1,90.7,88.3,90.4,87.8,90.4z"/>
</g>
<g>
	<path class="st6" d="M116,127.4c-0.6,0-1.3-0.2-2-0.6c-2.5-1.2-22.2-10.4-25.8-12.1v6.3c0,0.2-0.1,0.4-0.3,0.5
		c-0.2,0.1-0.4,0.1-0.6,0l-3.3-1.5c-0.2-0.1-0.4-0.3-0.4-0.6V87.2c0-1.1,0.1-2.3,1-2.8c0.9-0.6,2.3-0.3,4.9,0.9
		c4.1,1.9,17.3,8.1,22.9,10.8l1.2,0.6c4.7,2.2,5,4.6,5,8v18.1c0,2.3-0.5,3.7-1.4,4.4C116.8,127.3,116.4,127.4,116,127.4z M88,113.8
		c0.1,0,0.2,0,0.3,0.1c3.1,1.4,23.4,10.9,26,12.2c1.1,0.5,1.9,0.6,2.5,0.3c0.7-0.4,1.1-1.7,1.1-3.7v-18.1c0-3.2-0.2-5.2-4.6-7.2
		l-1.2-0.6C106.3,94.2,93.1,88,89.1,86c-2.1-1-3.5-1.3-4.1-1c-0.4,0.3-0.6,0.9-0.6,2.1v32.3l2.9,1.3v-6.3c0-0.2,0.1-0.4,0.3-0.5
		C87.7,113.9,87.8,113.8,88,113.8z"/>
</g>
<g>
	<polygon class="st8" points="144.5,113.7 126.2,122.2 126.2,95.2 99.6,82.7 117.9,74.1 144.4,86.6 	"/>
</g>
<g>
	<path class="st6" d="M117.1,97.5c-0.1,0-0.2,0-0.3-0.1c-1-0.5-24.3-11.7-26.3-12.6c-1.4-0.6-2.1-1.4-2.1-2.2c0-0.9,0.8-1.8,2.5-2.6
		c3.5-1.7,21.5-10.2,23.1-10.9c1.5-0.7,3.3-1.2,6.2,0.2c2.3,1,23.4,11,26.7,12.5c0.2,0.1,0.4,0.3,0.4,0.6c0,0.2-0.1,0.5-0.4,0.6
		l-3.7,1.9c-0.2,0.1-0.4,0.1-0.6,0c-1.5-0.7-19.7-9.3-23.3-11c-1.5-0.7-3.1-0.7-4.5,0l-16.1,8c-0.3,0.1-0.4,0.4-0.4,0.7
		c0,0.3,0.2,0.6,0.4,0.7c6.1,2.9,20.6,9.9,22.7,10.9c0.2,0.1,0.4,0.3,0.4,0.6c0,0.2-0.1,0.5-0.3,0.6l-4,2.2
		C117.3,97.5,117.2,97.5,117.1,97.5z M116.8,69.2c-0.9,0-1.7,0.2-2.4,0.6c-1.5,0.7-19.5,9.2-23,10.9c-1.3,0.6-2.1,1.3-2.1,1.9
		c0,0.5,0.6,1,1.6,1.5c2,0.9,24.4,11.7,26.2,12.6l3.6-2c-3-1.4-16.5-7.9-22.3-10.7c-0.6-0.3-0.9-0.8-0.9-1.5c0-0.6,0.3-1.2,0.9-1.5
		l16.1-8c1.7-0.8,3.6-0.8,5.3,0c3.6,1.7,21.4,10.1,23.2,11l3.3-1.7c-4.2-2-24.2-11.4-26.4-12.4C118.7,69.4,117.7,69.2,116.8,69.2z"
		/>
</g>
</svg>
